<svg width="41" height="41" viewBox="0 0 41 41" fill="none" xmlns="http://www.w3.org/2000/svg">
<rect x="0.45459" y="0.328125" width="40" height="40" rx="20" fill="black" fill-opacity="0.48"/>
<path d="M12.2229 21.5402H25.7623L19.8471 27.4553C19.3744 27.928 19.3744 28.7038 19.8471 29.1765C20.3198 29.6492 21.0835 29.6492 21.5562 29.1765L29.5441 21.1886C30.0168 20.7159 30.0168 19.9523 29.5441 19.4795L21.5683 11.4795C21.0956 11.0068 20.332 11.0068 19.8592 11.4795C19.3865 11.9523 19.3865 12.7159 19.8592 13.1886L25.7623 19.1159H12.2229C11.5562 19.1159 11.0107 19.6614 11.0107 20.328C11.0107 20.9947 11.5562 21.5402 12.2229 21.5402Z" fill="white"/>
</svg>
