<svg width="452" height="8" viewBox="0 0 452 8" fill="none" xmlns="http://www.w3.org/2000/svg">
<path d="M203.57 5.80626L205.786 6.19626C203.104 6.83626 201.166 6.61626 203.251 7.16626C203.562 5.80626 211.878 7.02626 212.189 5.66626L213.653 5.95626C213.235 5.94626 213.17 6.02626 212.753 6.00626C215.599 6.65626 214.871 5.02626 218.534 5.21626C219.81 5.31626 220.701 5.51626 219.834 5.67626L222.68 5.33626C223.506 5.36626 223.31 5.59626 222.484 5.57626L226.826 5.46626L226.793 5.50626C227.415 5.29626 228.813 4.96626 229.5 4.82626C230.604 5.01626 228.944 4.96626 229.23 5.13626L231.634 4.80626C232.615 5.15626 230.62 5.49626 228.96 5.44626C231.209 6.80626 230.955 5.10626 235.804 5.89626L233.531 6.06626C234.995 6.83626 236.769 6.55626 239.337 7.03626C238.732 6.78626 234.194 5.82626 236.81 5.48626C237.546 5.58626 238.511 5.63626 239.926 5.36626C239.942 5.84626 241.316 5.72626 243.033 5.70626L242.919 6.34626C244.775 6.16626 244.628 5.83626 245.723 5.54626C247.792 5.60626 248.225 6.10626 248.716 6.52626C252.036 6.62626 246.427 5.73626 250.352 5.60626C253.115 5.84626 255.053 5.58626 258.357 5.20626C260.287 5.42626 258.022 5.59626 258.709 5.77626L260.418 5.26626C260.835 5.27626 260.704 5.43626 260.63 5.51626C262.069 5.31626 260.753 4.87626 263.018 4.70626C263.631 4.00626 267.679 5.73626 270.484 4.93626C271.179 5.11626 270.148 5.32626 270.361 5.57626C274.212 5.05626 273.665 5.19626 276.829 4.48626L279.528 4.90626C277.549 4.42626 280.075 3.85626 282.291 3.38626C281.588 3.15626 280.991 2.95626 280.582 2.85626L284.115 2.51626C284.54 2.62626 284.189 2.83626 283.608 3.10626C283.845 3.05626 284.074 2.99626 284.254 2.95626C285.521 3.19626 284.859 3.56626 283.96 3.91626C283.526 3.78626 283.101 3.65626 282.684 3.52626C281.809 3.91626 280.991 4.34626 281.171 4.71626C281.4 4.64626 281.842 4.57626 282.332 4.54626C282.103 4.65626 281.956 4.74626 282.063 4.80626C282.185 4.87626 282.553 4.73626 283.134 4.56626L283.935 5.27626L284.131 4.99626L288.76 5.44626C292.071 4.72626 294.95 3.67626 300.199 3.37626C298.899 3.89626 299.921 4.22626 299.848 4.84626C298.417 4.18626 295.776 5.12626 293.053 4.99626C294.475 5.06626 294.165 5.35626 293.797 5.46626L298.654 4.86626C298.548 5.37626 299.684 5.24626 300.952 5.45626C299.995 4.45626 304.574 4.78626 306.545 4.48626C306.668 4.82626 306.193 5.16626 303.781 5.08626C306.439 5.83626 307.215 3.90626 309.832 4.54626C309.243 4.54626 308.924 4.50626 308.695 4.67626C310.069 4.37626 313.43 4.61626 312.645 4.90626H312.056C315.965 5.03626 323.954 4.91626 324.535 4.06626C324.576 4.17626 324.02 5.09626 323.782 5.26626L330.757 2.40626C330.144 3.13626 332.499 4.87626 329.261 5.28626C330.193 5.38626 331.346 5.51626 333.301 5.25626C332.663 5.15626 331.722 4.19626 332.589 4.13626C334.969 4.94626 334.241 4.57626 337.176 5.26626C336.228 5.10626 337.283 3.96626 338.787 3.99626C338.55 4.16626 338.91 5.12626 338.362 5.24626L342.107 4.12626C341.175 4.32626 341.944 5.07626 342.778 5.39626C342.385 5.17626 346.016 5.41626 347.014 5.30626L345.427 5.04626C349.655 5.21626 349.598 3.46626 353.792 3.52626C353.285 3.75626 352.541 4.95626 354.667 5.09626C355.641 4.51626 358.993 2.32626 362.706 1.88626L363.417 2.21626L366.263 1.83626C364.488 2.70626 359.516 4.52626 356.802 5.23626C358.38 5.49626 357.243 5.62626 359.606 5.59626C360.44 5.90626 358.314 6.06626 357.619 6.08626L363.131 6.28626C362.885 5.61626 367.35 5.61626 367.138 5.05626L361.152 5.75626C360.907 5.08626 364.611 3.84626 368.52 3.96626C369.517 4.23626 367.775 5.16626 367.857 5.38626C368.364 5.15626 371.561 4.94626 371.921 5.10626L370.261 5.46626C372.436 5.71626 373.81 4.57626 376.427 5.21626C377.326 5.25626 379.117 6.08626 379.272 5.68626C377.801 4.91626 377.514 2.54626 378.496 1.96626C378.815 2.01626 383.23 2.69626 384.261 3.07626C385.749 3.67626 382.028 4.50626 383.296 5.02626C383.353 4.84626 384.171 4.61626 384.514 4.54626C385.463 4.70626 384.122 5.11626 386.182 5.03626C386.526 4.35626 390.369 5.09626 387.155 4.45626C389.167 4.26626 389.298 4.59626 391.661 4.56626C390.909 4.12626 393.787 3.06626 395.798 2.87626C395.676 3.04626 396.134 3.27626 396.355 3.37626C400.484 3.43626 402.7 3.74626 406.543 3.75626C406.895 3.91626 408.751 4.11626 407.966 4.41626C408.522 4.29626 409.029 4.06626 410.215 4.04626C412.513 4.63626 407.565 4.13626 409.315 4.84626C409.462 4.44626 412.382 4.29626 414.074 4.05626C413.551 3.44626 410.166 3.93626 408.473 4.18626C408.473 3.34626 411.417 2.45626 415.432 2.06626C418.629 1.85626 416.822 2.61626 417.37 2.49626C423.372 2.64626 422.489 1.02626 427.469 1.63626C429.447 2.17626 427.559 2.70626 428 3.09626C425.392 3.29626 424.001 2.75626 422.235 2.77626L424.41 3.02626C423.584 3.20626 421.843 3.33626 420.894 3.18626C422.554 3.66626 431.042 3.27626 435.67 3.72626C436.496 3.54626 437.911 3.35626 437.24 3.14626L435.777 3.22626C434.427 2.79626 438.532 2.62626 436.676 2.42626C438.639 2.12626 440.846 1.64626 443.618 1.88626L444.142 2.49626C444.085 2.31626 442.335 2.12626 441.558 2.31626C442.711 2.04626 445.802 3.14626 447.069 2.34626L445.131 1.92626C447.102 1.61626 449.547 0.966263 452 1.15626C450.88 0.546263 451.436 1.22626 449.694 0.516263C451.207 1.39626 443.414 0.476263 445.843 1.40626C444.052 0.586263 442.743 1.05626 440.405 0.356263C440.478 0.556263 441.231 0.746263 439.17 0.646263C439.08 0.706263 438.859 0.776263 438.72 0.826263C438.655 0.826263 438.639 0.826263 438.581 0.806263C438.622 0.806263 438.655 0.826263 438.696 0.826263C438.606 0.856263 438.598 0.866263 438.737 0.826263C439.227 0.916263 439.628 1.01626 439.783 1.13626C438.761 1.59626 435.482 1.58626 434.378 1.82626C433.16 1.72626 434.893 1.59626 434.223 1.37626L432.571 1.73626C432.408 1.28626 429.325 0.986263 432.203 0.726263L429.611 0.706263C428.082 0.456263 425.988 0.356263 424.697 0.546263C423.478 0.446263 421.606 1.04626 422.677 0.696263L418.613 0.976263L418.572 0.866263C414.565 0.806263 410.321 1.60626 405.734 0.796263C404.384 0.906263 402.986 1.04626 400.729 0.916263L400.288 0.526263C398.554 0.666263 395.079 0.136263 394.335 0.546263C392.462 -0.503737 385.92 0.316263 382.879 0.136263L382.764 0.646263C380.663 0.616263 378.651 0.766263 376.051 0.966263L376.214 1.41626C373.966 1.78626 370.441 1.09626 366.892 1.14626C367.138 0.976263 368.037 1.01626 368.675 1.12626C364.431 0.116263 359.721 1.86626 355.869 1.12626C354.913 1.28626 354.218 1.23626 353.547 1.12626C353.637 1.12626 353.719 1.12626 353.784 1.10626C353.686 1.10626 353.539 1.10626 353.392 1.10626C352.967 1.02626 352.533 0.936263 352.059 0.866263C352.46 0.976263 352.844 1.06626 353.179 1.10626C352.443 1.10626 351.315 1.17626 350.219 1.28626L349.753 0.806263C349.663 0.806263 349.589 0.806263 349.499 0.816263C348.42 0.636263 348.633 1.04626 349.205 1.40626C348.649 1.48626 348.142 1.57626 347.75 1.69626C346.875 0.916263 344.863 1.95626 343.669 1.12626C342.925 1.52626 338.141 1.42626 337.553 2.27626C337.512 2.16626 337.193 2.11626 337.782 2.10626C336.555 2.00626 335.328 1.91626 334.233 2.15626L333.709 1.54626L331.035 2.36626C329.408 1.99626 328.738 1.77626 330.349 1.30626C326.448 2.02626 327.184 1.57626 323.872 2.29626L324.036 1.89626C322.85 1.91626 320.953 2.44626 320.242 2.11626C317.592 1.36626 307.125 2.01626 300.322 1.31626C301.639 2.48626 297.158 0.796263 296.888 1.69626C296.495 1.41626 295.547 1.26626 296.642 1.02626C293.167 1.29626 291.425 0.586263 289.029 1.34626C288.629 1.06626 289.774 0.946263 289.422 0.776263C289.144 0.836263 288.318 1.01626 287.958 0.856263C287.607 0.696263 288.465 0.626263 289.013 0.506263C285.464 0.556263 285.104 1.40626 284.851 2.19626C283.052 1.81626 282.152 1.87626 280.86 2.39626C280.231 2.13626 279.192 1.86626 281.392 1.76626C280.149 1.72626 273.82 1.38626 273.689 2.02626C273.297 1.86626 271.956 1.97626 271.628 2.05626C268.848 2.01626 268.603 1.95626 265.872 2.01626L266.632 2.11626C265.553 2.88626 264.359 2.28626 262.159 2.37626L262.225 2.29626C257.171 1.73626 260.041 2.56626 255.062 1.92626L255.331 2.40626C254.865 3.43626 250.916 1.79626 248.021 2.19626L249.068 2.46626C247.49 2.81626 244.652 1.06626 243.066 0.936263C242.722 0.846263 243.614 0.796263 244.096 0.726263C239.942 0.116263 243.556 1.35626 240.465 1.49626C239.893 1.15626 241.201 0.636263 239.116 0.576263C238.078 0.306263 233.073 1.67626 230.236 1.02626C230.865 1.28626 231.487 1.54626 230.048 1.74626C227.848 1.83626 224.095 0.756263 222.1 1.58626C221.821 1.51626 221.715 1.44626 221.699 1.38626C220.014 1.59626 216.228 1.73626 215.214 2.18626C213.661 0.526263 204.748 2.99626 204.78 1.46626L199.596 1.54626L199.735 1.38626C196.423 1.28626 195.254 1.65626 194.085 2.01626C193.316 1.91626 193.88 1.76626 193.937 1.68626C189.097 1.37626 188.614 1.44626 184.558 2.20626L184.133 1.70626C183.037 1.99626 177.142 0.926263 172.391 1.50626C172.44 1.44626 172.538 1.35626 172.914 1.28626C167.574 1.86626 160.133 -0.0937368 158.179 1.71626L154.654 2.15626C159.209 2.29626 153.976 2.93626 155.848 3.23626C154.057 3.34626 151.212 2.69626 153.42 2.59626L153.763 2.68626C154.573 1.74626 148.096 2.35626 148.219 1.71626C139.249 1.76626 130.507 1.24626 122.101 1.20626L123.066 1.93626L120.139 1.89626C119.37 1.72626 119.108 1.32626 121.194 1.35626C120.098 0.946263 117.686 1.70626 117.628 1.86626C113.532 1.56626 119.231 1.01626 117.972 0.996263L116.271 1.04626L116.655 1.13626C115.273 1.43626 115.151 1.75626 112.64 1.71626C111.054 1.56626 111.822 1.26626 111.201 1.23626C111.201 1.18626 110.997 1.15626 110.244 1.21626L106.548 1.15626L108.028 1.73626C106.393 2.01626 104.553 1.70626 106.262 2.35626C103.76 1.34626 92.4917 1.99626 90.9544 1.67626C88.6648 2.09626 86.3997 2.08626 83.595 2.03626C84.29 2.15626 84.7071 2.80626 82.2948 2.72626C83.1779 1.38626 77.871 2.14626 75.9166 1.17626C77.6665 1.81626 69.0478 1.33626 71.7872 2.24626C69.7674 2.13626 71.6645 1.74626 70.1354 1.42626C65.3354 1.94626 59.5542 1.08626 53.6176 1.26626C53.5276 1.44626 54.517 1.70626 53.2496 1.97626L50.1177 1.09626C48.9484 1.18626 49.0384 2.11626 46.8959 1.49626C47.1985 1.64626 47.6482 1.86626 46.8632 1.92626C35.2353 1.06626 23.1086 2.62626 11.3008 1.01626C12.9035 1.35626 11.8323 1.38626 10.6139 1.40626C11.4071 1.48626 10.5976 1.83626 10.7529 2.07626L5.81395 1.41626C4.91447 2.07626 0.51516 1.45626 0 2.09626L1.56184 1.98626C-0.523337 2.73626 4.4729 3.64626 4.17034 4.60626C6.50083 3.75626 10.3196 5.86626 14.1383 4.64626C14.9805 4.84626 13.4187 4.95626 13.8684 5.17626C14.8415 4.76626 16.0109 4.67626 18.1778 4.86626L17.9325 4.96626C24.0245 4.86626 26.6411 5.26626 33.4854 5.53626L32.9784 5.06626C34.4503 5.12626 34.7611 5.27626 35.4479 5.39626C37.1324 4.67626 31.3185 5.35626 32.8558 4.56626C34.8101 5.52626 43.2326 4.57626 44.5491 5.67626C46.8142 5.67626 43.8867 5.12626 46.1518 5.13626L46.7488 5.43626L47.3212 5.05626C48.8012 5.11626 49.5535 5.48626 49.6108 5.73626C49.251 5.70626 48.5886 5.80626 48.2043 5.82626C50.1259 6.17626 53.6339 5.70626 54.2881 5.82626L52.113 5.64626C58.2867 5.36626 65.8342 5.75626 71.8035 5.15626L71.3538 4.93626C75.9085 4.52626 75.0008 5.18626 80.0052 4.98626L79.8253 5.03626C80.8229 4.81626 82.164 4.70626 83.5296 4.72626C82.2621 4.98626 85.9091 5.23626 84.2492 5.52626C89.1881 5.08626 86.6941 5.17626 89.9568 4.34626L90.7091 4.71626C91.8212 4.37626 91.9111 4.20626 94.4133 4.10626C92.3609 4.42626 96.0079 4.67626 93.7101 5.09626C98.9517 5.90626 101.495 4.27626 103.899 5.46626C106.303 4.43626 99.3605 4.89626 100.71 4.67626C99.5813 4.33626 102.697 3.90626 104.34 4.01626C106.017 4.03626 107.186 5.32626 111.405 5.30626C110.988 5.30626 110.956 5.37626 110.539 5.37626C112.117 5.63626 113.63 5.02626 115.559 5.44626C116.647 4.82626 118.07 5.48626 118.381 4.68626L114.513 4.86626C116.704 4.65626 118.757 3.73626 122.371 4.18626C122.093 4.34626 121.014 4.55626 120.278 4.67626C121.333 4.90626 122.314 4.52626 123.401 4.75626C123.091 5.54626 118.708 4.92626 116.353 5.53626C117.489 5.86626 120.793 4.96626 119.615 5.81626C121.308 4.72626 123.769 5.95626 126.623 5.11626L126.435 5.58626C126.885 5.51626 127.825 5.28626 128.651 5.29626L127.146 5.91626C129.461 5.39626 131.603 6.37626 133.819 6.08626C129.183 6.09626 132.781 5.51626 130.818 5.16626C136.542 4.52626 134.105 6.40626 140.516 6.17626C139.649 6.24626 137.262 5.88626 138.619 5.67626C139.837 5.77626 141.448 5.95626 142.201 6.20626C146.445 6.10626 141.546 5.71626 143.354 5.42626C144.801 6.00626 145.439 5.18626 147.295 5.00626L147.311 5.48626C152.152 5.79626 148.595 4.47626 152.945 4.85626L151.106 5.52626L153.379 5.35626L152.913 5.90626C155.382 5.49626 156.151 5.60626 158.571 5.75626C158.007 5.41626 158.89 4.87626 161.033 4.86626C162.496 5.15626 160.215 5.32626 163.249 5.25626C162.562 5.55626 161.809 5.93626 160.493 5.49626C160.354 5.65626 159.814 5.79626 159.675 5.95626C161.245 6.28626 163.633 6.03626 164.729 6.02626C164.303 6.00626 163.796 5.98626 163.543 5.91626L167.942 5.24626C168.637 5.42626 168.089 5.57626 167.542 5.71626C168.433 5.66626 169.054 5.44626 170.363 5.39626C170.019 5.78626 170.101 6.19626 168.245 6.37626L172.44 5.93626C172.718 6.10626 174.59 6.40626 174.051 6.54626C176.373 6.77626 179.758 5.78626 182.841 6.08626C183.005 6.00626 183.323 5.93626 183.978 5.87626C186.872 5.96626 189.44 6.44626 192.874 5.90626L194.821 6.60626C197.511 6.44626 192.179 5.71626 196.66 5.45626C199.833 5.23626 197.846 6.05626 198.958 6.25626C200.536 5.90626 203.276 5.17626 206.187 5.75626C205.222 5.88626 204.47 5.78626 203.562 5.83626L203.57 5.80626ZM236.745 5.49626C236.099 5.59626 234.823 5.90626 234.349 5.62626C235.085 5.07626 235.649 5.33626 236.745 5.49626ZM287.173 4.33626C286.699 4.49626 285.955 4.41626 285.121 4.23626C285.726 4.19626 286.413 4.21626 287.173 4.33626ZM427.648 0.976263C427.648 0.976263 427.599 0.986263 427.583 0.996263C426.152 0.806263 426.659 0.886263 427.648 0.976263ZM430.625 1.18626C430.927 1.11626 430.903 1.05626 430.78 0.986263C430.576 1.10626 429.905 1.11626 429.145 1.08626C429.357 1.21626 429.742 1.29626 430.633 1.19626L430.625 1.18626ZM110.89 1.37626L111.471 1.50626C110.163 1.64626 110.531 1.51626 110.89 1.37626Z" fill="#212121"/>
</svg>
