<svg width="143" height="150" viewBox="0 0 143 150" fill="none" xmlns="http://www.w3.org/2000/svg">
<path d="M36.5772 41.2862C37.7483 40.8516 38.8196 40.936 39.7525 41.3793C40.7949 41.8741 41.8214 42.4392 42.7111 43.1335C45.1161 45.0061 47.1487 47.2349 49.1093 49.5193C50.0123 50.571 49.79 51.8936 48.7787 53.0965C47.8276 54.2277 47.0098 55.4542 46.1299 56.637C46.0244 56.7793 45.8944 56.9058 45.7758 57.0394C45.8346 57.0658 45.8931 57.0912 45.9519 57.1176C46.9091 56.5536 47.8374 55.9269 48.8302 55.4417C50.0274 54.8572 51.2586 54.3125 52.5147 53.9136C53.1617 53.7077 53.9004 53.815 54.5835 53.8562C55.469 53.9093 56.3368 54.0613 57.22 54.1304C59.6804 54.323 60.6205 56.2039 59.3257 58.4121C59.1089 58.7815 58.8149 59.1272 58.5084 59.4431C58.2171 59.7436 57.8625 59.9892 57.5332 60.2607C58.7966 60.4402 60.2044 59.8502 60.9695 58.8576C61.0744 58.7214 61.3334 58.6245 61.5186 58.6084C64.5131 58.3555 66.7797 59.4361 68.5106 61.4801C68.5893 61.5729 68.6637 61.6908 68.6796 61.8099C68.877 63.2689 69.8863 64.071 71.1189 64.7081C71.7715 65.0452 72.4346 65.3758 73.0334 65.7845C74.5961 66.8496 75.1182 68.376 74.6194 70.2966C74.3842 71.2024 74.1004 72.1008 73.8371 73.0028C73.3955 74.5133 73.2503 76.0189 73.4733 77.4967C73.7009 79.011 73.4152 80.4113 72.0436 81.7633C72.9754 81.5142 73.7495 81.2945 74.5278 81.1023C76.5947 80.5923 78.6653 80.2749 80.751 80.241C83.4312 80.1978 85.5985 81.0717 87.3296 82.8133C89.1249 84.6199 90.3942 86.7594 91.4152 89.0694C91.5387 89.3477 91.7507 89.6266 92.011 89.7874C93.8446 90.9159 95.7186 91.9934 97.5472 93.1298C98.4899 93.7157 99.435 94.3203 100.26 95.0383C101.983 96.5402 102.139 98.5028 100.616 100.527C99.0558 102.601 97.3344 104.554 95.3148 106.295C92.8144 108.449 90.4436 110.745 88.0272 112.989C86.9599 113.98 85.9234 115.003 84.8623 116.001C83.3448 117.429 82.4679 119.079 82.3418 121.012C82.3293 121.195 82.2364 121.431 82.0984 121.564C80.8168 122.796 79.3956 123.828 77.7243 124.486C76.228 125.075 74.8486 124.984 73.5711 124.316C72.6228 123.82 71.8757 123.116 71.3948 122.196C70.8524 121.159 70.0627 120.348 69.1332 119.638C68.6881 119.298 68.2592 118.938 67.852 118.558C67.4946 118.224 67.4182 117.819 67.6659 117.299C67.8281 116.958 67.9035 116.563 67.9224 116.199C67.9712 115.226 67.819 115.17 66.8776 114.962C65.9775 114.764 65.0638 114.517 64.2785 114.106C61.324 112.557 58.9905 110.403 57.5381 107.461C57.2778 106.932 57.1154 106.354 56.8996 105.802C56.3762 104.457 55.5242 103.492 53.8686 103.322C52.8569 103.217 52.289 102.514 51.8288 101.743C51.7018 101.53 51.5994 101.302 51.4186 100.953C50.9711 101.313 50.5391 101.603 50.1865 101.96C49.6045 102.552 49.1916 102.663 48.5611 102.213C47.4954 101.452 46.8064 100.39 46.1371 99.3031C45.5502 98.3502 44.894 97.4344 44.1872 96.5656C43.5485 95.7811 43.1982 94.9264 43.2744 93.8681C43.2877 93.6802 43.1971 93.4573 43.0711 93.323C42.5703 92.7878 42.0354 92.2838 41.5168 91.7639C40.8963 91.143 40.2746 90.5226 39.664 89.8932C39.5324 89.7576 39.3906 89.6028 39.3408 89.4252C39.0242 88.2837 38.1704 87.7715 36.9568 87.7697C36.2503 87.7692 35.6327 87.6041 35.1782 87.198C34.2848 86.3982 33.4708 85.519 32.6251 84.671C32.5765 84.6219 32.5337 84.567 32.4603 84.4824C32.2125 84.7108 31.9817 84.9254 31.7046 85.1807C31.0656 84.687 30.4047 84.2381 29.8215 83.7127C28.5781 82.5928 27.0572 82.1132 25.2529 82.1773C25.0303 82.1851 24.744 82.0232 24.6295 81.8471C24.0404 80.9404 24.0428 79.8571 24.088 78.7752C24.0941 78.6228 24.2747 78.4492 24.3953 78.2986C24.8742 77.6974 25.3626 77.1017 25.8462 76.5032C25.8082 76.4627 25.7713 76.4217 25.7329 76.3801C24.694 76.6303 23.658 76.9003 22.6172 77.1222C22.1147 77.2295 21.5875 77.3164 21.0995 77.2772C20.7236 77.2477 20.3426 77.0668 20.0501 76.8527C19.0017 76.0825 17.9681 75.311 17.2469 74.2027C16.0615 72.3795 15.963 70.5089 17.329 68.4511C17.6236 68.0086 17.8504 67.5212 18.047 67.039C18.7056 65.4206 19.3474 63.7984 19.9683 62.1708C20.0925 61.8454 20.0959 61.4918 20.1535 61.1513C19.7795 61.2257 19.3741 61.2266 19.0384 61.3879C18.2359 61.7736 17.436 62.1896 16.6889 62.675C15.173 63.6606 13.5369 64.1165 11.8259 64.3583C11.5767 64.3931 11.3021 64.531 11.0932 64.6892C10.6235 65.0449 9.19587 65.1708 8.61751 64.8678C8.1808 64.6395 8.05658 64.0371 8.23371 63.2813C8.28368 63.0694 8.25726 62.8057 8.15571 62.6301C7.81657 62.043 7.4815 61.4414 7.04083 60.9286C6.72726 60.5649 6.24782 60.3351 5.8401 60.0486C5.69544 59.9461 5.54193 59.8554 5.39996 59.7495C4.99519 59.4491 4.63102 59.087 4.1833 58.8526C3.47067 58.478 3.22356 58.0155 3.46468 57.1992C3.69895 56.4042 4.21502 55.773 4.92771 55.292C5.6007 54.8374 6.3013 54.4228 6.9922 53.9947C8.10317 53.3064 8.99603 52.4346 9.68314 51.3477C10.897 49.4265 12.7348 48.1096 14.6307 46.8625C14.6988 46.8177 14.7668 46.773 14.8388 46.736C16.1812 46.0398 17.2538 45.1924 17.9919 43.7944C18.8312 42.2036 20.4154 41.3557 22.2417 41.1712C22.619 41.1327 22.7824 41.0068 22.9549 40.6877C24.1364 38.5155 26.0011 37.2064 28.4291 36.697C29.4948 36.4732 30.4466 36.6695 31.1921 37.3647C31.2858 37.4527 31.4862 37.5118 31.6191 37.4772C34.5038 36.7253 36.6481 38.2583 36.5557 41.0181C36.5535 41.0911 36.5673 41.1623 36.5772 41.2862Z" fill="black"/>
<path d="M60.5343 35.7215C59.7494 35.214 58.9703 34.7084 58.1865 34.196C64.7042 38.7082 71.3267 43.4419 77.6107 48.3801C83.889 53.3164 89.8412 58.4299 94.9623 63.6211C95.5425 64.3186 96.7028 65.7135 97.283 66.411C99.8152 69.008 102.731 71.8583 105.631 74.7196C108.525 77.5838 111.41 80.4607 113.936 83.0297C115.201 84.3175 116.58 85.2712 117.639 85.9135C118.704 86.5527 119.45 86.8756 119.45 86.8756C120.264 87.4185 121.307 87.8313 120.953 87.0133C120.428 86.2918 119.417 85.0856 118.591 84.0223C117.751 82.965 117.103 82.0474 117.328 81.9056C117.438 81.8314 118.047 82.512 118.656 83.1926C119.106 82.9041 121.826 84.403 122.424 85.106C122.839 85.3852 124.114 86.4673 125.37 87.575C126.627 88.6826 127.854 89.812 128.265 90.1368C128.766 90.6367 128.947 90.5488 128.91 90.083C128.864 89.6038 128.57 88.7424 128.14 87.7384C127.283 85.7206 125.814 83.0892 124.732 81.5681C123.715 80.0102 125.297 81.2169 125.635 81.0124C124.273 79.6571 123.973 78.7415 122.581 77.4079C122.631 77.3772 121.739 76.277 120.555 74.9579C119.381 73.6262 117.915 72.0707 116.92 71.0418C116.92 71.0418 116.145 70.4382 114.135 68.4106C113.456 67.7387 113.35 67.8197 113.246 67.8958C113.35 67.8197 113.35 67.8197 113.456 67.7387C112.56 67.227 111.418 65.7232 110.618 65.1481C110.723 65.0671 110.723 65.0671 110.822 64.9891C109.235 63.828 108.058 62.344 106.546 61.1285C106.646 61.0457 106.646 61.0457 106.745 60.9629C106.043 60.3097 105.341 59.6566 105.441 59.5738C105.541 59.491 105.541 59.491 105.64 59.4081C105.024 58.6782 103.398 57.5564 103.591 57.3888C103.492 57.4717 103.492 57.4717 103.397 57.5612C100.53 54.9874 98.434 53.0105 96.3083 51.0554C94.9384 49.7079 93.3816 48.3632 91.7667 46.9737C90.1358 45.5999 88.3952 44.217 86.6143 42.8473C84.8037 41.4994 82.9881 40.1185 81.1145 38.8286C80.1817 38.1798 79.249 37.5309 78.3277 36.8857C77.3985 36.2484 76.4627 35.6403 75.5464 35.0281C74.7494 34.4645 73.7952 34.1009 74.429 34.8626C73.6321 34.2991 72.842 33.7325 72.0268 33.1944C70.4125 32.1025 70.9837 32.9484 69.3751 31.8584C62.7184 27.7659 56.0859 23.6761 49.2884 19.8202C42.4953 15.9449 35.5386 12.3249 28.3596 9.24414C31.8464 11.0307 34.3999 12.4709 37.9271 14.1348C37.8705 14.2471 37.7573 14.4717 38.6257 14.9121C39.9257 15.5848 41.2573 16.3095 42.5864 17.0177C43.9144 17.7307 45.2386 18.4061 46.4534 19.0984C48.8818 20.488 50.9831 21.7049 52.0989 22.6682C52.8685 23.2699 53.4971 24.0821 55.999 25.5579L53.4971 24.0821C53.4289 24.1906 53.2936 24.4029 53.2936 24.4029C54.1075 24.9197 54.9758 25.4696 55.8662 26.0318C56.7544 26.6038 57.6533 27.2105 58.5556 27.8026C59.4567 28.3996 60.3636 28.9984 61.238 29.5764C62.1011 30.1768 62.9375 30.7582 63.732 31.3053C63.732 31.3053 63.5794 31.512 63.5065 31.6139L65.1134 32.6564C65.6526 33.5338 63.7297 32.5151 61.1695 30.9684C59.8848 30.2014 58.4202 29.3245 57.0217 28.4845C55.6324 27.6317 54.2818 26.854 53.2332 26.2776C53.165 26.3861 53.0297 26.5984 52.9626 26.7021L54.6046 27.6725L54.4636 27.8829C51.9978 26.4395 49.7634 25.0704 47.4609 23.8099C46.3148 23.1708 45.1755 22.5287 44.0015 21.8755C42.8162 21.2448 41.6089 20.6017 40.3401 19.9285C41.1821 20.3761 42.8661 21.2712 43.7139 21.7206C43.6503 21.8359 43.5971 21.9336 44.4231 22.3969C42.7471 21.4939 40.8622 20.4718 38.9763 19.4544C37.0779 18.4645 35.1364 17.5546 33.3812 16.8088C32.477 16.4978 33.1652 17.2665 35.65 18.6534C38.2029 19.9055 39.8618 20.8291 42.3784 22.1583L42.2536 22.3792C41.4174 21.9335 40.3883 21.3528 39.3502 20.785C38.8305 20.5034 38.312 20.2171 37.8111 19.9624C37.308 19.7175 36.82 19.4879 36.3832 19.306C35.4791 18.9951 37.9016 20.4924 37.0032 20.1833C36.1557 19.76 35.3139 19.3386 34.4098 19.0277C35.6725 19.6728 37.1825 20.3504 38.6392 21.1256C40.105 21.8881 41.5617 22.6633 42.7836 23.3788C43.5516 23.9331 44.3072 24.5147 44.1835 24.7307C48.3674 26.8923 51.3973 29.1584 53.4585 31.1242C54.1324 31.8465 58.2001 34.1638 60.5343 35.7215Z" fill="#E3051B"/>
</svg>
