<svg width="322" height="8" viewBox="0 0 322 8" fill="none" xmlns="http://www.w3.org/2000/svg">
<path opacity="0.2" d="M145.021 5.80626L146.6 6.19626C144.689 6.83626 143.309 6.61626 144.794 7.16626C145.015 5.80626 150.94 7.02626 151.161 5.66626L152.204 5.95626C151.907 5.94626 151.86 6.02626 151.563 6.00626C153.59 6.65626 153.072 5.02626 155.681 5.21626C156.59 5.31626 157.225 5.51626 156.608 5.67626L158.635 5.33626C159.223 5.36626 159.083 5.59626 158.495 5.57626L161.588 5.46626L161.565 5.50626C162.008 5.29626 163.004 4.96626 163.493 4.82626C164.28 5.01626 163.097 4.96626 163.301 5.13626L165.014 4.80626C165.713 5.15626 164.291 5.49626 163.109 5.44626C164.711 6.80626 164.53 5.10626 167.985 5.89626L166.365 6.06626C167.408 6.83626 168.672 6.55626 170.501 7.03626C170.07 6.78626 166.837 5.82626 168.701 5.48626C169.225 5.58626 169.913 5.63626 170.921 5.36626C170.932 5.84626 171.911 5.72626 173.134 5.70626L173.053 6.34626C174.375 6.16626 174.27 5.83626 175.051 5.54626C176.524 5.60626 176.833 6.10626 177.183 6.52626C179.548 6.62626 175.552 5.73626 178.348 5.60626C180.317 5.84626 181.697 5.58626 184.051 5.20626C185.426 5.42626 183.812 5.59626 184.301 5.77626L185.519 5.26626C185.816 5.27626 185.723 5.43626 185.67 5.51626C186.695 5.31626 185.758 4.87626 187.371 4.70626C187.808 4.00626 190.692 5.73626 192.69 4.93626C193.185 5.11626 192.451 5.32626 192.602 5.57626C195.346 5.05626 194.956 5.19626 197.21 4.48626L199.132 4.90626C197.723 4.42626 199.523 3.85626 201.101 3.38626C200.6 3.15626 200.175 2.95626 199.884 2.85626L202.4 2.51626C202.703 2.62626 202.453 2.83626 202.039 3.10626C202.208 3.05626 202.371 2.99626 202.5 2.95626C203.402 3.19626 202.931 3.56626 202.29 3.91626C201.981 3.78626 201.678 3.65626 201.381 3.52626C200.758 3.91626 200.175 4.34626 200.303 4.71626C200.466 4.64626 200.781 4.57626 201.131 4.54626C200.967 4.65626 200.863 4.74626 200.938 4.80626C201.026 4.87626 201.288 4.73626 201.701 4.56626L202.272 5.27626L202.412 4.99626L205.709 5.44626C208.069 4.72626 210.119 3.67626 213.859 3.37626C212.933 3.89626 213.661 4.22626 213.608 4.84626C212.589 4.18626 210.707 5.12626 208.768 4.99626C209.781 5.06626 209.56 5.35626 209.298 5.46626L212.758 4.86626C212.682 5.37626 213.492 5.24626 214.395 5.45626C213.713 4.45626 216.975 4.78626 218.379 4.48626C218.467 4.82626 218.129 5.16626 216.41 5.08626C218.304 5.83626 218.857 3.90626 220.721 4.54626C220.302 4.54626 220.074 4.50626 219.911 4.67626C220.89 4.37626 223.284 4.61626 222.725 4.90626H222.306C225.09 5.03626 230.781 4.91626 231.195 4.06626C231.224 4.17626 230.828 5.09626 230.659 5.26626L235.628 2.40626C235.191 3.13626 236.869 4.87626 234.562 5.28626C235.226 5.38626 236.048 5.51626 237.44 5.25626C236.985 5.15626 236.315 4.19626 236.933 4.13626C238.628 4.94626 238.11 4.57626 240.201 5.26626C239.525 5.10626 240.277 3.96626 241.349 3.99626C241.18 4.16626 241.436 5.12626 241.046 5.24626L243.714 4.12626C243.05 4.32626 243.597 5.07626 244.191 5.39626C243.912 5.17626 246.498 5.41626 247.209 5.30626L246.079 5.04626C249.09 5.21626 249.05 3.46626 252.038 3.52626C251.677 3.75626 251.147 4.95626 252.661 5.09626C253.355 4.51626 255.743 2.32626 258.388 1.88626L258.894 2.21626L260.922 1.83626C259.658 2.70626 256.116 4.52626 254.182 5.23626C255.306 5.49626 254.496 5.62626 256.18 5.59626C256.774 5.90626 255.259 6.06626 254.764 6.08626L258.69 6.28626C258.516 5.61626 261.696 5.61626 261.545 5.05626L257.281 5.75626C257.106 5.08626 259.745 3.84626 262.529 3.96626C263.24 4.23626 261.999 5.16626 262.058 5.38626C262.419 5.15626 264.696 4.94626 264.953 5.10626L263.77 5.46626C265.32 5.71626 266.298 4.57626 268.162 5.21626C268.803 5.25626 270.079 6.08626 270.19 5.68626C269.141 4.91626 268.937 2.54626 269.636 1.96626C269.863 2.01626 273.009 2.69626 273.743 3.07626C274.803 3.67626 272.153 4.50626 273.056 5.02626C273.096 4.84626 273.679 4.61626 273.924 4.54626C274.599 4.70626 273.644 5.11626 275.112 5.03626C275.357 4.35626 278.095 5.09626 275.805 4.45626C277.238 4.26626 277.331 4.59626 279.015 4.56626C278.479 4.12626 280.53 3.06626 281.963 2.87626C281.875 3.04626 282.201 3.27626 282.359 3.37626C285.301 3.43626 286.879 3.74626 289.617 3.75626C289.868 3.91626 291.19 4.11626 290.631 4.41626C291.027 4.29626 291.388 4.06626 292.233 4.04626C293.87 4.63626 290.345 4.13626 291.592 4.84626C291.697 4.44626 293.776 4.29626 294.982 4.05626C294.609 3.44626 292.198 3.93626 290.992 4.18626C290.992 3.34626 293.089 2.45626 295.949 2.06626C298.227 1.85626 296.94 2.61626 297.33 2.49626C301.606 2.64626 300.976 1.02626 304.524 1.63626C305.934 2.17626 304.588 2.70626 304.903 3.09626C303.044 3.29626 302.054 2.75626 300.796 2.77626L302.345 3.02626C301.757 3.20626 300.516 3.33626 299.841 3.18626C301.023 3.66626 307.07 3.27626 310.367 3.72626C310.955 3.54626 311.963 3.35626 311.485 3.14626L310.443 3.22626C309.481 2.79626 312.406 2.62626 311.083 2.42626C312.481 2.12626 314.054 1.64626 316.029 1.88626L316.402 2.49626C316.361 2.31626 315.114 2.12626 314.561 2.31626C315.382 2.04626 317.584 3.14626 318.487 2.34626L317.107 1.92626C318.511 1.61626 320.252 0.966263 322 1.15626C321.202 0.546263 321.598 1.22626 320.357 0.516263C321.435 1.39626 315.883 0.476263 317.614 1.40626C316.338 0.586263 315.406 1.05626 313.74 0.356263C313.792 0.556263 314.328 0.746263 312.86 0.646263C312.796 0.706263 312.639 0.776263 312.54 0.826263C312.493 0.826263 312.481 0.826263 312.441 0.806263C312.47 0.806263 312.493 0.826263 312.522 0.826263C312.458 0.856263 312.452 0.866263 312.551 0.826263C312.901 0.916263 313.186 1.01626 313.297 1.13626C312.569 1.59626 310.233 1.58626 309.446 1.82626C308.578 1.72626 309.813 1.59626 309.336 1.37626L308.159 1.73626C308.043 1.28626 305.846 0.986263 307.897 0.726263L306.05 0.706263C304.961 0.456263 303.47 0.356263 302.549 0.546263C301.681 0.446263 300.347 1.04626 301.11 0.696263L298.215 0.976263L298.186 0.866263C295.332 0.806263 292.308 1.60626 289.04 0.796263C288.079 0.906263 287.083 1.04626 285.475 0.916263L285.161 0.526263C283.926 0.666263 281.45 0.136263 280.92 0.546263C279.586 -0.503737 274.926 0.316263 272.759 0.136263L272.677 0.646263C271.18 0.616263 269.747 0.766263 267.894 0.966263L268.011 1.41626C266.409 1.78626 263.898 1.09626 261.37 1.14626C261.545 0.976263 262.186 1.01626 262.64 1.12626C259.617 0.116263 256.261 1.86626 253.518 1.12626C252.836 1.28626 252.341 1.23626 251.863 1.12626C251.927 1.12626 251.986 1.12626 252.032 1.10626C251.962 1.10626 251.857 1.10626 251.753 1.10626C251.45 1.02626 251.141 0.936263 250.803 0.866263C251.088 0.976263 251.362 1.06626 251.601 1.10626C251.077 1.10626 250.273 1.17626 249.492 1.28626L249.16 0.806263C249.096 0.806263 249.044 0.806263 248.98 0.816263C248.211 0.636263 248.362 1.04626 248.77 1.40626C248.374 1.48626 248.013 1.57626 247.733 1.69626C247.11 0.916263 245.677 1.95626 244.826 1.12626C244.296 1.52626 240.888 1.42626 240.469 2.27626C240.44 2.16626 240.213 2.11626 240.632 2.10626C239.758 2.00626 238.884 1.91626 238.104 2.15626L237.731 1.54626L235.826 2.36626C234.667 1.99626 234.189 1.77626 235.337 1.30626C232.558 2.02626 233.082 1.57626 230.723 2.29626L230.84 1.89626C229.995 1.91626 228.644 2.44626 228.137 2.11626C226.249 1.36626 218.793 2.01626 213.946 1.31626C214.884 2.48626 211.692 0.796263 211.5 1.69626C211.22 1.41626 210.544 1.26626 211.325 1.02626C208.849 1.29626 207.608 0.586263 205.902 1.34626C205.616 1.06626 206.432 0.946263 206.181 0.776263C205.983 0.836263 205.395 1.01626 205.138 0.856263C204.888 0.696263 205.5 0.626263 205.89 0.506263C203.362 0.556263 203.105 1.40626 202.925 2.19626C201.643 1.81626 201.002 1.87626 200.082 2.39626C199.633 2.13626 198.894 1.86626 200.461 1.76626C199.575 1.72626 195.066 1.38626 194.973 2.02626C194.694 1.86626 193.738 1.97626 193.505 2.05626C191.525 2.01626 191.35 1.95626 189.404 2.01626L189.946 2.11626C189.177 2.88626 188.327 2.28626 186.76 2.37626L186.806 2.29626C183.206 1.73626 185.251 2.56626 181.703 1.92626L181.895 2.40626C181.563 3.43626 178.75 1.79626 176.688 2.19626L177.433 2.46626C176.309 2.81626 174.288 1.06626 173.157 0.936263C172.913 0.846263 173.548 0.796263 173.891 0.726263C170.932 0.116263 173.507 1.35626 171.305 1.49626C170.897 1.15626 171.829 0.636263 170.344 0.576263C169.604 0.306263 166.039 1.67626 164.018 1.02626C164.466 1.28626 164.909 1.54626 163.884 1.74626C162.317 1.83626 159.643 0.756263 158.221 1.58626C158.023 1.51626 157.948 1.44626 157.936 1.38626C156.736 1.59626 154.039 1.73626 153.316 2.18626C152.21 0.526263 145.86 2.99626 145.883 1.46626L142.19 1.54626L142.289 1.38626C139.93 1.28626 139.097 1.65626 138.264 2.01626C137.716 1.91626 138.118 1.76626 138.159 1.68626C134.71 1.37626 134.367 1.44626 131.477 2.20626L131.174 1.70626C130.394 1.99626 126.194 0.926263 122.809 1.50626C122.844 1.44626 122.914 1.35626 123.182 1.28626C119.378 1.86626 114.077 -0.0937368 112.685 1.71626L110.174 2.15626C113.419 2.29626 109.691 2.93626 111.025 3.23626C109.749 3.34626 107.722 2.69626 109.295 2.59626L109.539 2.68626C110.116 1.74626 105.502 2.35626 105.59 1.71626C99.1993 1.76626 92.972 1.24626 86.9836 1.20626L87.671 1.93626L85.5855 1.89626C85.0379 1.72626 84.8515 1.32626 86.337 1.35626C85.5564 0.946263 83.8379 1.70626 83.7971 1.86626C80.8786 1.56626 84.9389 1.01626 84.0418 0.996263L82.8301 1.04626L83.1039 1.13626C82.1194 1.43626 82.0321 1.75626 80.2437 1.71626C79.1136 1.56626 79.6612 1.26626 79.2184 1.23626C79.2184 1.18626 79.0728 1.15626 78.5369 1.21626L75.9038 1.15626L76.9582 1.73626C75.7931 2.01626 74.4825 1.70626 75.6999 2.35626C73.9174 1.34626 65.8901 1.99626 64.795 1.67626C63.1639 2.09626 61.5503 2.08626 59.5522 2.03626C60.0473 2.15626 60.3444 2.80626 58.6259 2.72626C59.2551 1.38626 55.4745 2.14626 54.0822 1.17626C55.3288 1.81626 49.1889 1.33626 51.1404 2.24626C49.7016 2.13626 51.053 1.74626 49.9637 1.42626C46.5442 1.94626 42.4258 1.08626 38.1966 1.26626C38.1325 1.44626 38.8374 1.70626 37.9344 1.97626L35.7033 1.09626C34.8703 1.18626 34.9344 2.11626 33.4082 1.49626C33.6237 1.64626 33.9441 1.86626 33.3849 1.92626C25.1013 1.06626 16.4623 2.62626 8.05058 1.01626C9.19234 1.35626 8.42923 1.38626 7.56126 1.40626C8.12631 1.48626 7.5496 1.83626 7.66029 2.07626L4.1418 1.41626C3.50101 2.07626 0.366995 1.45626 0 2.09626L1.11263 1.98626C-0.37282 2.73626 3.18645 3.64626 2.97091 4.60626C4.63112 3.75626 7.35154 5.86626 10.072 4.64626C10.672 4.84626 9.55934 4.95626 9.87973 5.17626C10.5729 4.76626 11.406 4.67626 12.9497 4.86626L12.7749 4.96626C17.1148 4.86626 18.9789 5.26626 23.8547 5.53626L23.4935 5.06626C24.542 5.12626 24.7634 5.27626 25.2527 5.39626C26.4527 4.67626 22.3109 5.35626 23.4061 4.56626C24.7984 5.52626 30.7984 4.57626 31.7363 5.67626C33.3499 5.67626 31.2645 5.12626 32.8781 5.13626L33.3033 5.43626L33.7111 5.05626C34.7655 5.11626 35.3014 5.48626 35.3422 5.73626C35.0859 5.70626 34.614 5.80626 34.3402 5.82626C35.7092 6.17626 38.2082 5.70626 38.6743 5.82626L37.1247 5.64626C41.5228 5.36626 46.8996 5.75626 51.1521 5.15626L50.8317 4.93626C54.0764 4.52626 53.4298 5.18626 56.9949 4.98626L56.8667 5.03626C57.5774 4.81626 58.5327 4.70626 59.5056 4.72626C58.6026 4.98626 61.2007 5.23626 60.0182 5.52626C63.5367 5.08626 61.76 5.17626 64.0843 4.34626L64.6202 4.71626C65.4124 4.37626 65.4765 4.20626 67.2591 4.10626C65.7969 4.42626 68.395 4.67626 66.7581 5.09626C70.4921 5.90626 72.3038 4.27626 74.0164 5.46626C75.7291 4.43626 70.7834 4.89626 71.7446 4.67626C70.9407 4.33626 73.1601 3.90626 74.331 4.01626C75.5252 4.03626 76.3582 5.32626 79.3641 5.30626C79.067 5.30626 79.0437 5.37626 78.7466 5.37626C79.8709 5.63626 80.9485 5.02626 82.3233 5.44626C83.0981 4.82626 84.1117 5.48626 84.3331 4.68626L81.5777 4.86626C83.1389 4.65626 84.601 3.73626 87.1758 4.18626C86.9778 4.34626 86.2088 4.55626 85.6845 4.67626C86.436 4.90626 87.135 4.52626 87.9098 4.75626C87.6884 5.54626 84.5661 4.92626 82.8884 5.53626C83.6981 5.86626 86.0515 4.96626 85.2127 5.81626C86.4185 4.72626 88.1719 5.95626 90.205 5.11626L90.071 5.58626C90.3914 5.51626 91.0613 5.28626 91.6496 5.29626L90.5778 5.91626C92.2264 5.39626 93.7526 6.37626 95.3312 6.08626C92.0283 6.09626 94.5914 5.51626 93.1934 5.16626C97.2711 4.52626 95.5351 6.40626 100.102 6.17626C99.4847 6.24626 97.7837 5.88626 98.7507 5.67626C99.6187 5.77626 100.766 5.95626 101.302 6.20626C104.326 6.10626 100.836 5.71626 102.124 5.42626C103.155 6.00626 103.609 5.18626 104.931 5.00626L104.943 5.48626C108.392 5.79626 105.858 4.47626 108.957 4.85626L107.646 5.52626L109.265 5.35626L108.933 5.90626C110.693 5.49626 111.24 5.60626 112.964 5.75626C112.563 5.41626 113.192 4.87626 114.718 4.86626C115.761 5.15626 114.135 5.32626 116.297 5.25626C115.807 5.55626 115.271 5.93626 114.333 5.49626C114.234 5.65626 113.85 5.79626 113.751 5.95626C114.869 6.28626 116.57 6.03626 117.351 6.02626C117.048 6.00626 116.687 5.98626 116.506 5.91626L119.64 5.24626C120.135 5.42626 119.745 5.57626 119.355 5.71626C119.99 5.66626 120.433 5.44626 121.365 5.39626C121.12 5.78626 121.178 6.19626 119.856 6.37626L122.844 5.93626C123.042 6.10626 124.376 6.40626 123.992 6.54626C125.646 6.77626 128.058 5.78626 130.254 6.08626C130.37 6.00626 130.598 5.93626 131.064 5.87626C133.126 5.96626 134.955 6.44626 137.402 5.90626L138.788 6.60626C140.705 6.44626 136.906 5.71626 140.099 5.45626C142.359 5.23626 140.943 6.05626 141.736 6.25626C142.86 5.90626 144.811 5.17626 146.885 5.75626C146.198 5.88626 145.662 5.78626 145.015 5.83626L145.021 5.80626ZM168.654 5.49626C168.194 5.59626 167.286 5.90626 166.948 5.62626C167.472 5.07626 167.874 5.33626 168.654 5.49626ZM204.579 4.33626C204.241 4.49626 203.711 4.41626 203.117 4.23626C203.548 4.19626 204.037 4.21626 204.579 4.33626ZM304.652 0.976263C304.652 0.976263 304.617 0.986263 304.606 0.996263C303.586 0.806263 303.947 0.886263 304.652 0.976263ZM306.773 1.18626C306.988 1.11626 306.971 1.05626 306.883 0.986263C306.738 1.10626 306.26 1.11626 305.718 1.08626C305.87 1.21626 306.143 1.29626 306.778 1.19626L306.773 1.18626ZM78.9971 1.37626L79.4107 1.50626C78.4786 1.64626 78.7408 1.51626 78.9971 1.37626Z" fill="#212121"/>
</svg>
