<svg width="900" height="70" viewBox="0 0 900 70" fill="none" xmlns="http://www.w3.org/2000/svg">
<path d="M899.994 63.3534C899.994 62.2984 899.994 61.2434 899.965 60.1884C899.965 59.1729 899.878 54.2012 899.791 53.1726C899.675 52.1439 899.472 51.1285 899.299 50.0998C899.299 50.0339 899.299 49.9812 899.299 49.9152C898.98 49.4141 898.836 48.8998 898.894 48.3459C898.836 48.2404 898.778 48.1349 898.72 48.0294C898.72 57.6827 898.662 65.5558 898.662 65.1338C898.633 64.0656 898.575 62.9974 898.546 61.9292C898.488 60.8873 898.401 59.8455 898.344 58.7905C898.286 57.7619 898.257 52.7638 898.228 51.7219C898.17 50.6801 898.141 49.6251 898.112 48.5833C898.054 47.5678 897.967 46.5524 897.909 45.5369C897.852 44.4423 897.852 43.3478 897.794 42.24C897.736 41.2246 897.678 40.2223 897.678 39.2069C897.678 37.0309 897.707 28.2743 897.823 26.0983C897.881 25.0301 897.967 23.9619 898.054 22.8937C898.112 21.8915 898.112 16.9461 898.112 15.9439C898.112 13.7943 898.112 11.6315 898.228 9.48191C898.315 7.30595 898.517 5.12999 898.778 2.96722C898.778 2.72984 898.836 2.49246 898.865 2.25509C898.923 1.80671 898.315 1.05501 897.388 1.05501C896.636 1.05501 894.32 1.05501 893.51 0.89676C892.931 0.791258 891.281 1.02864 890.673 0.989073C889.718 0.923135 888.763 0.870384 887.836 0.817634C886.331 0.738508 884.855 0.659382 883.35 0.593444C881.931 0.527506 880.542 0.44838 879.123 0.408817C877.56 0.356066 875.968 0.316503 874.405 0.290128C872.871 0.263753 871.366 0.27694 869.861 0.303316C866.995 0.369254 864.159 0.514318 861.293 0.527506C860.627 0.527506 859.932 0.527506 859.267 0.514318C858.485 0.514318 857.704 0.487943 856.922 0.50113C855.388 0.514318 853.883 0.540693 852.349 0.567069C850.93 0.593444 849.483 0.619819 848.065 0.619819C846.531 0.619819 845.025 0.567069 843.491 0.514318C839.323 0.382442 835.126 0.382442 830.958 0.395629C829.047 0.395629 827.137 0.395629 825.197 0.395629C823.634 0.395629 822.071 0.395629 820.508 0.395629C818.974 0.395629 817.44 0.435192 815.906 0.461567C812.809 0.514318 809.711 0.527506 806.614 0.567069C805.167 0.593444 803.72 0.646194 802.272 0.67257C800.796 0.712133 799.291 0.738508 797.815 0.764883C796.165 0.791258 794.544 0.830821 792.894 0.844009C791.475 0.857197 790.057 0.817634 788.668 0.764883C785.541 0.646194 782.386 0.580256 779.231 0.553881C776.134 0.514318 483.578 0.553881 480.481 0.567069C479.034 0.567069 477.615 0.593444 476.168 0.633007C474.692 0.685757 473.215 0.764883 471.739 0.844009C470.234 0.923135 468.758 0.975885 467.253 1.05501C465.747 1.13414 464.213 1.20008 462.708 1.25283C461.724 1.2792 460.74 1.2792 459.756 1.2792C458.974 1.2792 458.192 1.23964 457.44 1.20008C454.574 0.94951 451.738 0.67257 448.872 0.474755C448.004 0.422005 447.164 0.356066 446.296 0.316503C445.89 0.303316 445.485 0.27694 445.109 0.263753C444.675 0.237378 444.212 0.263753 443.749 0.250565C442.301 0.22419 440.825 0.263753 439.378 0.303316C437.901 0.329691 436.454 0.395629 434.978 0.474755C433.502 0.553881 432.054 0.646194 430.578 0.712133C429.073 0.778071 427.568 0.817634 426.063 0.830821C424.528 0.844009 422.994 0.791258 421.489 0.72532C419.434 0.646194 99.003 0.514318 96.9479 0.44838C94.9217 0.382442 92.8665 0.329691 90.8403 0.290128C88.6693 0.250565 86.4695 0.237378 84.2985 0.395629C83.2565 0.474755 82.2723 0.580256 81.2302 0.685757C80.3908 0.764883 79.5803 0.830821 78.7409 0.89676C77.3226 0.962698 75.9042 1.01545 74.4569 1.02864C73.7333 1.02864 72.9807 1.02864 72.257 1.01545C71.5913 1.01545 70.9255 1.01545 70.2598 0.989073C67.2783 0.909947 64.2969 0.712133 61.3155 0.567069C58.363 0.422005 55.3816 0.408817 52.4002 0.342879C50.9529 0.316503 49.5056 0.290128 48.0583 0.27694C47.5951 0.27694 47.132 0.27694 46.6978 0.27694C45.7715 0.27694 44.8453 0.27694 43.919 0.250565C42.4428 0.211002 40.9665 0.131876 39.4903 0.0791258C37.8693 0.0395629 36.422 0 34.9747 0C34.9458 0 34.8879 0 34.8589 0C33.4406 0 31.9933 0.0527506 30.575 0.0791258C29.0698 0.105501 27.5935 0.211002 26.0883 0.22419C24.5832 0.237378 23.078 0.197815 21.5728 0.171439C20.1544 0.145064 18.7361 0.131876 17.3177 0.118689C14.5389 0.105501 11.7312 0.0395629 8.92344 0.145064C7.56298 0.197815 6.17358 0.250565 4.81312 0.316503C4.20526 0.342879 3.62634 0.382442 3.04742 0.487943C2.64218 0.553881 2.17905 0.659382 1.88959 0.817634C1.62907 0.94951 1.42645 1.08139 1.22383 1.23964C1.02121 1.39789 0.905427 1.60889 0.789644 1.78033C0.702806 1.89902 0.67386 2.0309 0.615968 2.14959C0.529131 2.40015 0.442293 2.63753 0.384401 2.88809C0.210726 3.61341 0.152834 4.33873 0.123888 5.07724C0.0949425 5.78937 0.0659966 6.50151 0.0370507 7.21364C0.0370507 7.92577 -0.020841 8.63791 0.00810485 9.35004C0.0370507 10.0754 0.0949425 10.8139 0.210726 11.5392C0.413347 12.9898 0.731752 14.4273 0.81859 15.8911C0.992265 18.8188 0.992265 25.7027 1.02121 28.6304C1.02121 30.1338 1.02121 38.231 1.0791 39.7344C1.13699 41.1322 1.25278 42.517 1.31067 43.9148C1.33962 45.3787 1.39751 46.8557 1.42645 48.3195C1.42645 49.7702 1.33962 51.2208 1.25278 52.6582C1.16594 54.0298 0.934373 59.3444 0.760698 60.7159C0.615968 61.7313 0.529131 62.76 0.413347 63.7886C0.413347 64.1183 0.413347 64.4348 0.413347 64.7645C0.413347 65.4634 0.413347 66.1756 0.615968 66.8745C0.731752 67.2833 0.847535 67.7054 1.05016 68.1142C1.05016 68.1537 1.10805 68.1933 1.10805 68.2329C1.10805 68.2724 1.05016 68.2988 1.02121 68.3384C0.847535 68.6417 0.934373 68.945 1.0791 69.2351C1.33962 69.6835 2.23694 70 3.19215 70C3.77107 70 4.32104 69.8945 4.75523 69.6967C4.78418 69.6835 4.84207 69.6571 4.87101 69.6307C4.89996 69.6307 4.92891 69.6308 4.95785 69.6176C6.28936 69.5648 7.62087 69.4725 8.95238 69.3802C10.3418 69.3011 11.7601 69.2219 13.1785 69.1955C14.6547 69.1692 16.131 69.1955 17.5783 69.2351C19.1124 69.2747 20.6465 69.3142 22.2096 69.3538C23.5701 69.3802 24.9595 69.3802 26.3489 69.367C29.3882 69.3406 32.4275 69.3011 35.4379 69.2219C36.9431 69.1824 38.4193 69.1428 39.9245 69.09C41.4007 69.0505 42.877 69.0241 44.3821 69.0109C45.9163 69.0109 47.4794 69.0637 49.0135 69.1164C50.4318 69.156 51.8212 69.2219 53.2396 69.2747C54.8027 69.3406 56.3368 69.4065 57.8999 69.4461C59.4051 69.4857 60.8813 69.4857 62.3865 69.5121C63.8627 69.5252 65.31 69.5516 66.7863 69.5648C68.2914 69.578 69.7966 69.5648 71.3018 69.5384C74.2543 69.4989 77.2068 69.4461 80.1593 69.3274C83.1696 69.2219 86.2089 69.1164 89.2193 69.0109C92.3165 68.9054 95.4427 68.8527 98.5399 68.8395C101.666 68.8395 423.226 68.8659 426.352 68.9054C429.305 68.945 432.257 68.9582 435.21 68.9977C438.365 69.0373 441.52 69.0769 444.675 69.1428C447.714 69.1955 450.753 69.2879 453.793 69.3142C456.861 69.3274 459.9 69.3011 462.969 69.2219C464.561 69.1824 466.124 69.1164 467.716 69.0373C469.134 68.9714 470.523 68.8791 471.942 68.8131C475.039 68.668 478.136 68.5889 481.262 68.6153C482.739 68.6285 773.674 68.6812 775.179 68.734C776.742 68.7736 778.334 68.8263 779.897 68.8659C786.034 69.0241 792.199 69.1692 798.336 69.3142C804.385 69.4593 810.435 69.6835 816.485 69.6835C819.408 69.6835 822.332 69.6439 825.255 69.5648C828.352 69.4725 831.45 69.3406 834.547 69.2087C836.052 69.1428 837.557 69.0769 839.091 68.9977C840.655 68.9318 842.189 68.8527 843.752 68.8131C846.762 68.7472 849.801 68.7867 852.812 68.7999C855.735 68.7999 858.659 68.7604 861.582 68.7208C864.361 68.6812 867.14 68.6549 869.948 68.6285C874.348 68.5889 878.776 68.5889 883.176 68.6021C884.971 68.6021 886.765 68.5625 888.531 68.457C888.82 68.4834 889.11 68.523 889.399 68.5494C889.949 68.6021 890.528 68.6549 891.107 68.6549C892.062 68.6549 892.989 68.5362 893.915 68.457C894.233 68.4307 894.552 68.4043 894.87 68.3779C895.42 68.3383 895.912 68.246 896.433 68.1405C897.128 68.0087 897.678 67.7053 898.025 67.402C898.257 67.191 898.459 66.98 898.604 66.7558C898.633 66.7163 898.633 66.6635 898.662 66.624C899.183 66.4789 899.617 66.2547 899.82 65.9514C900.051 65.5953 899.994 65.1997 899.994 64.8304C899.994 64.3293 899.994 63.8414 899.994 63.3402V63.3534ZM893.394 42.1609C893.452 43.2027 893.452 44.2313 893.51 45.2732C893.539 46.3018 893.654 47.3173 893.712 48.3327C893.77 49.3613 893.799 50.39 893.857 51.4186C893.915 52.5132 893.973 57.5772 894.031 58.6718C894.089 59.7136 894.204 60.7686 894.291 61.8105C894.378 62.8655 894.465 63.9073 894.523 64.9623C894.523 65.1074 894.523 65.2656 894.552 65.4107C894.378 65.5558 894.175 65.7008 893.973 65.8327C893.683 66.0041 893.365 66.1492 893.018 66.2943C892.902 66.3338 892.757 66.3734 892.641 66.3998C892.554 66.3998 892.468 66.3998 892.41 66.3998C891.831 66.4261 891.223 66.4261 890.644 66.4393C890.007 66.4525 889.37 66.4921 888.763 66.5448C888.415 66.5712 888.068 66.5844 887.692 66.624C887.286 66.6635 886.881 66.7295 886.476 66.7954C886.302 66.7954 886.157 66.7954 885.984 66.7954C884.45 66.8086 882.887 66.7822 881.352 66.7558C878.342 66.7163 875.361 66.6767 872.35 66.6371C869.571 66.5976 866.793 66.558 864.014 66.5448C861.119 66.5316 858.196 66.5316 855.301 66.5185C852.32 66.5185 849.309 66.4525 846.328 66.4657C844.794 66.4657 843.26 66.4921 841.697 66.558C840.162 66.6108 838.628 66.6899 837.094 66.7558C834.026 66.8877 830.929 67.0196 827.86 67.1383C824.995 67.2438 822.071 67.2965 819.177 67.3229C816.108 67.3493 813.04 67.3229 809.972 67.257C806.846 67.191 803.691 67.0987 800.564 67.0196C797.583 66.9405 794.63 66.8745 791.649 66.8086C788.581 66.7295 785.513 66.6503 782.444 66.5712C779.318 66.5053 776.163 66.413 773.037 66.3206C770.084 66.2283 477.702 66.2415 474.75 66.347C471.652 66.4525 468.613 66.6767 465.516 66.7822C462.505 66.8877 459.466 66.9536 456.427 66.9668C453.33 66.98 450.232 66.9141 447.135 66.8481C444.067 66.7822 441.028 66.7295 437.959 66.6899C434.978 66.6503 431.997 66.6371 429.015 66.5976C425.918 66.558 422.85 66.5053 419.752 66.4921C416.626 66.4921 95.0664 66.4921 91.9402 66.5844C88.872 66.6635 85.8326 66.7822 82.7644 66.8877C79.8119 66.9932 76.8594 67.1119 73.9069 67.1515C70.8676 67.191 67.8283 67.2306 64.789 67.191C63.2838 67.1647 61.7786 67.1646 60.2734 67.1383C58.8261 67.1119 57.3788 67.0987 55.9315 67.0328C52.9501 66.9009 49.9687 66.769 46.9873 66.6899C45.4531 66.6503 43.948 66.624 42.4138 66.6635C40.8507 66.6899 39.2877 66.7426 37.7535 66.7822C34.7432 66.8745 31.7617 66.9273 28.7514 66.9668C27.0146 66.9932 25.3068 67.0064 23.5701 66.9932C21.6596 66.98 19.7492 66.9141 17.8098 66.8745C15.9573 66.835 14.0758 66.8086 12.2233 66.8481C10.3418 66.8877 8.48925 67.0328 6.63671 67.1647C6.26042 67.191 5.88412 67.2042 5.47888 67.2174C5.39204 66.9405 5.33415 66.6767 5.27626 66.3998C5.18942 65.714 5.16047 65.0283 5.16047 64.3425C5.16047 64.0656 5.16047 63.8018 5.16047 63.5249C5.27626 62.5226 5.36309 61.5203 5.50782 60.5181C5.71044 59.1202 5.88412 53.7792 5.9999 52.3813C6.08674 50.9702 6.17358 49.546 6.14463 48.1217C6.11569 46.6711 6.05779 45.2204 5.9999 43.7698C5.94201 42.3191 5.79728 40.8817 5.71044 39.431C5.62361 37.9408 5.62361 29.87 5.59466 28.3798C5.56571 26.9292 5.50782 25.4785 5.47888 24.0279C5.44993 22.6036 5.42098 17.2231 5.24731 15.7988C5.16047 15.0735 5.07363 14.3482 4.95785 13.6228C4.81312 12.8448 4.63945 12.0667 4.52366 11.2754C4.26315 9.82479 4.2921 8.36096 4.2921 6.89714C4.2921 5.57837 4.26315 4.24642 4.55261 2.94084C4.6105 2.72984 4.69734 2.53203 4.81312 2.32102C6.05779 2.28146 7.27352 2.25509 8.51819 2.21552C9.9076 2.17596 11.2681 2.14959 12.6575 2.16277C15.552 2.16277 18.4177 2.17596 21.3123 2.22871C22.7596 2.25509 24.1779 2.30784 25.6252 2.29465C27.1883 2.29465 28.7224 2.20234 30.2855 2.17596C31.7617 2.14959 33.209 2.1364 34.6853 2.1364C36.1036 2.1364 37.522 2.18915 38.9114 2.25509C40.3587 2.32102 41.777 2.41334 43.2243 2.46609C44.6427 2.50565 46.0321 2.50565 47.4504 2.53203C50.4897 2.5584 53.5001 2.63753 56.5394 2.70347C59.4051 2.75622 62.2707 2.90128 65.1074 3.04634C66.6415 3.12547 68.1467 3.21778 69.6808 3.25735C71.1281 3.29691 72.5754 3.29691 74.0227 3.3101C76.1068 3.3101 78.162 3.2046 80.2171 3.07272C81.9249 2.96722 83.5749 2.74303 85.2537 2.61115C86.5852 2.5584 87.9457 2.53203 89.3061 2.54521C90.7245 2.5584 92.1429 2.59797 93.5323 2.63753C95.0374 2.67709 96.5716 2.70347 98.0768 2.7694C99.5819 2.83534 419.521 2.91447 421.026 2.99359C423.978 3.13866 426.96 3.13866 429.883 2.99359C432.807 2.86172 435.702 2.63753 438.625 2.57159C439.986 2.54521 441.317 2.51884 442.677 2.50565C443.343 2.50565 444.009 2.50565 444.675 2.51884C445.225 2.51884 445.804 2.5584 446.354 2.58478C449.161 2.78259 451.94 3.00678 454.719 3.27053C456.311 3.4156 457.932 3.53429 459.553 3.53429C461.087 3.53429 462.65 3.5211 464.184 3.45516C467.195 3.32329 470.205 3.17822 473.215 3.01997C474.692 2.94084 476.168 2.88809 477.644 2.86172C479.062 2.83534 769.969 2.83534 771.387 2.82216C774.542 2.79578 777.726 2.82216 780.881 2.83534C783.92 2.86172 786.96 2.99359 789.999 3.08591C793.01 3.17822 796.049 3.05953 799.088 3.00678C802.185 2.95403 805.254 2.86172 808.351 2.80897C809.827 2.78259 811.332 2.78259 812.808 2.7694C814.227 2.75622 815.674 2.72984 817.093 2.70347C818.656 2.67709 820.19 2.65072 821.753 2.65072C823.345 2.65072 824.937 2.65072 826.529 2.6639C828.034 2.6639 829.568 2.6639 831.073 2.6639C832.752 2.6639 834.431 2.6639 836.139 2.6639C839.12 2.6639 842.073 2.72984 845.054 2.83534C847.891 2.92766 850.757 2.84853 853.593 2.79578C855.127 2.7694 856.662 2.74303 858.196 2.75622C858.948 2.75622 859.73 2.7694 860.482 2.78259C861.148 2.78259 861.843 2.7694 862.509 2.74303C863.985 2.70347 865.49 2.65072 866.966 2.59797C868.414 2.54521 869.861 2.46609 871.308 2.43971C874.319 2.38696 877.358 2.42653 880.368 2.49246C882.279 2.53203 884.16 2.57159 886.07 2.61115C887.691 2.63753 889.37 2.63753 890.991 2.71665C891.599 2.78259 892.207 2.84853 892.786 2.95403C893.307 3.07272 893.799 3.19141 894.262 3.34966C894.494 3.44197 894.696 3.5211 894.928 3.61341C894.957 3.6266 895.015 3.63979 895.044 3.65298C894.841 5.56518 894.667 7.4642 894.494 9.37641C894.32 11.4601 894.262 13.5437 894.146 15.6274C894.089 16.6428 894.06 21.6145 893.973 22.63C893.857 23.7378 893.712 24.8587 893.596 25.9665C893.394 28.0765 893.278 36.7803 893.249 38.9035C893.249 39.9717 893.307 41.0531 893.336 42.1213L893.394 42.1609ZM895.189 64.0919C895.189 64.3029 895.189 64.5271 895.189 64.7381C895.189 64.7645 895.189 64.7909 895.189 64.8173C894.986 64.9359 894.87 65.0678 894.783 65.2129C894.783 62.2193 894.812 57.1157 894.812 51.3263C894.899 51.8274 894.957 52.3154 895.015 52.8165C895.102 53.7924 895.131 58.7114 895.16 59.6873C895.16 60.6631 895.16 61.639 895.16 62.6281C895.16 63.1161 895.16 63.6172 895.16 64.1051L895.189 64.0919Z" fill="black"/>
</svg>
