<svg width="162" height="52" viewBox="0 0 162 52" fill="none" xmlns="http://www.w3.org/2000/svg">
<path d="M60.0181 17.9357C54.929 17.9357 51.0039 14.3286 51.0039 8.99131C51.0039 3.65399 54.9294 0.046875 60.0181 0.046875C65.1067 0.046875 69.045 3.60061 69.045 8.99131C69.045 14.382 65.1323 17.9357 60.0181 17.9357ZM62.2558 8.99131C62.2558 7.67695 61.2969 6.64442 60.0181 6.64442C58.7392 6.64442 57.7932 7.67695 57.7932 8.99131C57.7932 10.3057 58.7392 11.3113 60.0181 11.3113C61.2969 11.3113 62.2558 10.3057 62.2558 8.99131Z" fill="white"/>
<path d="M70.5938 0.744382C70.5938 0.46292 70.7856 0.261719 71.0539 0.261719H77.383C82.4973 0.261719 86.0775 2.70229 86.0775 6.48411C86.0775 8.62979 85.0674 10.1584 83.6608 11.1376C83.5839 11.1913 83.5587 11.2581 83.5587 11.3253C83.5587 11.5934 84.1342 12.1701 84.9781 12.1701C85.3105 12.1701 85.5917 12.1566 85.7327 12.1566C86.0267 12.1566 86.1929 12.331 86.1929 12.6259V17.1853C86.1929 17.5205 86.0138 17.7082 85.7327 17.7485C85.2468 17.8157 84.4795 17.8691 83.8402 17.8691C81.0782 17.8691 78.3931 16.7963 77.2296 13.4303C77.204 13.3497 77.1655 13.3366 77.1018 13.3366C77.0381 13.3366 76.9868 13.3769 76.9868 13.4572V17.2121C76.9868 17.4936 76.8078 17.6948 76.5266 17.6948H71.0543C70.7859 17.6948 70.5941 17.4936 70.5941 17.2121V0.744755L70.5938 0.744382ZM77.9457 8.74998C79.0071 8.74998 79.6335 8.15981 79.6335 7.28818C79.6335 6.41654 79.0071 5.82637 77.9457 5.82637H77.268C77.1018 5.82637 76.9868 5.94695 76.9868 6.10784V8.45471C76.9868 8.62904 77.1018 8.74962 77.268 8.74962H77.9457V8.74998Z" fill="white"/>
<path d="M87.918 0.744382C87.918 0.46292 88.097 0.261719 88.3782 0.261719H93.4031C99.9112 0.261719 104.169 3.45336 104.169 9.01839C104.169 14.5834 99.8859 17.6948 93.3519 17.6948H88.3782C88.097 17.6948 87.918 17.4936 87.918 17.2121V0.744755V0.744382ZM94.8482 11.3115C96.3057 11.3115 97.4055 10.6008 97.4055 8.99151C97.4055 7.38225 96.3061 6.6715 94.8482 6.6715H94.5923C94.426 6.6715 94.3111 6.79208 94.3111 6.9664V11.0162C94.3111 11.1906 94.426 11.3111 94.5923 11.3111H94.8482V11.3115Z" fill="white"/>
<path d="M105.703 0.744382C105.703 0.46292 105.882 0.261719 106.164 0.261719H118.004C118.272 0.261719 118.464 0.46292 118.464 0.744382V4.91479C118.464 5.20969 118.272 5.4109 118.004 5.4109H112.416C112.25 5.4109 112.135 5.53147 112.135 5.69236V6.52368C112.135 6.69801 112.25 6.81858 112.416 6.81858H117.441C117.722 6.81858 117.901 7.01979 117.901 7.30125V10.6538C117.901 10.9352 117.722 11.1364 117.441 11.1364H112.416C112.25 11.1364 112.135 11.257 112.135 11.4313V12.2627C112.135 12.4235 112.25 12.5441 112.416 12.5441H118.208C118.489 12.5441 118.668 12.7453 118.668 13.0402V17.2106C118.668 17.4921 118.489 17.6933 118.208 17.6933H106.163C105.882 17.6933 105.703 17.4921 105.703 17.2106V0.743261L105.703 0.744382Z" fill="white"/>
<path d="M120.293 0.744382C120.293 0.46292 120.485 0.261719 120.753 0.261719H127.082C132.197 0.261719 135.777 2.70229 135.777 6.48411C135.777 8.62979 134.767 10.1584 133.36 11.1376C133.283 11.1913 133.258 11.2581 133.258 11.3253C133.258 11.5934 133.833 12.1701 134.677 12.1701C135.01 12.1701 135.291 12.1566 135.432 12.1566C135.726 12.1566 135.892 12.331 135.892 12.6259V17.1853C135.892 17.5205 135.713 17.7082 135.432 17.7485C134.946 17.8157 134.179 17.8691 133.539 17.8691C130.777 17.8691 128.092 16.7963 126.929 13.4303C126.903 13.3497 126.865 13.3366 126.801 13.3366C126.737 13.3366 126.686 13.3769 126.686 13.4572V17.2121C126.686 17.4936 126.507 17.6948 126.226 17.6948H120.754C120.485 17.6948 120.293 17.4936 120.293 17.2121V0.744755L120.293 0.744382ZM127.645 8.74998C128.706 8.74998 129.333 8.15981 129.333 7.28818C129.333 6.41654 128.706 5.82637 127.645 5.82637H126.967C126.801 5.82637 126.686 5.94695 126.686 6.10784V8.45471C126.686 8.62904 126.801 8.74962 126.967 8.74962H127.645V8.74998Z" fill="white"/>
<path d="M61.0657 39.2002C60.388 38.1945 58.0866 34.8151 57.7158 34.2787C57.6517 34.185 57.6136 34.1715 57.5495 34.1715C57.4602 34.1715 57.4346 34.2253 57.4346 34.319V39.8172C57.4346 40.0987 57.2555 40.2999 56.9744 40.2999H51.7063C51.4251 40.2999 51.2461 40.0987 51.2461 39.8172V23.3498C51.2461 23.0684 51.4251 22.8672 51.7063 22.8672H57.5495C57.7798 22.8672 57.9841 22.9609 58.1251 23.189C58.7771 24.2349 61.0785 27.9092 61.2066 28.1104C61.2835 28.231 61.3216 28.2579 61.4113 28.2579C61.501 28.2579 61.5391 28.231 61.616 28.1104C61.7437 27.9092 64.0451 24.2349 64.6976 23.189C64.8381 22.9609 65.0428 22.8672 65.2731 22.8672H71.1163C71.3975 22.8672 71.5765 23.0684 71.5765 23.3498V39.8172C71.5765 40.0987 71.3975 40.2999 71.1163 40.2999H65.8483C65.5671 40.2999 65.3881 40.0987 65.3881 39.8172V34.319C65.3881 34.2253 65.3624 34.1715 65.2731 34.1715C65.209 34.1715 65.1709 34.185 65.1069 34.2787C64.736 34.8151 62.4346 38.1945 61.7569 39.2002C61.6291 39.3879 61.5907 39.4551 61.4117 39.4551C61.2327 39.4551 61.1942 39.3879 61.0664 39.2002H61.0657Z" fill="white"/>
<path d="M82.2016 40.5373C77.1126 40.5373 73.1875 36.9302 73.1875 31.5929C73.1875 26.2555 77.113 22.6484 82.2016 22.6484C87.2903 22.6484 91.2286 26.2022 91.2286 31.5929C91.2286 36.9836 87.3159 40.5373 82.2016 40.5373ZM84.4394 31.5929C84.4394 30.2785 83.4805 29.246 82.2016 29.246C80.9228 29.246 79.9768 30.2785 79.9768 31.5929C79.9768 32.9072 80.9228 33.9129 82.2016 33.9129C83.4805 33.9129 84.4394 32.9072 84.4394 31.5929Z" fill="white"/>
<path d="M92.8281 23.3502C92.8281 23.0688 93.0071 22.8676 93.2883 22.8676H98.2364C98.4795 22.8676 98.6457 22.9079 98.8628 23.1624C99.7195 24.1681 103.543 28.6741 103.786 28.9556C103.875 29.0627 103.926 29.0896 103.977 29.0896C104.029 29.0896 104.054 29.0627 104.054 29.0089V23.3498C104.054 23.0684 104.233 22.8672 104.515 22.8672H110.115C110.396 22.8672 110.588 23.0684 110.588 23.3498V39.8172C110.588 40.0987 110.396 40.2999 110.115 40.2999H105.129C104.885 40.2999 104.643 40.1793 104.374 39.884C103.543 38.9721 99.784 34.8819 99.4771 34.5467C99.4515 34.5198 99.4259 34.5064 99.4003 34.5064C99.3618 34.5064 99.3362 34.5333 99.3362 34.587V39.8168C99.3362 40.0983 99.1444 40.2995 98.8632 40.2995H93.2883C93.0071 40.2995 92.8281 40.0983 92.8281 39.8168V23.3495V23.3502Z" fill="white"/>
<path d="M112.453 23.3499C112.453 23.0684 112.632 22.8672 112.913 22.8672H118.475C118.744 22.8672 118.936 23.0684 118.936 23.3499V27.5203C118.936 27.6408 119 27.7215 119.127 27.7215H119.14C119.255 27.7215 119.319 27.6946 119.371 27.6009C119.805 26.8099 121.097 24.4899 121.8 23.2024C121.902 23.0146 122.119 22.8672 122.35 22.8672H128.346C128.653 22.8672 128.845 22.9743 128.845 23.1755C128.845 23.3095 128.806 23.4305 128.64 23.7119C127.988 24.8251 125.827 28.5528 124.766 30.3767C124.689 30.4973 124.689 30.551 124.689 30.5913C124.689 30.6316 124.702 30.685 124.766 30.8194C125.329 31.9595 128.436 38.2755 129.011 39.4421C129.152 39.7235 129.177 39.8042 129.177 39.9382C129.177 40.1663 129.024 40.3003 128.704 40.3003H122.324C122.056 40.3003 121.902 40.1931 121.8 39.9651C120.994 38.168 119.869 35.6603 119.447 34.7218C119.409 34.6412 119.345 34.6012 119.242 34.6012H119.127C119 34.6012 118.936 34.6684 118.936 34.789V39.8176C118.936 40.0991 118.744 40.3003 118.475 40.3003H112.913C112.632 40.3003 112.453 40.0991 112.453 39.8176V23.3502V23.3499Z" fill="white"/>
<path d="M130.188 23.3499C130.188 23.0684 130.367 22.8672 130.648 22.8672H142.488C142.756 22.8672 142.948 23.0684 142.948 23.3499V27.5203C142.948 27.8152 142.756 28.0164 142.488 28.0164H136.9C136.734 28.0164 136.619 28.1369 136.619 28.2978V29.1291C136.619 29.3035 136.734 29.424 136.9 29.424H141.925C142.206 29.424 142.385 29.6253 142.385 29.9067V33.2592C142.385 33.5407 142.206 33.7419 141.925 33.7419H136.9C136.734 33.7419 136.619 33.8625 136.619 34.0368V34.8681C136.619 35.029 136.734 35.1496 136.9 35.1496H142.692C142.973 35.1496 143.152 35.3508 143.152 35.6457V39.8161C143.152 40.0976 142.973 40.2988 142.692 40.2988H130.648C130.367 40.2988 130.188 40.0976 130.188 39.8161V23.3487L130.188 23.3499Z" fill="white"/>
<path d="M156.107 33.8901C156.031 34.0376 156.005 34.1316 156.005 34.2522V39.8172C156.005 40.0987 155.826 40.2999 155.545 40.2999H150.06C149.778 40.2999 149.587 40.0987 149.587 39.8172V34.2522C149.587 34.1316 149.561 34.0107 149.497 33.8901C148.704 32.3884 145.073 25.3611 144.088 23.4973C143.896 23.1352 144.037 22.8672 144.459 22.8672H150.404C150.66 22.8672 150.903 23.0415 150.993 23.2562C151.108 23.5376 152.681 27.4131 152.732 27.5206C152.757 27.5744 152.77 27.6013 152.822 27.6013C152.873 27.6013 152.886 27.5744 152.911 27.5206C152.949 27.4135 154.497 23.5514 154.599 23.283C154.688 23.0415 154.931 22.8672 155.187 22.8672H161.132C161.555 22.8672 161.669 23.1221 161.478 23.4973C160.953 24.5298 156.798 32.5623 156.107 33.8901Z" fill="white"/>
<path d="M26.6391 26.2666C26.452 26.8866 25.8517 26.8231 25.3574 26.9019C25.2385 26.9207 25.1078 26.9042 24.9901 26.876C24.5805 26.776 23.9791 26.7666 24.0179 26.2266C24.0567 25.7008 24.6429 25.6679 25.0949 25.6138C25.1702 25.6055 25.2479 25.6114 25.3244 25.6114H25.3421C25.3703 25.6114 25.3974 25.6126 25.4245 25.6138C25.4515 25.6149 25.4786 25.6161 25.5057 25.6173C25.5316 25.6196 25.5586 25.6208 25.5845 25.6232C25.9059 25.6514 26.1919 25.7349 26.3849 25.849C26.3979 25.8561 26.4096 25.8632 26.4214 25.8702C26.4461 25.8867 26.4685 25.9031 26.4885 25.9196C26.4991 25.9279 26.5085 25.9361 26.5179 25.9443C26.5626 25.9843 26.5979 26.0278 26.6191 26.0714C26.6238 26.0796 26.6274 26.0867 26.6297 26.0949C26.6333 26.102 26.6356 26.1078 26.6368 26.1125C26.6391 26.1196 26.6415 26.1267 26.6427 26.1349C26.645 26.1408 26.6462 26.1467 26.6462 26.1525C26.6474 26.1572 26.6486 26.1631 26.6486 26.1678C26.6521 26.2008 26.6486 26.2337 26.6391 26.2666Z" fill="white"/>
<path d="M21.4886 26.2621C21.3014 26.8773 20.7117 26.8385 20.2115 26.9032C20.0926 26.9197 19.9608 26.9055 19.8443 26.8738C19.4464 26.7632 18.8415 26.7961 18.8791 26.2268C18.9156 25.6668 19.5088 25.688 19.9455 25.6115C20.0255 25.5986 20.1103 25.6104 20.1927 25.6104C20.9389 25.608 21.591 25.9221 21.4886 26.2621Z" fill="white"/>
<path d="M22.622 0.404388C29.8063 0.330357 36.1151 4.83077 38.4657 11.6935C38.6587 12.2581 38.8941 12.4314 39.4979 12.422C42.4651 12.3749 44.9544 14.6663 45.1747 17.5811C45.3983 20.5314 43.3328 23.2076 40.4423 23.6466C39.8173 23.7419 39.1577 23.6877 38.5233 23.6183C38.1844 23.5818 37.9937 23.599 37.8466 23.9366C37.1757 25.4669 36.2426 26.8293 35.1552 28.0938C34.9975 28.2785 34.8928 28.565 34.8798 28.8097C34.589 34.5068 30.6668 39.0554 25.0595 40.1788C18.6283 41.4669 12.0304 36.9059 11.0438 30.4161C10.8696 29.2691 10.4985 28.3648 9.7323 27.4767C8.89199 26.5003 8.28394 25.317 7.63074 24.1925C7.41075 23.8127 7.25522 23.6271 6.75867 23.6729C4.42836 23.8869 2.56057 23.0245 1.30945 21.0343C0.143017 19.1791 0.0983329 17.2166 1.1659 15.3097C2.204 13.456 3.83406 12.4463 5.98425 12.4239C6.50323 12.4192 6.67184 12.2432 6.83777 11.7882C8.99996 5.83343 13.1619 2.10965 19.3495 0.682708C19.9533 0.542721 20.5753 0.46749 21.1932 0.412201C21.6663 0.368733 22.1466 0.404388 22.622 0.404388ZM31.8036 10.5782C28.8411 9.0891 25.9311 9.43073 23.2782 11.4493C22.8594 11.7679 22.6416 11.7545 22.245 11.4405C20.0711 9.71966 17.6062 9.28742 14.9745 10.0567C11.7638 10.9955 9.63137 13.7877 9.37 17.2296C9.13342 20.3399 11.0307 23.4671 13.9862 24.8399C14.298 24.9846 14.6113 25.1256 14.9208 25.2667C12.8928 29.9875 14.884 34.052 17.4794 36.0118C20.4878 38.2857 24.5643 38.4005 27.661 36.296C29.2191 35.2361 30.313 33.8084 30.9462 32.0382C31.7583 29.7631 31.5862 27.5218 30.5858 25.255C30.8492 25.1445 31.0385 25.0689 31.2255 24.9854C34.2244 23.6527 35.9488 21.3461 36.1278 18.0831C36.3114 14.7105 34.8274 12.0981 31.8036 10.5782ZM39.2079 15.2657L39.5692 20.8565C40.4877 20.9307 42.3028 20.4836 42.2137 18.1026C42.1247 15.7219 40.1728 15.2195 39.2079 15.2657ZM5.92371 15.256C4.8173 15.3701 3.97539 15.9065 3.54578 16.9464C3.1115 17.998 3.23117 19.0263 4.00086 19.9015C4.61524 20.599 5.40533 20.9187 6.26453 20.8517C6.14801 18.9508 6.03787 17.118 5.92371 15.256Z" fill="white"/>
<path d="M28.5087 30.3057C27.0601 32.1706 24.7904 33.2689 22.3614 33.0295C20.0602 32.8025 18.1354 31.4252 17.042 29.4844C18.6541 30.1682 20.3955 30.6223 22.23 30.8036C24.3997 31.0176 26.5175 30.8316 28.508 30.3057H28.5087Z" fill="white"/>
<path d="M17.2661 14.9259C18.7573 14.9095 20.0192 16.1465 20.0171 17.6203C20.0147 19.113 18.7919 20.3266 17.2866 20.3302C15.8201 20.3338 14.6206 19.1289 14.6206 17.6408C14.6206 16.1528 15.7985 14.9426 17.2661 14.9259ZM16.7017 16.2629C16.5051 16.2981 16.2625 16.5268 16.2036 16.7209C16.1696 16.8314 16.455 17.1627 16.6128 17.175C16.8022 17.1891 17.0096 16.9679 17.3755 16.7492C17.0427 16.4965 16.8476 16.2374 16.7017 16.2629Z" fill="white"/>
<path d="M28.1489 14.9259C29.6399 14.9097 30.901 16.1466 30.8989 17.6203C30.8966 19.1131 29.6739 20.3267 28.1685 20.3302C26.702 20.3337 25.5025 19.1288 25.5024 17.6408C25.5024 16.1527 26.6812 14.9424 28.1489 14.9259ZM27.5835 16.2629C27.3869 16.2982 27.1443 16.5268 27.0854 16.7209C27.0516 16.8316 27.3379 17.1632 27.4956 17.175C27.685 17.1888 27.8924 16.9679 28.2583 16.7492C27.9252 16.4963 27.7294 16.237 27.5835 16.2629Z" fill="white"/>
<path d="M52.9167 49.9532C52.5377 49.9532 52.1887 49.8646 51.8698 49.6873C51.551 49.5101 51.2983 49.253 51.1118 48.9162C50.9253 48.5795 50.832 48.1806 50.832 47.7197V47.6045C50.832 47.1436 50.9253 46.7478 51.1118 46.4169C51.2983 46.0801 51.548 45.823 51.8608 45.6458C52.1797 45.4626 52.5316 45.371 52.9167 45.371C53.2235 45.371 53.4822 45.4124 53.6928 45.4951C53.9094 45.5719 54.0839 45.6724 54.2162 45.7965C54.3486 45.9146 54.4509 46.0417 54.5231 46.1776H54.6494V43.625H55.3623V49.8291H54.6674V49.1112H54.5411C54.4208 49.3299 54.2343 49.5248 53.9816 49.6962C53.7289 49.8676 53.3739 49.9532 52.9167 49.9532ZM53.1062 49.3328C53.5634 49.3328 53.9335 49.191 54.2162 48.9074C54.505 48.6179 54.6494 48.2161 54.6494 47.702V47.6222C54.6494 47.1082 54.505 46.7093 54.2162 46.4257C53.9335 46.1362 53.5634 45.9914 53.1062 45.9914C52.655 45.9914 52.282 46.1362 51.9872 46.4257C51.6984 46.7093 51.554 47.1082 51.554 47.6222V47.702C51.554 48.2161 51.6984 48.6179 51.9872 48.9074C52.282 49.191 52.655 49.3328 53.1062 49.3328Z" fill="white"/>
<path d="M56.8564 49.8291V45.4951H57.5693V49.8291H56.8564ZM57.2174 44.8215C57.0609 44.8215 56.9286 44.7713 56.8203 44.6708C56.718 44.5704 56.6669 44.4434 56.6669 44.2897C56.6669 44.1302 56.718 44.0002 56.8203 43.8998C56.9286 43.7993 57.0609 43.7491 57.2174 43.7491C57.3738 43.7491 57.5031 43.7993 57.6054 43.8998C57.7077 44.0002 57.7588 44.1302 57.7588 44.2897C57.7588 44.4434 57.7077 44.5704 57.6054 44.6708C57.5031 44.7713 57.3738 44.8215 57.2174 44.8215Z" fill="white"/>
<path d="M58.8519 47.6843V47.5602C58.8519 47.1052 58.9451 46.7153 59.1316 46.3903C59.3181 46.0653 59.5708 45.8142 59.8897 45.6369C60.2085 45.4597 60.5575 45.371 60.9365 45.371C61.3998 45.371 61.7547 45.4597 62.0014 45.6369C62.2541 45.8083 62.4406 46.0003 62.5609 46.213H62.6873V45.4951H63.3641V50.8395C63.3641 51.0759 63.2979 51.262 63.1656 51.3979C63.0332 51.5338 62.8407 51.6018 62.588 51.6018H59.5919V50.9813H62.3985C62.579 50.9813 62.6692 50.8927 62.6692 50.7155V49.0669H62.5429C62.4707 49.1969 62.3684 49.3239 62.236 49.448C62.1037 49.5721 61.9322 49.6755 61.7216 49.7582C61.5111 49.8351 61.2494 49.8735 60.9365 49.8735C60.5575 49.8735 60.2085 49.7848 59.8897 49.6076C59.5708 49.4303 59.3181 49.1792 59.1316 48.8542C58.9451 48.5233 58.8519 48.1333 58.8519 47.6843ZM61.126 49.253C61.5833 49.253 61.9533 49.1112 62.236 48.8276C62.5248 48.544 62.6692 48.154 62.6692 47.6577V47.5868C62.6692 47.0845 62.5248 46.6946 62.236 46.4169C61.9533 46.1332 61.5833 45.9914 61.126 45.9914C60.6748 45.9914 60.3018 46.1332 60.007 46.4169C59.7182 46.6946 59.5738 47.0845 59.5738 47.5868V47.6577C59.5738 48.154 59.7182 48.544 60.007 48.8276C60.3018 49.1112 60.6748 49.253 61.126 49.253Z" fill="white"/>
<path d="M64.8586 49.8291V45.4951H65.5715V49.8291H64.8586ZM65.2196 44.8215C65.0631 44.8215 64.9308 44.7713 64.8225 44.6708C64.7202 44.5704 64.6691 44.4434 64.6691 44.2897C64.6691 44.1302 64.7202 44.0002 64.8225 43.8998C64.9308 43.7993 65.0631 43.7491 65.2196 43.7491C65.376 43.7491 65.5053 43.7993 65.6076 43.8998C65.7099 44.0002 65.761 44.1302 65.761 44.2897C65.761 44.4434 65.7099 44.5704 65.6076 44.6708C65.5053 44.7713 65.376 44.8215 65.2196 44.8215Z" fill="white"/>
<path d="M68.695 49.8291C68.4424 49.8291 68.2468 49.7612 68.1084 49.6253C67.9761 49.4894 67.9099 49.3033 67.9099 49.0669V46.1067H66.5833V45.4951H67.9099V43.9529H68.6228V45.4951H70.0668V46.1067H68.6228V48.9606C68.6228 49.1378 68.7101 49.2265 68.8846 49.2265H69.8682V49.8291H68.695Z" fill="white"/>
<path d="M72.5488 49.9532C72.242 49.9532 71.9622 49.9 71.7095 49.7937C71.4568 49.6873 71.2583 49.5337 71.1139 49.3328C70.9695 49.1319 70.8973 48.8867 70.8973 48.5972C70.8973 48.3017 70.9695 48.0595 71.1139 47.8704C71.2583 47.6754 71.4568 47.5307 71.7095 47.4361C71.9622 47.3357 72.245 47.2854 72.5578 47.2854H74.0469V46.9664C74.0469 46.6591 73.9536 46.4169 73.7671 46.2396C73.5866 46.0623 73.3159 45.9737 72.9549 45.9737C72.5999 45.9737 72.3232 46.0594 72.1246 46.2307C71.9261 46.3962 71.7907 46.6207 71.7185 46.9043L71.0507 46.6916C71.1229 46.4494 71.2372 46.2307 71.3937 46.0358C71.5501 45.8349 71.7576 45.6753 72.0163 45.5571C72.2811 45.4331 72.5969 45.371 72.9639 45.371C73.5294 45.371 73.9686 45.5158 74.2815 45.8053C74.5943 46.0889 74.7508 46.4907 74.7508 47.0107V48.9694C74.7508 49.1467 74.835 49.2353 75.0035 49.2353H75.4096V49.8291H74.7869C74.5883 49.8291 74.4289 49.776 74.3086 49.6696C74.1882 49.5573 74.1281 49.4096 74.1281 49.2265V49.1821H74.0198C73.9536 49.2944 73.8634 49.4126 73.749 49.5367C73.6408 49.6548 73.4903 49.7523 73.2978 49.8291C73.1053 49.9119 72.8556 49.9532 72.5488 49.9532ZM72.63 49.3505C73.0511 49.3505 73.3911 49.2294 73.6498 48.9872C73.9145 48.739 74.0469 48.3933 74.0469 47.9502V47.8527H72.5849C72.3021 47.8527 72.0675 47.9147 71.881 48.0388C71.7005 48.157 71.6102 48.3372 71.6102 48.5795C71.6102 48.8217 71.7035 49.0108 71.89 49.1467C72.0825 49.2826 72.3292 49.3505 72.63 49.3505Z" fill="white"/>
<path d="M76.386 49.8291V43.625H77.0989V49.8291H76.386Z" fill="white"/>
<path d="M82.6937 49.9532C82.1462 49.9532 81.6829 49.8291 81.3039 49.581C80.9309 49.3328 80.7053 48.9399 80.6271 48.4022L81.3039 48.2515C81.352 48.5351 81.4423 48.7597 81.5746 48.9251C81.707 49.0846 81.8694 49.1999 82.0619 49.2708C82.2605 49.3358 82.4711 49.3683 82.6937 49.3683C83.0246 49.3683 83.2863 49.3033 83.4788 49.1733C83.6713 49.0433 83.7676 48.869 83.7676 48.6504C83.7676 48.4258 83.6743 48.2692 83.4878 48.1806C83.3073 48.0861 83.0577 48.0093 82.7388 47.9502L82.3688 47.8881C82.086 47.8409 81.8273 47.767 81.5927 47.6666C81.358 47.5661 81.1715 47.4302 81.0332 47.2589C80.8948 47.0875 80.8256 46.8718 80.8256 46.6119C80.8256 46.2219 80.979 45.9176 81.2858 45.699C81.5927 45.4803 81.9988 45.371 82.5041 45.371C83.0035 45.371 83.4066 45.4833 83.7134 45.7078C84.0263 45.9264 84.2278 46.2366 84.3181 46.6384L83.6503 46.8068C83.5961 46.4937 83.4668 46.2751 83.2622 46.151C83.0577 46.021 82.805 45.956 82.5041 45.956C82.2033 45.956 81.9657 46.0121 81.7912 46.1244C81.6167 46.2307 81.5295 46.3903 81.5295 46.603C81.5295 46.8098 81.6107 46.9634 81.7732 47.0639C81.9416 47.1584 82.1642 47.2293 82.441 47.2766L82.811 47.3386C83.1238 47.3918 83.4036 47.4657 83.6503 47.5602C83.9029 47.6488 84.1015 47.7788 84.2459 47.9502C84.3963 48.1215 84.4715 48.3461 84.4715 48.6238C84.4715 49.0492 84.309 49.3771 83.9842 49.6076C83.6653 49.838 83.2351 49.9532 82.6937 49.9532Z" fill="white"/>
<path d="M87.7144 49.9532C87.2692 49.9532 86.8751 49.8616 86.5322 49.6785C86.1953 49.4953 85.9305 49.2383 85.738 48.9074C85.5515 48.5706 85.4583 48.1747 85.4583 47.7197V47.6045C85.4583 47.1555 85.5515 46.7625 85.738 46.4257C85.9305 46.0889 86.1953 45.8289 86.5322 45.6458C86.8751 45.4626 87.2692 45.371 87.7144 45.371C88.1596 45.371 88.5507 45.4626 88.8876 45.6458C89.2305 45.8289 89.4952 46.0889 89.6817 46.4257C89.8742 46.7625 89.9705 47.1555 89.9705 47.6045V47.7197C89.9705 48.1747 89.8742 48.5706 89.6817 48.9074C89.4952 49.2383 89.2305 49.4953 88.8876 49.6785C88.5507 49.8616 88.1596 49.9532 87.7144 49.9532ZM87.7144 49.3239C88.1837 49.3239 88.5567 49.1792 88.8334 48.8897C89.1162 48.5942 89.2576 48.1983 89.2576 47.702V47.6222C89.2576 47.1259 89.1162 46.733 88.8334 46.4435C88.5567 46.148 88.1837 46.0003 87.7144 46.0003C87.2511 46.0003 86.8781 46.148 86.5953 46.4435C86.3126 46.733 86.1712 47.1259 86.1712 47.6222V47.702C86.1712 48.1983 86.3126 48.5942 86.5953 48.8897C86.8781 49.1792 87.2511 49.3239 87.7144 49.3239Z" fill="white"/>
<path d="M91.2535 49.8291V43.625H91.9664V49.8291H91.2535Z" fill="white"/>
<path d="M95.1531 49.9089C94.8342 49.9089 94.5394 49.841 94.2687 49.7051C94.004 49.5692 93.7934 49.3683 93.637 49.1024C93.4866 48.8306 93.4114 48.5026 93.4114 48.1186V45.4951H94.1243V48.0654C94.1243 48.4967 94.2326 48.8099 94.4492 49.0049C94.6718 49.1999 94.9696 49.2974 95.3426 49.2974C95.7638 49.2974 96.1097 49.1615 96.3804 48.8897C96.6512 48.6179 96.7865 48.2131 96.7865 47.6754V45.4951H97.4995V49.8291H96.8046V49.0935H96.6782C96.582 49.3003 96.4165 49.4894 96.1819 49.6607C95.9473 49.8262 95.6043 49.9089 95.1531 49.9089Z" fill="white"/>
<path d="M100.616 49.8291C100.363 49.8291 100.167 49.7612 100.029 49.6253C99.8967 49.4894 99.8306 49.3033 99.8306 49.0669V46.1067H98.5039V45.4951H99.8306V43.9529H100.543V45.4951H101.987V46.1067H100.543V48.9606C100.543 49.1378 100.631 49.2265 100.805 49.2265H101.789V49.8291H100.616Z" fill="white"/>
<path d="M103.142 49.8291V45.4951H103.855V49.8291H103.142ZM103.503 44.8215C103.347 44.8215 103.214 44.7713 103.106 44.6708C103.004 44.5704 102.953 44.4434 102.953 44.2897C102.953 44.1302 103.004 44.0002 103.106 43.8998C103.214 43.7993 103.347 43.7491 103.503 43.7491C103.66 43.7491 103.789 43.7993 103.891 43.8998C103.993 44.0002 104.045 44.1302 104.045 44.2897C104.045 44.4434 103.993 44.5704 103.891 44.6708C103.789 44.7713 103.66 44.8215 103.503 44.8215Z" fill="white"/>
<path d="M107.394 49.9532C106.949 49.9532 106.555 49.8616 106.212 49.6785C105.875 49.4953 105.61 49.2383 105.417 48.9074C105.231 48.5706 105.138 48.1747 105.138 47.7197V47.6045C105.138 47.1555 105.231 46.7625 105.417 46.4257C105.61 46.0889 105.875 45.8289 106.212 45.6458C106.555 45.4626 106.949 45.371 107.394 45.371C107.839 45.371 108.23 45.4626 108.567 45.6458C108.91 45.8289 109.175 46.0889 109.361 46.4257C109.554 46.7625 109.65 47.1555 109.65 47.6045V47.7197C109.65 48.1747 109.554 48.5706 109.361 48.9074C109.175 49.2383 108.91 49.4953 108.567 49.6785C108.23 49.8616 107.839 49.9532 107.394 49.9532ZM107.394 49.3239C107.863 49.3239 108.236 49.1792 108.513 48.8897C108.796 48.5942 108.937 48.1983 108.937 47.702V47.6222C108.937 47.1259 108.796 46.733 108.513 46.4435C108.236 46.148 107.863 46.0003 107.394 46.0003C106.931 46.0003 106.558 46.148 106.275 46.4435C105.992 46.733 105.851 47.1259 105.851 47.6222V47.702C105.851 48.1983 105.992 48.5942 106.275 48.8897C106.558 49.1792 106.931 49.3239 107.394 49.3239Z" fill="white"/>
<path d="M110.933 49.8291V45.4951H111.628V46.2307H111.754C111.85 46.0239 112.013 45.8378 112.241 45.6724C112.476 45.501 112.819 45.4153 113.27 45.4153C113.601 45.4153 113.896 45.4833 114.155 45.6192C114.419 45.7551 114.63 45.956 114.786 46.2219C114.943 46.4878 115.021 46.8157 115.021 47.2057V49.8291H114.308V47.2589C114.308 46.8275 114.197 46.5144 113.974 46.3194C113.758 46.1244 113.463 46.0269 113.09 46.0269C112.663 46.0269 112.314 46.1628 112.043 46.4346C111.778 46.7064 111.646 47.1111 111.646 47.6488V49.8291H110.933Z" fill="white"/>
<path d="M121.231 49.9532C120.774 49.9532 120.416 49.8676 120.157 49.6962C119.904 49.5248 119.721 49.3299 119.606 49.1112H119.48V49.8291H118.785V43.625H119.498V46.1776H119.625C119.697 46.0417 119.799 45.9146 119.931 45.7965C120.064 45.6724 120.235 45.5719 120.446 45.4951C120.662 45.4124 120.924 45.371 121.231 45.371C121.616 45.371 121.965 45.4626 122.278 45.6458C122.597 45.823 122.849 46.0801 123.036 46.4169C123.222 46.7478 123.316 47.1436 123.316 47.6045V47.7197C123.316 48.1806 123.219 48.5795 123.027 48.9162C122.84 49.253 122.588 49.5101 122.269 49.6873C121.956 49.8646 121.61 49.9532 121.231 49.9532ZM121.041 49.3328C121.499 49.3328 121.869 49.191 122.151 48.9074C122.44 48.6179 122.585 48.2161 122.585 47.702V47.6222C122.585 47.1082 122.44 46.7093 122.151 46.4257C121.869 46.1362 121.499 45.9914 121.041 45.9914C120.59 45.9914 120.217 46.1362 119.922 46.4257C119.634 46.7093 119.489 47.1082 119.489 47.6222V47.702C119.489 48.2161 119.634 48.6179 119.922 48.9074C120.217 49.191 120.59 49.3328 121.041 49.3328Z" fill="white"/>
<path d="M125.125 51.6018V50.9813H127.652C127.827 50.9813 127.914 50.8927 127.914 50.7155V49.1378H127.788C127.728 49.2619 127.634 49.386 127.508 49.5101C127.388 49.6282 127.228 49.7257 127.03 49.8026C126.831 49.8735 126.581 49.9089 126.281 49.9089C125.962 49.9089 125.667 49.841 125.396 49.7051C125.131 49.5692 124.921 49.3683 124.764 49.1024C124.614 48.8365 124.539 48.5115 124.539 48.1274V45.4951H125.252V48.0743C125.252 48.4997 125.36 48.8099 125.577 49.0049C125.799 49.1999 126.097 49.2974 126.47 49.2974C126.891 49.2974 127.237 49.1615 127.508 48.8897C127.779 48.6179 127.914 48.2131 127.914 47.6754V45.4951H128.627V50.8395C128.627 51.0759 128.558 51.262 128.419 51.3979C128.287 51.5338 128.091 51.6018 127.833 51.6018H125.125Z" fill="white"/>
<path d="M134.214 49.9532C133.667 49.9532 133.204 49.8291 132.825 49.581C132.452 49.3328 132.226 48.9399 132.148 48.4022L132.825 48.2515C132.873 48.5351 132.963 48.7597 133.095 48.9251C133.228 49.0846 133.39 49.1999 133.583 49.2708C133.781 49.3358 133.992 49.3683 134.214 49.3683C134.545 49.3683 134.807 49.3033 135 49.1733C135.192 49.0433 135.288 48.869 135.288 48.6504C135.288 48.4258 135.195 48.2692 135.009 48.1806C134.828 48.0861 134.578 48.0093 134.26 47.9502L133.89 47.8881C133.607 47.8409 133.348 47.767 133.113 47.6666C132.879 47.5661 132.692 47.4302 132.554 47.2589C132.416 47.0875 132.346 46.8718 132.346 46.6119C132.346 46.2219 132.5 45.9176 132.807 45.699C133.113 45.4803 133.52 45.371 134.025 45.371C134.524 45.371 134.927 45.4833 135.234 45.7078C135.547 45.9264 135.749 46.2366 135.839 46.6384L135.171 46.8068C135.117 46.4937 134.987 46.2751 134.783 46.151C134.578 46.021 134.326 45.956 134.025 45.956C133.724 45.956 133.486 46.0121 133.312 46.1244C133.137 46.2307 133.05 46.3903 133.05 46.603C133.05 46.8098 133.131 46.9634 133.294 47.0639C133.462 47.1584 133.685 47.2293 133.962 47.2766L134.332 47.3386C134.645 47.3918 134.924 47.4657 135.171 47.5602C135.424 47.6488 135.622 47.7788 135.767 47.9502C135.917 48.1215 135.992 48.3461 135.992 48.6238C135.992 49.0492 135.83 49.3771 135.505 49.6076C135.186 49.838 134.756 49.9532 134.214 49.9532Z" fill="white"/>
<path d="M139.217 49.9532C138.772 49.9532 138.381 49.8616 138.044 49.6785C137.707 49.4894 137.445 49.2265 137.259 48.8897C137.072 48.5529 136.979 48.1629 136.979 47.7197V47.6134C136.979 47.1643 137.072 46.7714 137.259 46.4346C137.445 46.0978 137.704 45.8378 138.035 45.6546C138.366 45.4656 138.745 45.371 139.172 45.371C139.587 45.371 139.954 45.4597 140.273 45.6369C140.592 45.8083 140.841 46.0564 141.022 46.3814C141.202 46.7064 141.293 47.0875 141.293 47.5247V47.8438H137.692C137.71 48.3106 137.863 48.6769 138.152 48.9428C138.441 49.2028 138.802 49.3328 139.235 49.3328C139.614 49.3328 139.906 49.2471 140.11 49.0758C140.315 48.9044 140.471 48.7006 140.58 48.4642L141.193 48.7567C141.103 48.9399 140.977 49.1231 140.814 49.3062C140.658 49.4894 140.45 49.643 140.192 49.7671C139.939 49.8912 139.614 49.9532 139.217 49.9532ZM137.701 47.2677H140.571C140.547 46.8659 140.405 46.5528 140.147 46.3282C139.894 46.1037 139.569 45.9914 139.172 45.9914C138.769 45.9914 138.438 46.1037 138.179 46.3282C137.921 46.5528 137.761 46.8659 137.701 47.2677Z" fill="white"/>
<path d="M142.536 49.8291V43.625H143.249V49.8291H142.536Z" fill="white"/>
<path d="M144.748 49.8291V45.4951H145.461V49.8291H144.748ZM145.109 44.8215C144.953 44.8215 144.821 44.7713 144.712 44.6708C144.61 44.5704 144.559 44.4434 144.559 44.2897C144.559 44.1302 144.61 44.0002 144.712 43.8998C144.821 43.7993 144.953 43.7491 145.109 43.7491C145.266 43.7491 145.395 43.7993 145.497 43.8998C145.6 44.0002 145.651 44.1302 145.651 44.2897C145.651 44.4434 145.6 44.5704 145.497 44.6708C145.395 44.7713 145.266 44.8215 145.109 44.8215Z" fill="white"/>
<path d="M148.738 49.9532C148.191 49.9532 147.727 49.8291 147.348 49.581C146.975 49.3328 146.75 48.9399 146.672 48.4022L147.348 48.2515C147.397 48.5351 147.487 48.7597 147.619 48.9251C147.752 49.0846 147.914 49.1999 148.106 49.2708C148.305 49.3358 148.516 49.3683 148.738 49.3683C149.069 49.3683 149.331 49.3033 149.523 49.1733C149.716 49.0433 149.812 48.869 149.812 48.6504C149.812 48.4258 149.719 48.2692 149.532 48.1806C149.352 48.0861 149.102 48.0093 148.783 47.9502L148.413 47.8881C148.131 47.8409 147.872 47.767 147.637 47.6666C147.403 47.5661 147.216 47.4302 147.078 47.2589C146.939 47.0875 146.87 46.8718 146.87 46.6119C146.87 46.2219 147.024 45.9176 147.33 45.699C147.637 45.4803 148.043 45.371 148.549 45.371C149.048 45.371 149.451 45.4833 149.758 45.7078C150.071 45.9264 150.272 46.2366 150.363 46.6384L149.695 46.8068C149.641 46.4937 149.511 46.2751 149.307 46.151C149.102 46.021 148.849 45.956 148.549 45.956C148.248 45.956 148.01 46.0121 147.836 46.1244C147.661 46.2307 147.574 46.3903 147.574 46.603C147.574 46.8098 147.655 46.9634 147.818 47.0639C147.986 47.1584 148.209 47.2293 148.486 47.2766L148.856 47.3386C149.168 47.3918 149.448 47.4657 149.695 47.5602C149.947 47.6488 150.146 47.7788 150.29 47.9502C150.441 48.1215 150.516 48.3461 150.516 48.6238C150.516 49.0492 150.354 49.3771 150.029 49.6076C149.71 49.838 149.28 49.9532 148.738 49.9532Z" fill="white"/>
<path d="M153.741 49.9532C153.296 49.9532 152.905 49.8616 152.568 49.6785C152.231 49.4894 151.969 49.2265 151.783 48.8897C151.596 48.5529 151.503 48.1629 151.503 47.7197V47.6134C151.503 47.1643 151.596 46.7714 151.783 46.4346C151.969 46.0978 152.228 45.8378 152.559 45.6546C152.89 45.4656 153.269 45.371 153.696 45.371C154.111 45.371 154.478 45.4597 154.797 45.6369C155.116 45.8083 155.365 46.0564 155.546 46.3814C155.726 46.7064 155.817 47.0875 155.817 47.5247V47.8438H152.216C152.234 48.3106 152.387 48.6769 152.676 48.9428C152.965 49.2028 153.326 49.3328 153.759 49.3328C154.138 49.3328 154.43 49.2471 154.634 49.0758C154.839 48.9044 154.995 48.7006 155.104 48.4642L155.717 48.7567C155.627 48.9399 155.501 49.1231 155.338 49.3062C155.182 49.4894 154.974 49.643 154.716 49.7671C154.463 49.8912 154.138 49.9532 153.741 49.9532ZM152.225 47.2677H155.095C155.07 46.8659 154.929 46.5528 154.67 46.3282C154.418 46.1037 154.093 45.9914 153.696 45.9914C153.293 45.9914 152.962 46.1037 152.703 46.3282C152.444 46.5528 152.285 46.8659 152.225 47.2677Z" fill="white"/>
</svg>
