<svg width="1512" height="109" viewBox="0 0 1512 109" fill="none" xmlns="http://www.w3.org/2000/svg">
<path d="M0 19.5899L6.3 29.1336C15.925 25.7849 41.37 21.0968 66.15 29.1336C90.93 37.1705 114.625 44.5376 123.375 47.2166C139.825 49.8955 176.19 52.8424 190.05 43.1982V54.7512C197.925 53.4117 216.195 49.2258 226.275 43.1982C236.355 37.1705 251.125 32.9846 257.25 31.6452V36.6682C262.675 34.659 274.47 29.5355 278.25 25.1152C282.975 19.5899 289.275 12.0553 289.8 0C293.65 1.84178 302.19 7.03226 305.55 13.0599C309.75 20.5945 320.775 27.6267 332.325 19.5899L329.175 16.576C342.65 16.576 372.75 16.8774 385.35 18.0829C397.95 19.2885 451.15 26.6221 476.175 30.1382C491.925 31.8126 524.265 34.9604 527.625 34.1567C531.48 33.2346 538.431 33.582 539.547 33.2569C539.644 33.1251 539.7 33.0802 539.7 33.1521C539.7 33.1933 539.647 33.2278 539.547 33.2569C539.165 33.7768 538.145 35.6487 537.409 37.0375C539.154 35.1826 548.107 32.7219 574.35 34.1567C603.75 35.7641 617.75 28.7988 621.075 25.1152C649.425 30.808 706.65 42.1935 708.75 42.1935C710.85 42.1935 768.075 49.5607 796.425 53.2442C825.825 55.7558 885.465 60.4774 888.825 59.2719C893.025 57.765 923.475 60.2765 932.925 56.7604C942.375 53.2442 943.425 58.2673 952.35 50.7327C952.175 48.5561 953.19 44.1023 958.65 43.7005C964.11 43.2986 974.925 43.533 979.65 43.7005C981.75 44.0353 985.635 43.0977 984.375 36.6682C983.169 30.5164 981.227 28.7792 980.295 28.6406C980.255 28.6375 980.215 28.6344 980.175 28.6313C980.213 28.6313 980.253 28.6343 980.295 28.6406C993.457 29.6654 1021.4 34.685 1028.98 46.6766C1053.66 44.82 1103.92 40.9826 1111.42 40.1843C1120.88 39.1797 1221.15 40.1843 1221.67 40.1843C1222.2 40.1843 1332.97 42.1935 1333.5 42.6959C1333.92 43.0977 1379.52 43.533 1402.27 43.7005L1400.17 45.7097H1460.55L1512 45.2074V109H0V19.5899Z" fill="black"/>
</svg>
