<svg width="402" height="64" viewBox="0 0 402 64" fill="none" xmlns="http://www.w3.org/2000/svg">
<path d="M0 12.2962L1.675 17.8123C4.23403 15.8769 10.9992 13.1672 17.5875 17.8123C24.1758 22.4575 30.4757 26.7156 32.8021 28.264C37.1757 29.8123 46.8442 31.5156 50.5292 25.9414V32.6188C52.6229 31.8446 57.4804 29.4252 60.1604 25.9414C62.8404 22.4575 66.7674 20.0381 68.3958 19.264V22.1672C69.8382 21.0059 72.9742 18.0446 73.9792 15.4898C75.2354 12.2962 76.9104 7.94137 77.05 0.973633C78.0736 2.03815 80.3442 5.03815 81.2375 8.52202C82.3542 12.8769 85.2854 16.9414 88.3562 12.2962L87.5188 10.5543C91.1014 10.5543 99.1042 10.7285 102.454 11.4252C105.804 12.122 119.949 16.3607 126.602 18.393C130.79 19.3607 139.388 21.1801 140.281 20.7156C141.306 20.1826 143.154 20.3834 143.451 20.1955C143.477 20.1193 143.492 20.0934 143.492 20.1349C143.492 20.1588 143.478 20.1787 143.451 20.1955C143.349 20.496 143.078 21.5779 142.883 22.3806C143.347 21.3085 145.727 19.8863 152.704 20.7156C160.521 21.6446 164.243 17.6188 165.127 15.4898C172.665 18.7801 187.879 25.3607 188.438 25.3607C188.996 25.3607 204.21 29.6188 211.748 31.7478C219.565 33.1994 235.421 35.9285 236.315 35.2317C237.431 34.3607 245.527 35.8123 248.04 33.7801C250.552 31.7478 250.831 34.6511 253.204 30.2962C253.158 29.0381 253.428 26.464 254.879 26.2317C256.331 25.9994 259.206 26.1349 260.462 26.2317C261.021 26.4252 262.054 25.8833 261.719 22.1672C261.398 18.6116 260.882 17.6075 260.634 17.5274C260.623 17.5256 260.613 17.5238 260.602 17.522C260.612 17.522 260.623 17.5238 260.634 17.5274C264.133 18.1197 271.564 21.0209 273.577 27.9518C280.14 26.8788 293.502 24.6608 295.498 24.1994C298.01 23.6188 324.671 24.1994 324.81 24.1994C324.95 24.1994 354.402 25.3607 354.542 25.6511C354.653 25.8833 366.778 26.1349 372.827 26.2317L372.269 27.393H388.321L402 27.1027V63.9736H0V12.2962Z" fill="black"/>
</svg>
