<svg width="276" height="130" viewBox="0 0 276 130" fill="none" xmlns="http://www.w3.org/2000/svg">
<path d="M23.1201 45.4167C10.4693 45.4167 0.711792 36.4166 0.711792 23.0995C0.711792 9.78241 10.4701 0.782349 23.1201 0.782349C35.77 0.782349 45.561 9.64924 45.561 23.0995C45.561 36.5499 35.8337 45.4167 23.1201 45.4167ZM28.683 23.0995C28.683 19.8201 26.2997 17.2438 23.1201 17.2438C19.9413 17.2438 17.5898 19.8201 17.5898 23.0995C17.5898 26.379 19.9413 28.8881 23.1201 28.8881C26.2997 28.8881 28.683 26.379 28.683 23.0995Z" fill="white"/>
<path d="M49.4064 2.52068C49.4064 1.81846 49.8829 1.31641 50.5503 1.31641H66.2836C78.998 1.31641 87.898 7.40587 87.898 16.8419C87.898 22.1955 85.3866 26.0096 81.8904 28.4526C81.6987 28.5868 81.6358 28.7535 81.6358 28.9212C81.6358 29.5899 83.0669 31.0289 85.1647 31.0289C85.9912 31.0289 86.6904 30.9953 87.0404 30.9953C87.7715 30.9953 88.1843 31.4303 88.1843 32.1661V43.5422C88.1843 44.3786 87.7397 44.8471 87.0404 44.9476C85.8329 45.1153 83.9253 45.2485 82.3359 45.2485C75.47 45.2485 68.795 42.5717 65.9025 34.1733C65.8389 33.9721 65.7434 33.9395 65.5851 33.9395C65.4268 33.9395 65.2988 34.0401 65.2988 34.2404V43.6092C65.2988 44.3115 64.8541 44.8136 64.1548 44.8136H50.5511C49.8845 44.8136 49.4072 44.3115 49.4072 43.6092V2.52164L49.4064 2.52068ZM67.6829 22.4954C70.3215 22.4954 71.8783 21.0229 71.8783 18.8481C71.8783 16.6732 70.3215 15.2008 67.6829 15.2008H65.998C65.5852 15.2008 65.2988 15.5016 65.2988 15.903V21.7587C65.2988 22.1937 65.5852 22.4945 65.998 22.4945H67.6829V22.4954Z" fill="white"/>
<path d="M92.4761 2.52068C92.4761 1.81846 92.9208 1.31641 93.62 1.31641H106.112C122.29 1.31641 132.874 9.27987 132.874 23.1651C132.874 37.0504 122.227 44.8136 105.984 44.8136H93.62C92.9208 44.8136 92.4761 44.3115 92.4761 43.6092V2.52164V2.52068ZM109.703 28.8867C113.327 28.8867 116.061 27.1133 116.061 23.0981C116.061 19.0828 113.328 17.3094 109.703 17.3094H109.068C108.654 17.3094 108.368 17.6103 108.368 18.0453V28.15C108.368 28.5849 108.654 28.8857 109.068 28.8857H109.703V28.8867Z" fill="white"/>
<path d="M136.69 2.52068C136.69 1.81846 137.135 1.31641 137.834 1.31641H167.267C167.934 1.31641 168.412 1.81846 168.412 2.52068V12.9263C168.412 13.6621 167.934 14.1641 167.267 14.1641H153.377C152.963 14.1641 152.678 14.465 152.678 14.8664V16.9406C152.678 17.3755 152.963 17.6764 153.377 17.6764H165.868C166.568 17.6764 167.012 18.1784 167.012 18.8807V27.2456C167.012 27.9478 166.568 28.4499 165.868 28.4499H153.377C152.963 28.4499 152.678 28.7507 152.678 29.1857V31.2598C152.678 31.6613 152.963 31.9621 153.377 31.9621H167.775C168.474 31.9621 168.919 32.4642 168.919 33.2V43.6055C168.919 44.3078 168.474 44.8098 167.775 44.8098H137.834C137.134 44.8098 136.69 44.3078 136.69 43.6055V2.51788L136.69 2.52068Z" fill="white"/>
<path d="M172.957 2.52068C172.957 1.81846 173.434 1.31641 174.101 1.31641H189.834C202.549 1.31641 211.449 7.40587 211.449 16.8419C211.449 22.1955 208.937 26.0096 205.441 28.4526C205.249 28.5868 205.187 28.7535 205.187 28.9212C205.187 29.5899 206.618 31.0289 208.715 31.0289C209.542 31.0289 210.241 30.9953 210.591 30.9953C211.322 30.9953 211.735 31.4303 211.735 32.1661V43.5422C211.735 44.3786 211.29 44.8471 210.591 44.9476C209.384 45.1153 207.476 45.2485 205.887 45.2485C199.021 45.2485 192.346 42.5717 189.453 34.1733C189.39 33.9721 189.294 33.9395 189.136 33.9395C188.978 33.9395 188.85 34.0401 188.85 34.2404V43.6092C188.85 44.3115 188.405 44.8136 187.706 44.8136H174.102C173.435 44.8136 172.958 44.3115 172.958 43.6092V2.52164L172.957 2.52068ZM191.234 22.4954C193.872 22.4954 195.429 21.0229 195.429 18.8481C195.429 16.6732 193.872 15.2008 191.234 15.2008H189.549C189.136 15.2008 188.85 15.5016 188.85 15.903V21.7587C188.85 22.1937 189.136 22.4945 189.549 22.4945H191.234V22.4954Z" fill="white"/>
<path d="M25.7277 98.4687C24.0429 95.9593 18.3217 87.5278 17.3997 86.1889C17.2406 85.9549 17.146 85.9214 16.9869 85.9214C16.7641 85.9214 16.7005 86.0555 16.7005 86.2895V100.008C16.7005 100.711 16.2558 101.212 15.5566 101.212H2.46033C1.76189 101.212 1.31641 100.711 1.31641 100.008V58.9206C1.31641 58.2183 1.76189 57.7163 2.46033 57.7163H16.9869C17.5588 57.7163 18.0671 57.95 18.4171 58.5191C20.0384 61.1289 25.7596 70.2969 26.0778 70.7983C26.2687 71.0994 26.3633 71.1664 26.5869 71.1664C26.8096 71.1664 26.9043 71.0994 27.0952 70.7983C27.4126 70.2969 33.1338 61.1289 34.7558 58.5191C35.105 57.95 35.6142 57.7163 36.1869 57.7163H50.7126C51.4119 57.7163 51.8566 58.2183 51.8566 58.9206V100.008C51.8566 100.711 51.4119 101.212 50.7126 101.212H37.6164C36.9172 101.212 36.4725 100.711 36.4725 100.008V86.2895C36.4725 86.0555 36.4089 85.9214 36.1869 85.9214C36.027 85.9214 35.9324 85.9549 35.7733 86.1889C34.8513 87.5278 29.1301 95.9593 27.446 98.4687C27.1278 98.9374 27.0324 99.1051 26.5877 99.1051C26.1422 99.1051 26.0467 98.9374 25.7293 98.4687H25.7277Z" fill="white"/>
<path d="M78.2677 101.815C65.6169 101.815 55.8594 92.8143 55.8594 79.4973C55.8594 66.1803 65.6177 57.1803 78.2677 57.1803C90.9184 57.1803 100.709 66.0469 100.709 79.4973C100.709 92.9477 90.9821 101.815 78.2677 101.815ZM83.8306 79.4973C83.8306 76.2181 81.4473 73.6416 78.2677 73.6416C75.0889 73.6416 72.7374 76.2181 72.7374 79.4973C72.7374 82.7773 75.0889 85.2859 78.2677 85.2859C81.4473 85.2859 83.8306 82.7773 83.8306 79.4973Z" fill="white"/>
<path d="M104.683 58.9195C104.683 58.2172 105.128 57.7151 105.827 57.7151H118.128C118.731 57.7151 119.145 57.8157 119.684 58.4509C121.814 60.9601 131.318 72.2028 131.922 72.9054C132.144 73.1729 132.272 73.2399 132.399 73.2399C132.527 73.2399 132.591 73.1729 132.591 73.0387V58.9185C132.591 58.2162 133.035 57.7142 133.734 57.7142H147.656C148.356 57.7142 148.833 58.2162 148.833 58.9185V100.007C148.833 100.708 148.356 101.211 147.656 101.211H135.261C134.656 101.211 134.053 100.91 133.386 100.173C131.319 97.8979 121.975 87.6923 121.212 86.8556C121.148 86.7885 121.085 86.755 121.021 86.755C120.925 86.755 120.862 86.822 120.862 86.9562V100.005C120.862 100.708 120.384 101.21 119.685 101.21H105.827C105.128 101.21 104.683 100.708 104.683 100.005V58.9176V58.9195Z" fill="white"/>
<path d="M153.473 58.9198C153.473 58.2176 153.918 57.7156 154.617 57.7156H168.443C169.111 57.7156 169.587 58.2176 169.587 58.9198V69.3253C169.587 69.6263 169.747 69.8275 170.065 69.8275H170.096C170.382 69.8275 170.542 69.7605 170.669 69.5265C171.75 67.5528 174.96 61.7643 176.708 58.5519C176.962 58.0835 177.503 57.7156 178.074 57.7156H192.982C193.745 57.7156 194.221 57.9829 194.221 58.4849C194.221 58.8193 194.126 59.1211 193.713 59.8233C192.092 62.6007 186.72 71.9018 184.082 76.4521C183.89 76.7531 183.89 76.8872 183.89 76.9878C183.89 77.0884 183.922 77.2218 184.082 77.5571C185.481 80.4019 193.204 96.1605 194.634 99.0716C194.984 99.7734 195.048 99.9746 195.048 100.309C195.048 100.878 194.667 101.213 193.872 101.213H178.011C177.344 101.213 176.962 100.946 176.708 100.376C174.706 95.8923 171.908 89.6358 170.859 87.294C170.764 87.0928 170.606 86.993 170.35 86.993H170.065C169.747 86.993 169.587 87.1606 169.587 87.4616V100.008C169.587 100.711 169.111 101.213 168.443 101.213H154.617C153.918 101.213 153.473 100.711 153.473 100.008V58.9208V58.9198Z" fill="white"/>
<path d="M197.559 58.9198C197.559 58.2176 198.003 57.7156 198.702 57.7156H228.136C228.802 57.7156 229.28 58.2176 229.28 58.9198V69.3253C229.28 70.0615 228.802 70.5629 228.136 70.5629H214.245C213.832 70.5629 213.546 70.8639 213.546 71.2655V73.3398C213.546 73.775 213.832 74.0752 214.245 74.0752H226.736C227.436 74.0752 227.88 74.5774 227.88 75.28V83.6444C227.88 84.347 227.436 84.8492 226.736 84.8492H214.245C213.832 84.8492 213.546 85.1502 213.546 85.5845V87.6589C213.546 88.0605 213.832 88.3615 214.245 88.3615H228.643C229.343 88.3615 229.787 88.8637 229.787 89.599V100.005C229.787 100.707 229.343 101.209 228.643 101.209H198.702C198.002 101.209 197.558 100.707 197.558 100.005V58.9171L197.559 58.9198Z" fill="white"/>
<path d="M261.989 85.2189C261.797 85.5869 261.733 85.8217 261.733 86.1219V100.007C261.733 100.71 261.289 101.211 260.589 101.211H246.954C246.255 101.211 245.778 100.71 245.778 100.007V86.1219C245.778 85.8217 245.715 85.5199 245.555 85.2189C243.585 81.4718 234.557 63.9382 232.11 59.2878C231.633 58.3843 231.982 57.7156 233.032 57.7156H247.811C248.448 57.7156 249.051 58.1505 249.274 58.6861C249.56 59.3884 253.47 69.0578 253.597 69.3261C253.661 69.4602 253.693 69.5273 253.82 69.5273C253.947 69.5273 253.979 69.4602 254.042 69.3261C254.138 69.0594 257.984 59.4229 258.238 58.7531C258.461 58.1506 259.065 57.7156 259.7 57.7156H274.48C275.53 57.7156 275.815 58.3517 275.339 59.2878C274.035 61.864 263.705 81.9062 261.989 85.2189Z" fill="white"/>
<path d="M5.46646 125.308C4.5238 125.308 3.65672 125.087 2.86361 124.645C2.0713 124.203 1.44286 123.561 0.979082 122.721C0.515309 121.88 0.283813 120.885 0.283813 119.736V119.448C0.283813 118.298 0.515309 117.31 0.979082 116.485C1.44286 115.645 2.06334 115.003 2.84134 114.561C3.63365 114.104 4.50869 113.875 5.46646 113.875C6.22854 113.875 6.8721 113.978 7.39554 114.185C7.93409 114.377 8.36763 114.627 8.69697 114.937C9.02551 115.232 9.28007 115.549 9.45906 115.888H9.77327V109.519H11.5456V124.999H9.81862V123.207H9.50439C9.20529 123.753 8.74152 124.24 8.11308 124.667C7.48544 125.095 6.60243 125.308 5.46646 125.308ZM5.9374 123.761C7.07416 123.761 7.99375 123.407 8.69697 122.699C9.4145 121.976 9.77327 120.974 9.77327 119.691V119.492C9.77327 118.21 9.4145 117.214 8.69697 116.507C7.99375 115.784 7.07416 115.423 5.9374 115.423C4.81575 115.423 3.8882 115.784 3.15555 116.507C2.43722 117.214 2.07845 118.21 2.07845 119.492V119.691C2.07845 120.974 2.43722 121.976 3.15555 122.699C3.8882 123.407 4.81575 123.761 5.9374 123.761Z" fill="white"/>
<path d="M15.2599 124.999V114.185H17.0322V124.999H15.2599ZM16.1572 112.504C15.7682 112.504 15.4396 112.379 15.17 112.128C14.9162 111.878 14.7889 111.561 14.7889 111.177C14.7889 110.779 14.9162 110.455 15.17 110.204C15.4396 109.953 15.7682 109.829 16.1572 109.829C16.5462 109.829 16.8676 109.953 17.1221 110.204C17.3759 110.455 17.5032 110.779 17.5032 111.177C17.5032 111.561 17.3759 111.878 17.1221 112.128C16.8676 112.379 16.5462 112.504 16.1572 112.504Z" fill="white"/>
<path d="M20.2205 119.647V119.337C20.2205 118.202 20.4519 117.229 20.9157 116.418C21.3795 115.608 22.0079 114.981 22.8002 114.539C23.5934 114.096 24.4604 113.875 25.4023 113.875C26.5542 113.875 27.4364 114.096 28.0497 114.539C28.6782 114.966 29.1419 115.446 29.441 115.976H29.7553V114.185H31.4377V127.52C31.4377 128.11 31.2731 128.574 30.9437 128.913C30.6152 129.252 30.1363 129.421 29.5079 129.421H22.0596V127.873H29.0369C29.4856 127.873 29.7099 127.652 29.7099 127.21V123.097H29.3957C29.2167 123.421 28.9621 123.738 28.6328 124.048C28.3043 124.357 27.8779 124.616 27.3544 124.822C26.831 125.013 26.1803 125.109 25.4023 125.109C24.4604 125.109 23.5934 124.888 22.8002 124.446C22.0079 124.003 21.3795 123.377 20.9157 122.566C20.4519 121.741 20.2205 120.767 20.2205 119.647ZM25.874 123.561C27.0108 123.561 27.9304 123.207 28.6328 122.5C29.3511 121.792 29.7099 120.819 29.7099 119.581V119.404C29.7099 118.151 29.3511 117.178 28.6328 116.485C27.9304 115.777 27.0108 115.423 25.874 115.423C24.7524 115.423 23.8248 115.777 23.0922 116.485C22.3739 117.178 22.0151 118.151 22.0151 119.404V119.581C22.0151 120.819 22.3739 121.792 23.0922 122.5C23.8248 123.207 24.7524 123.561 25.874 123.561Z" fill="white"/>
<path d="M35.1527 124.999V114.185H36.9251V124.999H35.1527ZM36.05 112.504C35.661 112.504 35.3325 112.379 35.0628 112.128C34.8082 111.878 34.6818 111.561 34.6818 111.177C34.6818 110.779 34.8082 110.455 35.0628 110.204C35.3325 109.953 35.661 109.829 36.05 109.829C36.439 109.829 36.7604 109.953 37.015 110.204C37.2687 110.455 37.396 110.779 37.396 111.177C37.396 111.561 37.2687 111.878 37.015 112.128C36.7604 112.379 36.439 112.504 36.05 112.504Z" fill="white"/>
<path d="M44.6899 124.999C44.0615 124.999 43.5754 124.829 43.2318 124.49C42.9024 124.151 42.7378 123.686 42.7378 123.097V115.711H39.4404V114.185H42.7378V110.337H44.5101V114.185H48.1002V115.711H44.5101V122.831C44.5101 123.274 44.7273 123.495 45.1608 123.495H47.6062V124.999H44.6899Z" fill="white"/>
<path d="M54.2701 125.308C53.5072 125.308 52.812 125.175 52.1835 124.91C51.5551 124.645 51.0619 124.261 50.7031 123.761C50.3443 123.259 50.1646 122.648 50.1646 121.925C50.1646 121.188 50.3443 120.584 50.7031 120.112C51.0619 119.625 51.5551 119.264 52.1835 119.028C52.812 118.778 53.5144 118.652 54.2924 118.652H57.9938V117.856C57.9938 117.089 57.7623 116.485 57.2985 116.042C56.8499 115.6 56.1769 115.379 55.2796 115.379C54.3974 115.379 53.7093 115.593 53.2153 116.021C52.7221 116.433 52.3856 116.993 52.2058 117.701L50.5456 117.17C50.7254 116.566 51.0094 116.021 51.3984 115.534C51.7874 115.033 52.3036 114.635 52.9464 114.34C53.6043 114.03 54.3894 113.875 55.3019 113.875C56.7075 113.875 57.7997 114.236 58.5777 114.959C59.3549 115.667 59.7439 116.669 59.7439 117.966V122.854C59.7439 123.296 59.9531 123.517 60.3723 123.517H61.3818V124.999H59.8338C59.3398 124.999 58.9436 124.866 58.6445 124.601C58.3454 124.32 58.1959 123.952 58.1959 123.495V123.385H57.927C57.7623 123.665 57.538 123.959 57.254 124.269C56.9843 124.564 56.6104 124.807 56.1324 124.999C55.6535 125.205 55.033 125.308 54.2701 125.308ZM54.4721 123.805C55.519 123.805 56.3638 123.503 57.0066 122.897C57.6653 122.279 57.9938 121.416 57.9938 120.311V120.067H54.36C53.6568 120.067 53.0737 120.222 52.6099 120.532C52.1612 120.826 51.9369 121.276 51.9369 121.88C51.9369 122.485 52.1684 122.957 52.6322 123.296C53.1111 123.635 53.7244 123.805 54.4721 123.805Z" fill="white"/>
<path d="M63.8088 124.999V109.519H65.5812V124.999H63.8088Z" fill="white"/>
<path d="M79.4897 125.308C78.1286 125.308 76.9767 124.999 76.0348 124.379C75.1073 123.761 74.5465 122.78 74.3516 121.438L76.0348 121.063C76.1542 121.77 76.3785 122.331 76.7078 122.743C77.0364 123.141 77.4405 123.428 77.9186 123.606C78.4126 123.768 78.936 123.848 79.4897 123.848C80.3122 123.848 80.9621 123.686 81.441 123.362C81.9199 123.038 82.1593 122.603 82.1593 122.058C82.1593 121.497 81.9271 121.107 81.4633 120.885C81.0146 120.65 80.3941 120.458 79.6018 120.311L78.6815 120.156C77.979 120.038 77.3355 119.854 76.7524 119.603C76.1693 119.352 75.7055 119.013 75.3611 118.586C75.0174 118.158 74.8456 117.62 74.8456 116.972C74.8456 115.998 75.2266 115.239 75.9895 114.694C76.7524 114.148 77.7618 113.875 79.0179 113.875C80.2597 113.875 81.262 114.155 82.0241 114.716C82.8021 115.261 83.3033 116.035 83.5276 117.038L81.8674 117.458C81.733 116.676 81.4116 116.131 80.9025 115.821C80.3942 115.497 79.7657 115.335 79.0179 115.335C78.2702 115.335 77.6799 115.474 77.2456 115.755C76.812 116.021 76.5957 116.418 76.5957 116.949C76.5957 117.465 76.7969 117.848 77.201 118.099C77.6195 118.335 78.1731 118.512 78.8612 118.63L79.7808 118.785C80.5588 118.917 81.2541 119.102 81.8674 119.337C82.4958 119.558 82.9891 119.883 83.3478 120.311C83.7217 120.738 83.9086 121.298 83.9086 121.991C83.9086 123.052 83.5053 123.871 82.6971 124.446C81.9048 125.021 80.8357 125.308 79.4897 125.308Z" fill="white"/>
<path d="M91.9702 125.308C90.8636 125.308 89.8844 125.08 89.0316 124.623C88.194 124.165 87.5361 123.524 87.0572 122.699C86.5934 121.859 86.3619 120.871 86.3619 119.736V119.448C86.3619 118.327 86.5934 117.348 87.0572 116.507C87.5361 115.667 88.194 115.018 89.0316 114.561C89.8844 114.104 90.8636 113.875 91.9702 113.875C93.0775 113.875 94.0496 114.104 94.8872 114.561C95.7392 115.018 96.3971 115.667 96.8609 116.507C97.3398 117.348 97.5792 118.327 97.5792 119.448V119.736C97.5792 120.871 97.3398 121.859 96.8609 122.699C96.3971 123.524 95.7392 124.165 94.8872 124.623C94.0496 125.08 93.0775 125.308 91.9702 125.308ZM91.9702 123.738C93.1372 123.738 94.0639 123.377 94.752 122.655C95.4552 121.918 95.8068 120.929 95.8068 119.691V119.492C95.8068 118.254 95.4552 117.273 94.752 116.551C94.0639 115.814 93.1372 115.446 91.9702 115.446C90.8191 115.446 89.8915 115.814 89.1883 116.551C88.4859 117.273 88.1343 118.254 88.1343 119.492V119.691C88.1343 120.929 88.4859 121.918 89.1883 122.655C89.8915 123.377 90.8191 123.738 91.9702 123.738Z" fill="white"/>
<path d="M100.768 124.999V109.519H102.541V124.999H100.768Z" fill="white"/>
<path d="M110.462 125.198C109.67 125.198 108.937 125.029 108.264 124.689C107.606 124.35 107.082 123.848 106.693 123.186C106.319 122.507 106.132 121.689 106.132 120.731V114.185H107.905V120.598C107.905 121.674 108.174 122.456 108.713 122.942C109.266 123.428 110.006 123.672 110.934 123.672C111.981 123.672 112.841 123.333 113.514 122.655C114.187 121.976 114.523 120.967 114.523 119.625V114.185H116.296V124.999H114.568V123.163H114.254C114.015 123.679 113.604 124.151 113.02 124.578C112.437 124.991 111.584 125.198 110.462 125.198Z" fill="white"/>
<path d="M124.042 124.999C123.414 124.999 122.928 124.829 122.584 124.49C122.255 124.151 122.09 123.686 122.09 123.097V115.711H118.793V114.185H122.09V110.337H123.862V114.185H127.452V115.711H123.862V122.831C123.862 123.274 124.079 123.495 124.513 123.495H126.958V124.999H124.042Z" fill="white"/>
<path d="M130.323 124.999V114.185H132.095V124.999H130.323ZM131.22 112.504C130.831 112.504 130.502 112.379 130.233 112.128C129.979 111.878 129.852 111.561 129.852 111.177C129.852 110.779 129.979 110.455 130.233 110.204C130.502 109.953 130.831 109.829 131.22 109.829C131.609 109.829 131.93 109.953 132.185 110.204C132.439 110.455 132.566 110.779 132.566 111.177C132.566 111.561 132.439 111.878 132.185 112.128C131.93 112.379 131.609 112.504 131.22 112.504Z" fill="white"/>
<path d="M140.891 125.308C139.785 125.308 138.806 125.08 137.953 124.623C137.115 124.165 136.457 123.524 135.978 122.699C135.515 121.859 135.283 120.871 135.283 119.736V119.448C135.283 118.327 135.515 117.348 135.978 116.507C136.457 115.667 137.115 115.018 137.953 114.561C138.806 114.104 139.785 113.875 140.891 113.875C141.999 113.875 142.971 114.104 143.809 114.561C144.661 115.018 145.319 115.667 145.782 116.507C146.261 117.348 146.5 118.327 146.5 119.448V119.736C146.5 120.871 146.261 121.859 145.782 122.699C145.319 123.524 144.661 124.165 143.809 124.623C142.971 125.08 141.999 125.308 140.891 125.308ZM140.891 123.738C142.058 123.738 142.986 123.377 143.673 122.655C144.377 121.918 144.728 120.929 144.728 119.691V119.492C144.728 118.254 144.377 117.273 143.673 116.551C142.986 115.814 142.058 115.446 140.891 115.446C139.74 115.446 138.813 115.814 138.11 116.551C137.407 117.273 137.056 118.254 137.056 119.492V119.691C137.056 120.929 137.407 121.918 138.11 122.655C138.813 123.377 139.74 123.738 140.891 123.738Z" fill="white"/>
<path d="M149.69 124.999V114.185H151.418V116.021H151.731C151.97 115.504 152.374 115.04 152.942 114.627C153.526 114.2 154.378 113.986 155.5 113.986C156.323 113.986 157.056 114.156 157.699 114.495C158.357 114.833 158.88 115.335 159.269 115.998C159.658 116.662 159.852 117.48 159.852 118.453V124.999H158.08V118.586C158.08 117.51 157.804 116.728 157.25 116.242C156.712 115.755 155.979 115.512 155.051 115.512C153.989 115.512 153.122 115.851 152.449 116.529C151.791 117.207 151.462 118.217 151.462 119.559V124.999H149.69Z" fill="white"/>
<path d="M175.289 125.308C174.154 125.308 173.263 125.095 172.62 124.667C171.992 124.24 171.536 123.753 171.252 123.207H170.937V124.999H169.21V109.519H170.983V115.888H171.297C171.476 115.549 171.73 115.232 172.059 114.937C172.388 114.627 172.815 114.377 173.338 114.185C173.877 113.978 174.527 113.875 175.289 113.875C176.247 113.875 177.114 114.104 177.892 114.561C178.685 115.003 179.313 115.645 179.777 116.485C180.241 117.31 180.472 118.298 180.472 119.448V119.736C180.472 120.885 180.233 121.88 179.754 122.721C179.291 123.561 178.662 124.203 177.87 124.645C177.092 125.087 176.232 125.308 175.289 125.308ZM174.819 123.761C175.955 123.761 176.875 123.407 177.578 122.699C178.296 121.976 178.655 120.974 178.655 119.691V119.492C178.655 118.21 178.296 117.214 177.578 116.507C176.875 115.784 175.955 115.423 174.819 115.423C173.697 115.423 172.769 115.784 172.037 116.507C171.319 117.214 170.96 118.21 170.96 119.492V119.691C170.96 120.974 171.319 121.976 172.037 122.699C172.769 123.407 173.697 123.761 174.819 123.761Z" fill="white"/>
<path d="M184.971 129.421V127.873H191.253C191.687 127.873 191.903 127.652 191.903 127.21V123.274H191.589C191.44 123.583 191.208 123.893 190.894 124.203C190.595 124.498 190.199 124.741 189.705 124.933C189.211 125.109 188.591 125.198 187.843 125.198C187.05 125.198 186.317 125.029 185.644 124.689C184.987 124.35 184.463 123.848 184.074 123.186C183.7 122.522 183.513 121.711 183.513 120.753V114.185H185.286V120.62C185.286 121.682 185.555 122.456 186.093 122.942C186.647 123.428 187.387 123.672 188.314 123.672C189.361 123.672 190.221 123.333 190.894 122.655C191.567 121.976 191.903 120.967 191.903 119.625V114.185H193.676V127.52C193.676 128.11 193.504 128.574 193.159 128.913C192.831 129.252 192.345 129.421 191.701 129.421H184.971Z" fill="white"/>
<path d="M207.566 125.308C206.205 125.308 205.053 124.999 204.111 124.379C203.184 123.761 202.623 122.78 202.429 121.438L204.111 121.063C204.23 121.77 204.455 122.331 204.784 122.743C205.113 123.141 205.517 123.428 205.996 123.606C206.489 123.768 207.012 123.848 207.566 123.848C208.388 123.848 209.039 123.686 209.517 123.362C209.996 123.038 210.236 122.603 210.236 122.058C210.236 121.497 210.003 121.107 209.54 120.885C209.092 120.65 208.47 120.458 207.678 120.311L206.758 120.156C206.055 120.038 205.412 119.854 204.829 119.603C204.245 119.352 203.782 119.013 203.438 118.586C203.094 118.158 202.922 117.62 202.922 116.972C202.922 115.998 203.304 115.239 204.066 114.694C204.829 114.148 205.838 113.875 207.095 113.875C208.336 113.875 209.338 114.155 210.101 114.716C210.878 115.261 211.379 116.035 211.604 117.038L209.944 117.458C209.809 116.676 209.488 116.131 208.979 115.821C208.47 115.497 207.843 115.335 207.095 115.335C206.347 115.335 205.756 115.474 205.323 115.755C204.888 116.021 204.672 116.418 204.672 116.949C204.672 117.465 204.874 117.848 205.277 118.099C205.696 118.335 206.249 118.512 206.937 118.63L207.857 118.785C208.635 118.917 209.33 119.102 209.944 119.337C210.572 119.558 211.065 119.883 211.425 120.311C211.799 120.738 211.986 121.298 211.986 121.991C211.986 123.052 211.582 123.871 210.774 124.446C209.981 125.021 208.912 125.308 207.566 125.308Z" fill="white"/>
<path d="M220.002 125.308C218.895 125.308 217.923 125.08 217.086 124.623C216.248 124.151 215.597 123.495 215.133 122.655C214.67 121.814 214.438 120.842 214.438 119.736V119.47C214.438 118.35 214.67 117.369 215.133 116.529C215.597 115.688 216.241 115.04 217.063 114.583C217.886 114.112 218.828 113.875 219.89 113.875C220.921 113.875 221.834 114.096 222.627 114.539C223.419 114.966 224.04 115.585 224.489 116.397C224.938 117.207 225.162 118.158 225.162 119.249V120.046H216.21C216.256 121.21 216.637 122.124 217.354 122.787C218.073 123.436 218.97 123.761 220.047 123.761C220.989 123.761 221.715 123.547 222.223 123.119C222.731 122.692 223.12 122.183 223.39 121.593L224.915 122.323C224.69 122.78 224.377 123.237 223.973 123.694C223.584 124.151 223.068 124.534 222.425 124.844C221.796 125.154 220.989 125.308 220.002 125.308ZM216.233 118.608H223.367C223.307 117.605 222.955 116.824 222.313 116.263C221.684 115.704 220.877 115.423 219.89 115.423C218.888 115.423 218.065 115.704 217.422 116.263C216.779 116.824 216.382 117.605 216.233 118.608Z" fill="white"/>
<path d="M228.254 124.999V109.519H230.026V124.999H228.254Z" fill="white"/>
<path d="M233.752 124.999V114.185H235.524V124.999H233.752ZM234.649 112.504C234.261 112.504 233.932 112.379 233.663 112.128C233.408 111.878 233.281 111.561 233.281 111.177C233.281 110.779 233.408 110.455 233.663 110.204C233.932 109.953 234.261 109.829 234.649 109.829C235.038 109.829 235.36 109.953 235.614 110.204C235.869 110.455 235.995 110.779 235.995 111.177C235.995 111.561 235.869 111.878 235.614 112.128C235.36 112.379 235.038 112.504 234.649 112.504Z" fill="white"/>
<path d="M243.671 125.308C242.31 125.308 241.158 124.999 240.216 124.379C239.289 123.761 238.728 122.78 238.534 121.438L240.216 121.063C240.336 121.77 240.56 122.331 240.889 122.743C241.218 123.141 241.622 123.428 242.101 123.606C242.594 123.768 243.117 123.848 243.671 123.848C244.494 123.848 245.144 123.686 245.622 123.362C246.101 123.038 246.341 122.603 246.341 122.058C246.341 121.497 246.109 121.107 245.645 120.885C245.196 120.65 244.576 120.458 243.783 120.311L242.863 120.156C242.16 120.038 241.517 119.854 240.934 119.603C240.351 119.352 239.887 119.013 239.543 118.586C239.199 118.158 239.027 117.62 239.027 116.972C239.027 115.998 239.408 115.239 240.171 114.694C240.934 114.148 241.943 113.875 243.199 113.875C244.441 113.875 245.443 114.155 246.206 114.716C246.984 115.261 247.485 116.035 247.709 117.038L246.049 117.458C245.914 116.676 245.593 116.131 245.084 115.821C244.576 115.497 243.948 115.335 243.199 115.335C242.452 115.335 241.861 115.474 241.428 115.755C240.993 116.021 240.777 116.418 240.777 116.949C240.777 117.465 240.979 117.848 241.382 118.099C241.802 118.335 242.355 118.512 243.043 118.63L243.962 118.785C244.74 118.917 245.436 119.102 246.049 119.337C246.677 119.558 247.17 119.883 247.529 120.311C247.903 120.738 248.09 121.298 248.09 121.991C248.09 123.052 247.687 123.871 246.879 124.446C246.086 125.021 245.017 125.308 243.671 125.308Z" fill="white"/>
<path d="M256.107 125.308C255 125.308 254.028 125.08 253.191 124.623C252.353 124.151 251.702 123.495 251.238 122.655C250.776 121.814 250.543 120.842 250.543 119.736V119.47C250.543 118.35 250.776 117.369 251.238 116.529C251.702 115.688 252.346 115.04 253.168 114.583C253.991 114.112 254.933 113.875 255.995 113.875C257.026 113.875 257.939 114.096 258.732 114.539C259.524 114.966 260.145 115.585 260.593 116.397C261.042 117.207 261.266 118.158 261.266 119.249V120.046H252.316C252.36 121.21 252.742 122.124 253.46 122.787C254.178 123.436 255.075 123.761 256.151 123.761C257.094 123.761 257.82 123.547 258.328 123.119C258.836 122.692 259.225 122.183 259.495 121.593L261.02 122.323C260.796 122.78 260.481 123.237 260.078 123.694C259.689 124.151 259.173 124.534 258.53 124.844C257.902 125.154 257.094 125.308 256.107 125.308ZM252.338 118.608H259.472C259.412 117.605 259.061 116.824 258.418 116.263C257.789 115.704 256.982 115.423 255.995 115.423C254.992 115.423 254.17 115.704 253.527 116.263C252.884 116.824 252.487 117.605 252.338 118.608Z" fill="white"/>
</svg>
