<svg width="36" height="33" viewBox="0 0 36 33" fill="none" xmlns="http://www.w3.org/2000/svg">
<path d="M21.0901 21.6703C20.9396 22.1662 20.4572 22.1153 20.0599 22.1784C19.9643 22.1934 19.8593 22.1803 19.7647 22.1577C19.4355 22.0777 18.9522 22.0702 18.9834 21.6383C19.0146 21.2177 19.4857 21.1913 19.8489 21.148C19.9095 21.1415 19.9719 21.1462 20.0334 21.1462H20.0476C20.0703 21.1462 20.0921 21.1471 20.1138 21.148C20.1356 21.149 20.1573 21.1499 20.1791 21.1509C20.1999 21.1527 20.2217 21.1537 20.2425 21.1556C20.5007 21.1781 20.7306 21.245 20.8857 21.3362C20.8961 21.3419 20.9056 21.3475 20.9151 21.3532C20.9349 21.3663 20.9529 21.3795 20.969 21.3927C20.9775 21.3993 20.9851 21.4059 20.9926 21.4124C21.0286 21.4444 21.0569 21.4793 21.074 21.5141C21.0778 21.5207 21.0806 21.5263 21.0825 21.5329C21.0853 21.5385 21.0872 21.5432 21.0882 21.547C21.0901 21.5527 21.0919 21.5583 21.0929 21.5649C21.0948 21.5696 21.0957 21.5743 21.0957 21.579C21.0967 21.5828 21.0976 21.5875 21.0976 21.5912C21.1005 21.6176 21.0976 21.6439 21.0901 21.6703Z" fill="#E3051B"/>
<path d="M16.9501 21.6658C16.7997 22.1579 16.3258 22.1269 15.9238 22.1787C15.8282 22.1918 15.7223 22.1805 15.6286 22.1551C15.3089 22.0667 14.8226 22.093 14.8529 21.6376C14.8822 21.1897 15.359 21.2066 15.71 21.1455C15.7743 21.1351 15.8424 21.1445 15.9086 21.1445C16.5084 21.1427 17.0324 21.3939 16.9501 21.6658Z" fill="#E3051B"/>
<path d="M17.8605 0.983289C23.6347 0.92401 28.7058 4.52415 30.5949 10.0136C30.75 10.4651 30.9389 10.604 31.424 10.5966C33.8088 10.5589 35.8096 12.3918 35.9865 14.7235C36.1662 17.0834 34.5061 19.2241 32.1828 19.5751C31.6806 19.6513 31.1506 19.6081 30.6408 19.5526C30.3685 19.5235 30.2151 19.5365 30.0969 19.8065C29.5577 21.0306 28.8078 22.1203 27.9338 23.1317C27.807 23.2795 27.7225 23.5093 27.7121 23.705C27.4784 28.2617 24.3268 31.899 19.8205 32.7977C14.6517 33.8281 9.34863 30.1803 8.55586 24.9891C8.41586 24.0717 8.117 23.349 7.50118 22.6386C6.82586 21.8576 6.33766 20.9111 5.8127 20.0116C5.63588 19.7078 5.51134 19.559 5.1125 19.5956C3.23961 19.7668 1.73819 19.0771 0.732621 17.4852C-0.204836 16.0014 -0.241583 14.4314 0.61641 12.9061C1.45073 11.4232 2.76125 10.6165 4.48946 10.5985C4.90663 10.5948 5.04162 10.4529 5.175 10.0888C6.91271 5.32593 10.2581 2.34837 15.2307 1.20692C15.7158 1.09498 16.2156 1.03435 16.7121 0.990125C17.0923 0.955322 17.4785 0.98327 17.8605 0.983289ZM25.2404 9.12196C22.8594 7.93071 20.5211 8.20358 18.3889 9.81825C18.0521 10.0732 17.8766 10.0626 17.5578 9.81141C15.8107 8.43503 13.8301 8.08869 11.715 8.70399C9.13443 9.45487 7.42017 11.689 7.21016 14.4423C7.02016 16.93 8.54494 19.4311 10.9201 20.5292C11.1708 20.6449 11.4224 20.7581 11.6711 20.871C10.0415 24.6468 11.642 27.8981 13.7277 29.4657C16.1455 31.2844 19.4216 31.3764 21.9104 29.6933C23.1628 28.8455 24.042 27.703 24.551 26.287C25.2037 24.4672 25.065 22.6744 24.2609 20.8612C24.4727 20.7728 24.6253 20.7122 24.7756 20.6454C27.1859 19.5793 28.5722 17.7341 28.716 15.1239C28.8635 12.4263 27.6705 10.3376 25.2404 9.12196ZM31.1906 12.871L31.4816 17.3427C32.2197 17.402 33.678 17.0447 33.6066 15.1405C33.5351 13.236 31.9661 12.8339 31.1906 12.871ZM4.44063 12.8632C3.55141 12.9544 2.87478 13.3839 2.5295 14.2157C2.18065 15.0568 2.27715 15.879 2.89571 16.579C3.38949 17.1369 4.02451 17.3924 4.71504 17.3388C4.6214 15.8184 4.53238 14.3525 4.44063 12.8632Z" fill="#E3051B"/>
<path d="M22.5907 24.8991C21.4265 26.3908 19.6024 27.2693 17.6502 27.0779C15.8007 26.8963 14.2538 25.7946 13.375 24.2422C14.6706 24.7892 16.0702 25.1524 17.5446 25.2974C19.2884 25.4686 20.9904 25.3198 22.5902 24.8991H22.5907Z" fill="#E3051B"/>
<path d="M13.5566 12.6017C14.755 12.5887 15.7685 13.5791 15.7666 14.7579C15.7645 15.9518 14.782 16.9221 13.5723 16.9249C12.3936 16.9277 11.4297 15.9638 11.4297 14.7736C11.4297 13.5833 12.377 12.6149 13.5566 12.6017ZM13.1523 13.4767C12.8311 13.4767 12.5703 13.7353 12.5703 14.0548C12.5703 14.3743 12.8312 14.6329 13.1523 14.6329C13.4733 14.6327 13.7334 14.3741 13.7334 14.0548C13.7334 13.7355 13.4733 13.4769 13.1523 13.4767Z" fill="#E3051B"/>
<path d="M22.3042 12.6017C23.5026 12.5887 24.5161 13.5791 24.5142 14.7579C24.5121 15.9518 23.5296 16.9221 22.3198 16.9249C21.1412 16.9277 20.1773 15.9638 20.1772 14.7736C20.1772 13.5833 21.1246 12.6149 22.3042 12.6017ZM21.8999 13.4767C21.5787 13.4767 21.3179 13.7353 21.3179 14.0548C21.3179 14.3743 21.5787 14.6329 21.8999 14.6329C22.2209 14.6327 22.4809 14.3741 22.481 14.0548C22.481 13.7355 22.2209 13.4769 21.8999 13.4767Z" fill="#E3051B"/>
</svg>
