<svg width="134" height="141" viewBox="0 0 134 141" fill="none" xmlns="http://www.w3.org/2000/svg">
<path d="M73.9851 26.3548C74.4008 26.6685 74.7681 26.937 75.1279 27.2171C75.7831 27.7283 76.4637 28.1001 77.2827 28.3874C78.2173 28.7163 79.0505 29.5226 79.7664 30.2755C84.2298 34.9773 89.0616 39.2248 94.6272 42.5531C95.7931 43.2499 97.1254 43.6816 98.4147 44.1384C98.8131 44.2798 99.3218 44.0985 99.7806 44.0652C99.5696 43.6364 99.4607 43.0908 99.1324 42.7967C97.261 41.1227 95.3149 39.5346 93.4401 37.8633C92.4155 36.9495 91.3408 36.0328 90.5459 34.9299C89.6367 33.667 89.0293 32.1873 88.26 30.8183C86.8716 28.3474 85.4789 25.878 84.0463 23.433C83.6688 22.7893 83.5152 22.1845 83.6786 21.4455C84.2653 18.8035 85.7041 16.6345 87.3873 14.6127C88.2772 13.5446 89.2635 12.5595 90.3538 11.3778C90.8683 12.2972 91.3428 13.0198 91.6977 13.7968C93.4301 17.5951 95.3217 21.3071 97.5583 24.8291C98.8073 26.7955 100.123 28.7158 101.902 30.2533C102.099 30.4238 102.316 30.5708 102.633 30.6506C102.441 30.2729 102.255 29.8937 102.06 29.5188C99.614 24.8151 98.0159 19.8081 96.9861 14.6206C96.5563 12.4575 97.4719 10.5594 98.8651 9.00928C101.549 6.02587 104.355 3.15223 107.112 0.235502C107.141 0.204668 107.192 0.19719 107.302 0.148777C107.428 0.362039 107.54 0.596415 107.693 0.80024C108.877 2.37576 108.792 4.1481 108.665 6.00064C108.547 7.73384 108.691 9.48847 108.778 11.2321C108.858 12.8535 109.006 14.4714 109.141 16.0888C109.171 16.4497 109.222 16.8203 109.339 17.1602C109.845 18.6227 110.409 20.0642 110.895 21.5328C112.174 25.4046 114.524 28.6781 116.607 32.1052C117.792 34.0558 119.475 34.9223 121.674 34.6947C123.197 34.537 124.513 34.8089 125.689 35.8435C126.171 36.2678 126.821 36.4916 127.342 36.8769C128.97 38.0776 129.751 39.6848 129.436 41.7355C129.373 42.1508 129.164 42.5573 128.959 42.9331C128.399 43.9578 128.54 44.5779 129.186 45.5356C130.588 47.6124 132.156 49.6309 132.354 52.2934C132.375 52.5564 132.441 52.827 132.541 53.0714C133.656 55.8084 133.327 58.6488 133.184 61.4852C133.116 62.8213 132.698 63.9686 131.941 65.0607C131.65 65.4814 131.552 66.1159 131.553 66.653C131.555 68.3588 130.79 69.804 130.055 71.2361C129.551 72.2167 128.791 73.0601 128.207 74.0031C127.687 74.8414 127.145 75.6928 126.796 76.6095C126.232 78.0888 125.123 79.0678 124.02 80.0755C122.405 81.5518 120.621 82.813 119.2 84.5384C117.871 86.1501 116.252 87.5241 114.721 88.9593C112.904 90.6612 111.127 92.3802 109.697 94.4515C109.016 95.4361 108.115 96.264 107.308 97.158C106.598 97.9429 105.807 98.6456 105.466 99.7252C105.181 100.624 104.512 101.273 103.755 101.816C102.627 102.626 101.59 103.648 100.348 104.194C98.6845 104.925 97.5563 106.159 96.342 107.399C95.0753 108.692 93.8147 110.145 92.2597 110.958C90.6082 111.821 89.4556 113.212 87.961 114.215C86.8724 114.945 86.1599 116.251 85.2924 117.312C85.0958 117.553 85.0082 117.902 84.7828 118.099C83.498 119.227 82.1878 120.326 80.8856 121.435C79.6053 122.525 78.3438 123.638 77.041 124.7C75.2269 126.178 73.3956 127.638 71.5465 129.072C70.2592 130.07 68.9036 130.982 67.6273 131.992C66.4029 132.963 65.2574 134.034 64.0411 135.015C63.5792 135.388 63.0122 135.629 62.4927 135.93C62.3063 136.038 62.0538 136.104 61.9466 136.266C60.9714 137.726 59.4541 138.175 57.8902 138.609C56.9472 138.871 56.0586 139.33 55.1375 139.679C54.4649 139.933 53.7799 140.153 53.0974 140.378C53.0107 140.406 52.8938 140.412 52.8133 140.378C52.2391 140.128 51.6185 139.94 51.1094 139.59C49.4678 138.458 47.9163 137.187 46.2403 136.113C42.7705 133.887 39.235 131.767 35.7448 129.576C33.4455 128.132 32.0293 125.973 31.0063 123.493C30.268 121.703 29.467 119.939 28.6549 118.182C28.5149 117.879 28.2211 117.589 27.9257 117.428C26.3567 116.577 24.8995 115.622 24.1014 113.913C24.0369 113.777 23.7613 113.667 23.5861 113.67C21.9649 113.69 21.0869 112.469 20.0806 111.504C19.8546 111.286 19.7514 110.726 19.8562 110.416C20.0671 109.791 19.7776 109.41 19.4803 108.963C18.668 107.744 18.681 106.917 19.5196 105.901C19.11 105.214 19.1747 104.528 19.7316 103.813C18.8909 103.268 18.1236 102.675 17.2794 102.24C13.9801 100.544 10.6843 98.8355 7.3318 97.2524C4.88113 96.0952 2.55694 94.7513 0.296021 93.1802C0.758378 92.3122 1.42576 91.7009 2.24908 91.2814C2.43719 91.1851 2.75417 91.2743 2.98835 91.3496C4.86703 91.9608 6.74387 92.579 8.61291 93.2203C9.15336 93.4063 9.52108 93.2428 9.89427 92.8536C10.0545 92.6865 10.385 92.5248 10.5805 92.5789C12.275 93.047 13.9697 93.5224 15.6373 94.0807C16.9779 94.5301 17.1583 94.8753 17.1293 96.3406C20.2371 97.8585 23.5041 98.987 26.6719 99.7985C27.2819 99.2833 27.7321 98.7878 28.2793 98.4605C29.9423 97.4707 30.5431 95.6344 29.7538 93.8403C29.3632 92.9521 28.6991 92.3309 27.9084 91.8516C25.4232 90.3424 22.8136 89.126 19.9884 88.3963C19.2739 88.2117 18.5943 87.8763 17.9115 87.5769C16.9043 87.1367 15.9317 86.6018 14.9039 86.2245C13.029 85.5358 11.1234 84.9349 9.15696 84.2729C9.6189 83.3103 10.275 82.6894 11.254 82.3931C11.9866 82.1707 12.6946 81.8675 13.4266 81.6419C13.6774 81.5644 13.9845 81.5516 14.2348 81.6215C15.4103 81.9497 16.5761 82.3172 17.7943 82.6857C17.8047 82.4262 17.805 82.2362 17.8215 82.0481C17.8722 81.4661 18.2411 81.1491 18.7486 81.3447C19.3781 81.588 20.1038 81.881 20.4954 82.385C21.5578 83.7562 22.8875 84.7018 24.4491 85.3411C25.877 85.9254 27.3377 86.4221 28.77 86.9954C30.9832 87.8827 33.1625 88.8585 35.3968 89.6881C36.8554 90.2292 38.3693 90.648 39.888 90.9811C40.5393 91.1251 41.2944 91.0206 41.9536 90.8457C43.7275 90.3758 44.2056 88.6393 42.9376 87.3021C42.343 86.6756 41.687 86.0719 40.9629 85.614C39.0165 84.3851 37.4235 82.7865 35.9562 81.0354C34.8706 79.7404 33.5885 78.6862 32.0701 77.949C29.0559 76.4846 26.0337 75.0359 23.0143 73.5813C22.7589 73.4578 22.4999 73.3391 22.0958 73.1483C23.3828 72.2152 24.5704 71.3316 25.7908 70.4945C25.9718 70.3703 26.3077 70.4295 26.5626 70.4678C27.1101 70.5477 27.6495 70.6806 28.1968 70.7719C28.8268 70.8771 29.3785 70.7695 29.8123 70.2201C30.5128 69.3312 31.4549 69.1127 32.4757 69.4881C33.8636 70.0001 34.9608 70.856 35.7348 72.2027C36.1908 72.9958 36.9007 73.6847 37.6152 74.2713C41.4405 77.4118 45.6811 79.8076 50.3667 81.3956C50.8669 81.5655 51.161 81.4515 51.5839 81.1657C52.4775 80.5654 53.4403 80.0605 54.4091 79.5844C55.946 78.8312 56.4666 78.0562 56.2203 76.515C56.1604 76.1424 55.893 75.6675 55.581 75.4906C52.0527 73.5047 48.5504 71.4626 44.9366 69.6473C40.996 67.6669 36.9454 65.9084 32.9421 64.0526C32.7682 63.9719 32.5952 63.8924 32.3168 63.7631C32.9212 63.1091 33.4798 62.4955 34.0476 61.8912C34.7586 61.1334 35.4625 60.3665 36.2067 59.6417C36.3724 59.4815 36.7015 59.4121 36.9461 59.4325C37.2742 59.4607 37.5991 59.5975 37.9125 59.7174C38.8657 60.0818 39.6903 60.1953 40.7311 59.63C42.489 58.6742 44.8087 59.4764 46.2577 61.27C47.5905 62.9202 49.0606 64.4067 50.8777 65.5155C54.9006 67.9698 59.0726 70.13 63.428 71.9223C64.495 72.3613 65.5705 72.7805 66.5267 73.1629C67.3176 72.0603 68.0682 71.0403 68.7845 69.9954C68.9046 69.8194 68.9638 69.521 68.9111 69.3175C68.6129 68.1732 68.3045 67.0277 67.922 65.9098C67.8288 65.6382 67.4684 65.4255 67.1882 65.2586C60.1629 61.0775 53.1323 56.9062 46.1032 52.7319C45.8999 52.6114 45.701 52.48 45.4132 52.2987C46.2386 51.4235 47.1163 50.6572 47.7882 49.7391C48.6739 48.5292 49.6383 48.332 50.8946 49.0477C51.2442 49.2466 51.6588 49.3286 52.1088 49.4863C52.1604 49.2535 52.2027 49.0559 52.233 48.9182C53.3329 48.983 54.4226 49.0466 55.6236 49.1181C55.5945 49.0669 55.6612 49.1402 55.6822 49.2258C56.0366 50.6322 56.9355 51.5832 58.1257 52.3369C63.8779 55.9831 69.9045 59.0342 76.398 61.1078C77.6336 61.5032 78.8332 62.015 80.0435 62.4698C80.6638 61.3212 80.3598 59.7722 79.2462 59.041C77.1511 57.6649 75.0643 56.2523 72.856 55.082C68.0056 52.5128 63.5452 49.3289 58.9638 46.3364C58.7323 46.1846 58.5453 45.9414 58.3805 45.7101C58.0015 45.1774 57.7118 44.5659 57.2708 44.0976C56.7261 43.5205 56.7266 42.9805 57.056 42.3285C57.709 41.0384 58.5365 39.8954 59.6405 38.9522C60.1165 38.5459 60.5797 38.4736 61.0793 38.8356C61.7451 39.3178 62.4334 39.3727 63.1979 39.0969C64.4296 38.6527 65.4288 39.1533 66.2585 40.0256C70.3021 44.2719 75.314 47.127 80.3221 49.9702C81.5661 50.6772 82.9956 51.0518 84.3391 51.5825C84.6079 51.6878 84.871 51.807 85.1401 51.9103C86.1058 52.2813 87.0497 52.7349 88.0448 52.9858C88.6948 53.1494 89.4454 53.1379 90.1015 52.9896C91.2037 52.7399 91.4162 52.0846 90.6152 51.3289C89.6565 50.4238 88.5752 49.6445 87.5086 48.8628C86.9081 48.4214 86.2539 48.0434 85.5876 47.7086C81.7175 45.7593 78.4166 43.0242 75.2094 40.1454C74.0064 39.0651 72.693 38.1121 71.4748 37.0478C69.603 35.4133 69.0985 33.3006 70.2885 31.0847C71.0212 29.7198 72.1352 28.5638 73.0933 27.324C73.3537 26.9931 73.6709 26.697 73.9851 26.3548Z" fill="#E3051B"/>
</svg>
