<svg width="30" height="30" viewBox="0 0 30 30" fill="none" xmlns="http://www.w3.org/2000/svg">
<path d="M12.2466 2.83035C11.7005 2.93449 11.1356 3.1028 10.5719 3.32087C10.0082 3.53894 9.44686 3.80992 8.90101 4.10932C8.35508 4.40921 7.82478 4.74004 7.31719 5.07837C6.80911 5.41663 6.32367 5.76287 5.8563 6.09188C4.72426 6.86868 3.68187 7.89006 2.81618 9.03625C1.94653 10.1823 1.2543 11.4453 0.707438 12.6912C0.829586 12.744 1.10542 12.6223 1.07537 12.853C0.994563 13.3035 1.0178 13.5499 1.09723 13.6993C1.17439 13.8473 1.29965 13.8961 1.42393 13.9448C1.48676 13.9695 1.54318 13.8195 1.59317 13.6951C1.64503 13.5714 1.68651 13.4732 1.70666 13.5974C1.76957 13.4504 1.8423 13.2784 1.92478 13.1174C2.00717 12.9569 2.09031 12.8045 2.16062 12.6902C2.30726 12.4645 2.39931 12.393 2.31954 12.7076C2.33421 12.832 2.2262 13.0717 2.12558 13.315C2.03195 13.5614 1.94344 13.8101 1.99879 13.9447C2.05406 14.0799 2.16675 14.0682 2.27825 14.0578C2.3903 14.047 2.50157 14.0382 2.55778 14.1704C2.48477 14.3604 2.33549 14.7389 2.2719 14.9324C2.33121 15.1673 2.71725 14.8788 2.65029 15.0682C2.61049 15.3719 2.5199 15.7084 2.40918 16.0658C2.35715 16.2455 2.297 16.4295 2.24013 16.6179C2.18611 16.8073 2.13107 17.0001 2.07991 17.1935C2.145 17.21 2.19683 17.277 2.25381 17.2913C2.28202 17.2987 2.31185 17.2922 2.34462 17.2602C2.37758 17.2303 2.41333 17.1757 2.45473 17.0845C2.68687 16.2517 2.9668 15.4348 3.2964 14.6441C3.37537 14.4445 3.46677 14.2513 3.55305 14.0559C3.5955 13.9578 3.643 13.8625 3.68967 13.766L3.82898 13.4781C4.02399 13.0997 4.223 12.7244 4.44278 12.3627C5.30829 10.9077 6.39684 9.61558 7.66643 8.55259C7.98469 8.28773 8.31287 8.03591 8.65083 7.79811C8.98879 7.56031 9.33898 7.33991 9.69571 7.13203C10.4105 6.71698 11.1596 6.36027 11.9343 6.06405C12.708 5.7667 13.5068 5.52977 14.3153 5.34939C14.7197 5.25847 15.1269 5.18451 15.533 5.12439C15.9379 5.0651 16.3476 5.02055 16.7344 4.99801C16.8226 4.98707 16.8881 4.97561 16.935 4.96132C16.9585 4.95441 16.9775 4.94684 16.9907 4.93885C16.9988 4.9346 17.0034 4.93079 17.007 4.92635C17.0089 4.92413 17.0107 4.92191 17.0125 4.91969C17.0123 4.91766 17.0093 4.91518 17.0087 4.91259C17.0338 4.89444 17.042 4.87367 17.036 4.85122C17.0328 4.83972 17.0267 4.82776 17.0167 4.81521C17.0063 4.8086 17.022 4.80351 17.0145 4.79686C17.0115 4.79088 17.0075 4.78426 17.0036 4.77765C16.9191 4.67403 16.6355 4.5583 16.3439 4.47585C16.5371 4.53262 16.5289 4.33063 16.7208 4.39222C16.7184 4.29124 16.6221 4.15777 16.4189 4.0499C16.2167 3.94267 15.9069 3.86144 15.4996 3.87482C15.7011 3.85177 15.9026 3.83173 16.1043 3.81674C16.3018 3.73552 16.0911 3.61498 16.0804 3.48068C15.8736 3.4964 15.668 3.5173 15.6614 3.45021C15.6549 3.38312 15.6411 3.24936 15.6346 3.18227C15.7397 3.17142 15.8976 3.15669 16.0561 3.14455C16.2145 3.1329 16.3736 3.12385 16.4796 3.11966C16.2674 3.12853 16.0565 3.14512 16.0515 3.07776C16.0464 3.01041 16.0367 2.87627 16.0322 2.80899C15.8136 2.79135 15.545 2.83409 15.2791 2.88427C15.0134 2.93396 14.7502 2.99004 14.5325 2.99257L14.5 2.79334C14.7097 2.7235 14.9804 2.68359 15.2528 2.65845C15.5251 2.63331 15.7991 2.62393 16.0179 2.60756C15.7939 2.55755 15.7872 2.49144 15.776 2.35707C15.44 2.35339 15.1123 2.42709 14.7871 2.49214C14.4612 2.5576 14.1371 2.61532 13.792 2.58272L14.1182 2.51831C14.2275 2.4991 14.3362 2.47828 14.4458 2.46062C14.1997 2.33113 13.8085 2.38503 13.4033 2.49434C12.9956 2.60377 12.5775 2.76815 12.2466 2.83035Z" fill="#E3051B"/>
<path d="M29.9448 23.4536C29.9724 23.935 29.8661 24.3937 29.7439 24.8549C29.6632 25.1592 29.6351 25.4777 29.5873 25.7902C29.5158 26.2578 29.3157 26.6641 29.019 27.0286C28.944 27.1212 28.8843 27.2281 28.8275 27.3337C28.6485 27.6673 28.4926 28.0142 28.295 28.336C27.9045 28.9699 27.3063 29.2949 26.5879 29.4261C26.5132 29.4399 26.4333 29.4798 26.3769 29.531C25.9572 29.9133 25.5258 30.285 25.1321 30.6934C24.7705 31.0684 24.3837 31.3195 23.8422 31.3695C23.1632 31.4324 22.526 31.6713 21.9432 32.0358C21.7001 32.1877 21.431 32.2922 21.1538 32.2458C20.4188 32.1235 19.6984 32.2597 18.9723 32.3149C18.1321 32.3791 17.3293 32.2426 16.5712 31.859C16.2696 31.7067 15.9522 31.5856 15.6499 31.4353C15.33 31.2764 15.0204 31.098 14.7046 30.9307C14.3884 30.7628 14.0751 30.5877 13.7525 30.4333C13.2995 30.2168 12.8705 29.9738 12.4752 29.6553C12.0283 29.2953 11.5368 28.991 11.0632 28.6651C10.4982 28.2767 9.97101 27.8473 9.51807 27.3264C9.333 27.1139 9.10652 26.9367 8.89385 26.7494C8.74449 26.6178 8.68442 26.4626 8.70431 26.2627C8.71365 26.1697 8.70147 26.06 8.65845 25.9791C8.35973 25.4204 8.14503 24.8313 7.98512 24.2194C7.95184 24.0923 7.89989 23.957 7.8175 23.8582C7.15026 23.059 7.07274 22.0977 7.05812 21.1198C7.05691 21.0503 7.11332 20.9703 7.16243 20.9114C7.32315 20.7196 7.45181 20.5294 7.5062 20.2657C7.55531 20.0289 7.60767 19.8221 7.54922 19.5718C7.46318 19.2033 7.63648 18.8823 7.87391 18.606C8.19657 18.231 8.37353 17.7841 8.47662 17.3144C8.51031 17.1604 8.39788 16.9756 8.35851 16.8033C8.33782 16.7131 8.29033 16.6005 8.32361 16.5315C8.45268 16.2662 8.60893 16.0138 8.75707 15.7579C8.80415 15.6766 8.86422 15.6023 8.90562 15.5186C9.12763 15.0725 9.38048 14.6454 9.79081 14.348C9.9491 14.233 10.1496 14.1733 10.3359 14.1014C10.4357 14.0628 10.5457 14.0498 10.6516 14.0287C10.9487 13.9694 11.1959 13.858 11.3144 13.5407C11.3643 13.4066 11.4727 13.288 11.5742 13.1807C11.8603 12.878 12.1525 12.5806 12.45 12.2893C12.6302 12.113 12.8506 12.0273 13.1092 12.0191C13.4371 12.0086 13.7508 11.9338 14.0357 11.7571C14.0946 11.7205 14.1733 11.7059 14.2444 11.701C14.5926 11.6774 14.9226 11.6295 15.1969 11.3674C15.3126 11.2569 15.5281 11.2496 15.6397 11.1371C15.8849 10.8904 16.1682 10.8518 16.4937 10.8307C16.7246 10.8157 16.96 10.7031 17.171 10.5918C17.3894 10.476 17.6025 10.4102 17.8484 10.4403C18.0428 10.4638 18.2385 10.478 18.4341 10.4845C18.6736 10.4923 18.9057 10.4687 19.0944 10.2887C19.1464 10.2391 19.2203 10.205 19.2901 10.1843C19.5758 10.099 19.8493 10.0214 20.0685 9.77759C20.2309 9.59719 20.463 9.66789 20.7061 9.86006C20.7788 9.91776 20.8985 9.95758 20.9882 9.94457C21.392 9.88607 21.8016 9.88119 22.1664 10.0502C22.7156 10.3046 23.2671 10.5747 23.7615 10.9193C24.3285 11.3142 24.656 11.9094 24.796 12.5904C24.833 12.7708 24.921 12.8594 25.0899 12.8992C25.3553 12.9613 25.5838 12.9821 25.8005 12.7334C26.1021 12.3876 26.4881 12.3885 26.8404 12.681C27.1951 12.976 27.4772 13.338 27.6578 13.7552C27.8936 14.2997 28.1172 14.8551 28.2775 15.4255C28.7106 16.9638 29.0365 18.5272 29.2983 20.1049C29.3596 20.4742 29.5122 20.8285 29.6181 21.1909C29.677 21.392 29.75 21.5927 29.7756 21.7987C29.8438 22.3484 29.8896 22.9018 29.9448 23.4536Z" fill="black"/>
</svg>
