<svg width="905" height="338" viewBox="0 0 905 338" fill="none" xmlns="http://www.w3.org/2000/svg">
<path d="M308.574 419.274C308.107 419.895 306.943 422.182 305.736 422.41L308.13 422.098C307.815 421.879 321.649 419.93 323.573 419.169C327.476 417.626 335.052 416.386 339.768 415.773C345.811 414.988 352.223 413.786 358.474 412.973C365.252 412.092 365.077 415.539 370.123 415.538C376.792 415.538 384.083 415.179 391.058 414.273C401.695 412.891 412.576 412.583 423.253 411.196C437.646 409.325 452.01 408.934 466.446 407.058C471.277 406.43 478.044 407.021 482.478 407.27C486.995 407.525 492.637 409.189 497.477 408.56C499.754 408.264 501.593 406.733 503.039 405.91C504.456 405.103 508.392 404.927 510.406 404.666C519.749 403.452 529.57 403.019 538.88 402.441C545.837 402.009 553.263 401.566 560.086 401.53C567.572 401.491 575.576 402.1 583.292 401.097C592.783 399.863 600.905 397.588 609.406 394.936C614.341 393.397 624.454 392.547 629.383 392.893L630.13 392.946C633.858 393.209 637.74 393.483 641.592 393.52C647.773 393.581 657.69 392.098 662.53 389.508C667.866 386.652 675.203 383.943 682.311 382.141C690.838 379.979 698.532 380.637 706.505 380.636C712.214 380.636 719.063 379.763 724.912 379.003C732.387 378.031 739.258 374.296 746.376 372.442C751.438 371.123 756.525 369.228 761.55 367.785C767.266 366.143 773.45 363.672 779.336 362.419C791.096 359.916 803.379 358.885 814.86 356.163C823.88 354.025 833.893 351.813 842.33 348.986C847.864 347.131 854.622 346.613 860.386 344.999C865.232 343.643 873.993 342.715 879.038 342.822C882.178 342.888 884.008 343.569 887.418 343.126C890.667 342.704 894.271 341.473 896.547 340.177C898.786 338.902 900.437 337.55 903.143 336.471C905.944 335.353 909 334.754 911.764 333.772C916.254 332.177 921.301 331.068 925.131 329.084C928.823 327.17 929.933 324.543 935.669 322.754C946.641 319.332 959.336 315.534 971.468 313.756C975.017 313.236 979.427 311.599 982.647 310.623C991.249 308.014 999.751 305.175 1008.54 302.749C1020.28 299.506 1027.58 294.054 1035.78 288.96C1040.79 285.847 1044.68 284.083 1051.87 283.016C1055.56 282.468 1054.15 280.437 1053.99 279.235C1053.45 275.088 1052.11 271.001 1051.57 266.821C1051.23 264.228 1051.8 259.457 1059.36 258.062C1063.35 257.324 1069 254 1071.42 252.354C1077 248.556 1080.96 243.734 1084.87 239.64C1087.32 237.072 1090.68 234.747 1094.34 232.403C1096.84 230.8 1100.73 228.399 1101.56 226.586C1103.55 222.275 1104.87 217.444 1107.47 213.069C1108.99 210.521 1107.1 207.099 1106.79 204.673C1106.62 203.41 1106.77 202.147 1107.73 200.86C1108.2 200.236 1108.03 199.436 1109.28 198.896C1109.89 198.635 1111.23 198.239 1111.6 197.96C1112.95 196.937 1112.08 195.476 1111.95 194.41C1111.78 193.165 1113.24 191.921 1113.09 190.756C1112.78 188.372 1117.22 185.045 1116.89 182.515C1116.6 180.243 1120.33 177.724 1120.03 175.465C1119.87 174.179 1121.3 172.731 1121.12 171.368C1120.87 169.431 1121.19 167.381 1119.23 165.813C1115.8 163.068 1109.34 160.17 1107.84 156.942C1106.06 153.087 1101.88 149.32 1098.14 145.944L1097.86 145.695C1096.04 144.053 1095.05 142.308 1093.42 140.657C1091.63 138.852 1087.13 137.341 1084.07 136.05C1080.92 134.716 1078.53 133.133 1076.01 131.564C1073.79 130.186 1069.72 129.36 1066.84 128.308C1058.1 125.12 1051.15 120.54 1046.15 115.87C1041.15 111.197 1037.18 106.142 1036.45 100.548C1036.04 97.356 1032.78 94.8304 1031.3 91.8094C1030.68 90.5357 1029.34 89.5791 1029.17 88.213C1028.87 85.9324 1026.1 86.2278 1022.26 85.0517C1015.29 82.9141 1009.3 80.0336 1002.26 77.8743C995.669 75.8534 987.228 75.0962 979.819 73.7809C974.424 72.8231 968.903 71.894 963.611 70.8246C961.162 70.3298 959.32 69.408 956.87 68.913C953.773 68.2872 950.344 68.0427 947.329 67.304C940.657 65.6692 933.251 64.5464 927.599 62.2228C922.307 60.0477 917.682 57.3447 912.512 55.0623C904.891 51.6979 898.144 48.3501 887.441 47.0472C880.055 46.1481 867.297 47.8052 866.663 42.9221C866.251 39.7547 866.141 36.5765 864.461 33.6157C862.22 29.6642 856.764 26.3341 853.087 22.7549C851.032 20.755 845.383 19.6771 841.58 18.5112C836.855 17.0627 831.936 15.3656 827.608 13.6859C815.308 8.91223 798.139 10.3906 782.001 9.65149C762.082 8.73925 741.328 9.57394 721.414 8.65006C715.092 8.3567 704.378 8.71505 700.585 6.21231C698.433 4.79229 694.824 3.62992 691.442 2.80928C683.497 0.881807 675.788 0.353388 665.998 0.253718C647.34 0.0638134 628.823 3.39039 610.148 3.78149C588.871 4.22709 567.16 6.05978 545.818 6.58697C525.681 7.08439 504.533 9.01792 484.855 8.23756C469.529 7.62979 449.908 10.7415 435.827 15.6954C429.538 17.908 421.49 19.5455 414.749 21.4067C405.942 23.8385 396.115 24.8709 387.078 27.032C380.562 28.5901 373.992 29.6817 367.53 31.3351C362.176 32.705 356.636 33.993 351.172 35.2032L351.125 35.2135C344.036 36.7837 336.453 38.463 329.979 40.7244C322.229 43.4316 313.468 45.7792 305.386 48.1838C300.437 49.6563 294.553 51.6002 289.106 52.3081C279.144 53.6029 271.203 59.6379 263.057 62.7853C258.352 64.6032 252.55 67.1953 248.5 69.4119C243.741 72.0169 237.678 73.9452 231.961 76.05C226.172 78.1814 220.257 81.2215 213.708 82.6855C210.808 83.3337 207.919 83.9575 205.035 84.6325C201.035 85.5688 197.079 86.3603 193.216 87.3572C191.115 87.8997 185.849 89.1383 184.64 90.0501C182.731 91.4891 177.627 93.375 174.431 94.0618C168.158 95.4101 161.624 95.284 155.331 95.9087C149.083 96.5288 141.711 96.199 135.516 97.8074C130.746 99.0456 128.213 99.8606 125.247 102.052C121.374 104.915 118.472 107.997 113.448 110.473C108.123 113.097 104.282 115.883 98.1871 118.277C93.3471 120.178 88.4724 121.911 83.5144 123.668C61.4891 131.477 53.9812 143.463 42.6995 154.43C31.8932 164.934 25.1998 174.961 21.018 186.025C19.7516 189.375 19.3564 192.659 17.8548 196.028C17.0138 197.916 15.8544 200.286 15.8057 202.116C15.7362 204.727 14.6364 207.486 14.4566 210.121C14.2198 213.592 14.3346 217.049 13.5159 220.573C12.4541 225.145 12.2098 229.59 9.42357 234.182C8.44217 235.799 8.3571 237.531 7.00088 239.129C6.00492 240.303 4.73647 241.515 4.0349 242.671C2.87567 244.582 2.07465 246.553 0.548496 248.453C-1.34064 250.806 3.21989 248.889 3.38184 250.135C3.72708 252.791 4.5778 255.144 5.92365 257.552C6.51196 258.605 7.12779 260.226 7.26899 261.313C7.46337 262.809 9.25429 264.101 9.44384 265.56C9.78482 268.184 13.3487 270.367 14.492 272.836C15.7213 275.491 18.8147 277.832 20.255 280.409C21.7442 283.074 24.9986 285.341 25.3713 288.209C25.5356 289.474 27.298 290.547 27.4623 291.811C27.6187 293.014 28.2689 294.694 28.847 295.874C30.3453 298.933 32.7242 301.999 34.8429 304.893C36.7965 307.561 39.522 309.677 39.9147 312.699C40.1321 314.371 40.7908 314.695 37.0056 315.29C35.36 315.549 32.7951 316.698 31.1149 317.142C28.6023 317.806 27.1455 317.179 24.3893 318.119C22.0202 318.927 17.1104 319.861 15.8573 321.154C15.1246 321.911 12.9503 322.847 15.5352 323.533C19.0579 324.467 24.7693 324.166 28.8683 324.485C35.1281 324.972 37.7396 326.092 39.5274 328.798C40.9651 330.974 43.0638 332.985 44.502 335.161C46.0265 337.469 49.8148 339.312 51.9491 341.47C53.0773 342.61 53.443 344.327 55.1435 345.236C56.5078 345.966 58.7296 347.856 60.8985 347.891C69.2366 348.023 75.4525 347.549 79.9234 350.665C81.6553 351.873 81.4619 355.47 79.5618 356.902C76.9817 358.848 76.3933 361.18 73.4154 363.03C70.5191 364.83 69.3548 367.161 69.1467 369.037C68.8595 371.626 68.6894 374.225 69.3389 376.76C69.5852 377.721 70.8118 379.062 71.4272 379.994C72.1761 381.127 73.1118 381.942 75.1426 382.565C77.1647 383.185 79.5812 384.023 82.0446 384.332C83.3819 384.5 84.7123 386.042 85.8431 386.503C86.9271 386.946 87.1695 388.42 88.3351 388.68C91.4373 389.373 96.537 389.008 100.189 389.353C108.626 390.151 116.604 391.436 124.921 392.329C130.579 392.937 137.642 391.346 143.511 391.758L143.541 391.76C148.159 392.085 151.96 392.352 156.083 393.445C160.579 394.637 168.828 392.977 174.235 392.275C179.912 391.537 185.441 391.187 191.217 390.436C198.079 389.545 204.545 389.638 211.309 388.932C216.826 388.356 222.664 389.011 227.61 389.478C232.074 389.9 238.318 390.916 242.363 391.988C246.275 393.026 252.144 392.394 255.889 393.387C260.063 394.494 262.541 396.003 262.861 398.466C263.489 403.296 249.316 403.301 244.651 406.818C243.012 408.053 254.06 408.095 255.965 407.848C258.394 407.532 262.96 407.4 265.216 407.568C267.763 407.758 271.578 406.926 274.284 406.574C284.721 405.218 295.6 403.901 305.631 402.869C310.35 402.384 309.763 406.272 314.13 405.823C319.618 405.259 323.233 406.543 328.063 406.882C329.235 406.964 340.144 407.523 338.637 408.459C337.872 408.934 335.882 408.648 335.022 409.093C334.2 409.519 334.057 409.75 332.981 410.035C331.171 410.513 329.973 411.512 327.888 411.783C324.277 412.252 317.427 414.028 314.745 415.418C312.744 416.455 309.55 417.977 308.574 419.274Z" fill="#E3051B"/>
</svg>
