<svg width="88" height="85" viewBox="0 0 88 85" fill="none" xmlns="http://www.w3.org/2000/svg">
<path d="M78.0445 62.9697C77.0163 62.9081 75.9427 62.9575 74.8588 63.1055C73.7697 63.2386 72.6633 63.4505 71.5605 63.689C71.0074 63.8033 70.4593 63.9158 69.9062 64.0301C69.3615 64.1526 68.8134 64.2651 68.2718 64.3642C67.7301 64.4633 67.19 64.5506 66.658 64.6128C66.1243 64.6867 65.6022 64.7455 65.0797 64.7708C60.0597 64.9077 54.8372 66.3904 50.1303 68.0851C50.2934 68.5373 50.9252 69.0669 50.6177 69.4368C49.3179 70.6836 49.6639 71.5811 50.0032 72.4754C50.1713 72.9259 51.1337 72.0594 50.9243 72.6469C51.4896 72.4389 52.2567 72.2166 52.7671 72.1563C53.2827 72.1111 53.5281 72.2214 53.0391 72.6322C52.8213 73.2114 51.1755 73.3202 51.0543 74.1287C50.9398 74.9404 51.9241 75.3416 51.8078 76.1484C51.4454 76.2802 50.7173 76.5505 50.3566 76.6872C50.1721 77.266 51.2413 77.895 50.8789 78.0268C49.995 78.8939 48.5198 79.2676 47.1226 79.8492C47.3106 80.2927 47.1646 80.8694 47.9522 80.8021C49.4917 80.2437 51.0019 79.6172 52.5877 79.1434C53.3729 78.8924 54.1581 78.6414 54.9465 78.3837L57.3465 77.7103L58.5449 77.3769L59.7539 77.0902L62.1817 76.4967C63.8194 76.1558 65.4464 75.7683 67.0929 75.4691C70.3786 74.8174 73.6891 74.2689 76.9888 73.7856C80.2817 73.2992 83.6202 72.8472 86.7845 72.4894C88.0569 72.1918 87.1575 71.2632 85.9377 70.6196C86.3265 70.8366 86.2868 70.1121 86.6724 70.3358C86.6411 69.6196 85.8154 68.4528 84.2386 68.3418L85.3984 68.2512C85.7708 67.9873 85.3505 67.5351 85.3173 67.0544C84.9234 67.0797 84.533 67.115 84.5114 66.8764C84.4949 66.636 84.4568 66.1571 84.4352 65.9185C84.8341 65.8915 85.6302 65.8324 86.0291 65.8054C85.6302 65.8324 85.2313 65.8595 85.2147 65.6191C85.1982 65.3788 85.1668 64.9031 85.1502 64.6627C84.3259 64.4799 83.1575 65.0601 82.3401 64.8972L82.2705 64.1831C83.053 63.8603 84.2878 64.0009 85.1006 63.9417C84.6734 63.7269 84.6586 63.4915 84.6204 63.0126C83.3672 62.8672 82.2239 63.6959 80.933 63.105L82.1493 62.9836C81.219 61.87 79.2801 63.0485 78.0445 62.9697Z" fill="white"/>
<path d="M52.6516 35.9052C51.8811 36.5888 51.1569 37.3828 50.4951 38.2539C49.8191 39.1181 49.1865 40.0503 48.5754 40.9987C48.2651 41.4706 47.9571 41.9378 47.6468 42.4097C47.3483 42.8814 47.0403 43.3486 46.7273 43.8016C46.4144 44.2547 46.0943 44.6984 45.762 45.1186C45.437 45.5482 45.1093 45.9589 44.7577 46.3463C41.3049 49.9927 38.6604 54.7341 36.5305 59.2607C36.9655 59.4652 37.7868 59.3928 37.8309 59.8718C37.7934 61.6726 38.6728 62.0626 39.545 62.455C39.9824 62.6547 40.0503 61.3615 40.3176 61.9249C40.5702 61.3782 40.9555 60.6785 41.2738 60.275C41.6064 59.8784 41.8579 59.7829 41.8026 60.4191C42.0581 60.9828 40.9713 62.2234 41.4573 62.8808C41.9503 63.5358 42.93 63.1235 43.4183 63.7761C43.2552 64.1256 42.9314 64.8316 42.7731 65.1833C43.052 65.723 44.2527 65.4117 44.0896 65.7612C44.0777 66.9993 43.2989 68.3067 42.7222 69.7059C43.1687 69.8866 43.4732 70.3976 43.9826 69.7931C44.6763 68.3097 45.3012 66.7988 46.0875 65.3425C46.4652 64.6098 46.843 63.8771 47.2182 63.1373L48.4391 60.9641L49.0508 59.881L49.703 58.8234L51 56.6869C51.917 55.2879 52.7934 53.8635 53.7462 52.4876C55.6086 49.7034 57.5616 46.9747 59.5532 44.2998C61.5376 41.6273 63.5787 38.9471 65.5632 36.4565C66.2525 35.3464 64.9599 35.3258 63.6423 35.7331C64.0707 35.6117 63.5303 35.1275 63.9611 35.0131C63.4325 34.5287 62.0236 34.2875 60.8301 35.324L61.5862 34.4398C61.6629 33.9899 61.046 33.9674 60.6827 33.6509C60.422 33.9473 60.1709 34.2484 59.9869 34.0949C59.8052 33.9366 59.4396 33.6249 59.2557 33.4714C59.5186 33.1702 60.0398 32.5656 60.3028 32.2644C60.0398 32.5656 59.7768 32.8668 59.5952 32.7085C59.4135 32.5503 59.055 32.2361 58.8733 32.0779C58.1611 32.5315 57.7452 33.7679 57.0521 34.2307L56.4979 33.775C56.823 32.9934 57.7955 32.2198 58.3283 31.6032C57.8744 31.7533 57.6975 31.5974 57.3319 31.2856C56.3429 32.069 56.1205 33.4635 54.7898 33.9584L55.564 33.0125C54.1187 32.8829 53.581 35.0872 52.6516 35.9052Z" fill="white"/>
<path d="M16.2846 34.5146C16.2231 35.5428 16.2724 36.6163 16.4205 37.7003C16.5536 38.7894 16.7654 39.8958 17.0039 40.9986C17.1182 41.5517 17.2307 42.0998 17.345 42.6529C17.4675 43.1976 17.58 43.7457 17.6791 44.2873C17.7782 44.8289 17.8656 45.369 17.9278 45.9011C18.0017 46.4347 18.0604 46.9568 18.0857 47.4794C18.2226 52.4993 19.7053 57.7219 21.4001 62.4288C21.8523 62.2657 22.3818 61.6339 22.7518 61.9414C23.9986 63.2412 24.8961 62.8952 25.7903 62.5559C26.2408 62.3878 25.3744 61.4254 25.9619 61.6348C25.7539 61.0695 25.5315 60.3023 25.4713 59.792C25.426 59.2763 25.5363 59.031 25.9471 59.52C26.5264 59.7378 26.6351 61.3836 27.4436 61.5048C28.2554 61.6193 28.6566 60.635 29.4633 60.7513C29.5951 61.1137 29.8654 61.8418 30.0022 62.2025C30.581 62.3869 31.2099 61.3178 31.3417 61.6802C32.2088 62.5641 32.5826 64.0393 33.1641 65.4365C33.6077 65.2485 34.1843 65.3945 34.117 64.6069C33.5586 63.0674 32.9322 61.5572 32.4584 59.9714C32.2074 59.1862 31.9564 58.401 31.6986 57.6126L31.0252 55.2126L30.6919 54.0142L30.4052 52.8052L29.8116 50.3774C29.4708 48.7397 29.0833 47.1127 28.7841 45.4662C28.1323 42.1804 27.5838 38.87 27.1006 35.5703C26.6141 32.2774 26.1621 28.9389 25.8043 25.7746C25.5067 24.5022 24.5782 25.4016 23.9345 26.6214C24.1515 26.2326 23.427 26.2723 23.6508 25.8867C22.9345 25.918 21.7677 26.7437 21.6567 28.3205L21.5661 27.1607C21.3022 26.7883 20.8501 27.2086 20.3694 27.2417C20.3947 27.6357 20.4299 28.0261 20.1913 28.0477C19.951 28.0642 19.472 28.1023 19.2334 28.1239C19.2064 27.725 19.1474 26.9289 19.1204 26.53C19.1474 26.9289 19.1744 27.3278 18.934 27.3443C18.6937 27.3609 18.218 27.3923 17.9777 27.4088C17.7948 28.2332 18.375 29.4016 18.2121 30.219L17.4981 30.2886C17.1753 29.5061 17.3159 28.2713 17.2566 27.4585C17.0418 27.8857 16.8064 27.9005 16.3275 27.9386C16.1821 29.1918 17.0109 30.3352 16.4199 31.626L16.2985 30.4098C15.1849 31.3401 16.3634 33.279 16.2846 34.5146Z" fill="white"/>
</svg>
