<svg width="78" height="46" viewBox="0 0 78 46" fill="none" xmlns="http://www.w3.org/2000/svg">
<path d="M11.3581 17.4079C12.1837 17.7455 13.0026 18.1868 13.7919 18.7093C14.591 19.222 15.3737 19.8029 16.1433 20.4033C16.5314 20.7002 16.9162 20.994 17.3043 21.2909C17.6826 21.5911 18.0674 21.8848 18.4523 22.1656C18.8372 22.4463 19.2253 22.7173 19.6168 22.9656C20.005 23.2236 20.39 23.4655 20.7881 23.6813C24.6527 25.6715 28.1632 28.7914 31.1905 31.8839C30.8912 32.1768 30.1966 32.3543 30.2957 32.7593C30.8352 34.2231 30.2236 34.796 29.6184 35.3688C29.3158 35.6585 28.8947 34.6191 28.8344 35.1576C28.4726 34.7828 27.9586 34.3209 27.5833 34.0823C27.1983 33.8534 26.9648 33.8478 27.19 34.3528C27.1394 34.888 28.3821 35.5905 28.1689 36.269C27.9493 36.9475 27.0285 36.8924 26.8121 37.5677C27.0447 37.8068 27.5099 38.2915 27.7393 38.5339C27.6629 39.0562 26.5892 39.1476 26.8218 39.3868C27.1814 40.3972 28.1901 41.2432 29.0589 42.2226C28.7434 42.4994 28.6378 43.0056 28.0489 42.6575C27.0602 41.6428 26.1204 40.5858 25.0635 39.62C24.5464 39.129 24.0293 38.6379 23.5123 38.1404L21.896 36.7129L21.0879 36.0024L20.2537 35.3244L18.5854 33.949C17.4374 33.0678 16.3154 32.1541 15.1446 31.3022C12.8291 29.5595 10.4549 27.8882 8.06433 26.2722C5.68024 24.6561 3.24748 23.0499 0.914744 21.5828C0.0352691 20.8726 1.09053 20.4829 2.28724 20.4365C1.90127 20.4606 2.20805 19.9082 1.82207 19.9388C2.11911 19.3897 3.20756 18.7859 4.48013 19.2905L3.60965 18.7845C3.41957 18.4382 3.91964 18.2419 4.12847 17.8779C4.4262 18.0455 4.71742 18.2196 4.82506 18.0408C4.92948 17.8589 5.14154 17.4982 5.24918 17.3195C4.94822 17.1487 4.34956 16.8038 4.0486 16.633C4.34956 16.8038 4.65052 16.9746 4.75493 16.7927C4.85935 16.6107 5.06492 16.25 5.16933 16.0681C5.88213 16.2341 6.57288 17.1267 7.27266 17.3058L7.59883 16.7728C7.11113 16.2265 6.09419 15.8734 5.48258 15.5222C5.89767 15.5142 5.99883 15.3355 6.21089 14.9748C7.24403 15.3311 7.82063 16.4088 9.05276 16.4304L8.15002 15.8791C9.29979 15.3562 10.364 17.0061 11.3581 17.4079Z" fill="#E3051B"/>
<path d="M41.4746 5.74316C41.8156 6.5674 42.0784 7.4607 42.2631 8.39096C42.4615 9.32118 42.6002 10.2883 42.716 11.2601C42.7785 11.746 42.841 12.2272 42.9034 12.7131C42.9567 13.1944 43.0192 13.6757 43.0909 14.1478C43.1626 14.6199 43.2435 15.0874 43.3428 15.541C43.4328 15.9993 43.5321 16.4437 43.659 16.8789C44.9649 21.029 45.2233 25.7332 45.162 30.0762C44.7447 30.0731 44.1315 29.7084 43.9146 30.0669C43.2584 31.4908 42.4238 31.4663 41.5939 31.4463C41.1766 31.4386 41.616 30.4007 41.1928 30.7415C41.2039 30.2187 41.1697 29.5264 41.0749 29.0911C40.9664 28.6558 40.8065 28.4867 40.6075 29.0056C40.1935 29.351 40.5692 30.73 39.9398 31.0624C39.3058 31.3903 38.6983 30.7 38.0689 31.0278C38.0631 31.3626 38.0469 32.0368 38.0366 32.3716C37.6135 32.6895 36.7951 31.9954 36.7894 32.3302C36.3273 33.304 36.4373 34.6198 36.3546 35.9316C35.9374 35.9056 35.5053 36.1914 35.338 35.5271C35.3614 34.1054 35.449 32.6881 35.3899 31.2529C35.3741 30.5376 35.3584 29.8222 35.3472 29.1023L35.2219 26.9428L35.1569 25.8654L35.0507 24.7927L34.852 22.6335C34.6691 21.1942 34.5275 19.7501 34.308 18.3155C33.9147 15.437 33.4296 12.568 32.894 9.72674C32.363 6.89 31.7908 4.0259 31.1905 1.33157C31.0753 0.203866 32.0917 0.672583 32.9647 1.48575C32.6767 1.22997 33.2827 1.05355 32.9901 0.802369C33.5869 0.621394 34.778 0.961085 35.3146 2.22028L35.0613 1.2444C35.1727 0.863375 35.6626 1.07716 36.0666 0.965663C36.1571 1.29552 36.2385 1.62541 36.4404 1.57425C36.6424 1.5185 37.0463 1.41158 37.2483 1.36042C37.1578 1.02597 36.9813 0.357072 36.8908 0.0226286C36.9813 0.357072 37.0718 0.691514 37.2738 0.635764C37.4758 0.580014 37.8752 0.468531 38.0771 0.412781C38.4601 1.03509 38.314 2.15914 38.6786 2.78151L39.2845 2.6326C39.3283 1.89871 38.8641 0.928174 38.6831 0.24553C38.9801 0.533379 39.1775 0.477645 39.5814 0.370731C40.0548 1.355 39.6975 2.53024 40.5474 3.41687L40.3034 2.38592C41.4804 2.82655 41.0608 4.7541 41.4746 5.74316Z" fill="#E3051B"/>
<path d="M70.3771 18.2979C70.0337 19.126 69.5865 19.948 69.0584 20.7411C68.5399 21.5439 67.9535 22.3307 67.3476 23.1046C67.0478 23.4948 66.7514 23.8817 66.4517 24.2719C66.1487 24.6524 65.8523 25.0393 65.5688 25.4262C65.2853 25.8131 65.0115 26.2032 64.7604 26.5965C64.4996 26.9865 64.255 27.3733 64.0364 27.7729C62.0186 31.6518 58.8735 35.1846 55.7594 38.2341C55.4687 37.9368 55.296 37.2435 54.8903 37.3454C53.4227 37.8954 52.8541 37.2879 52.2856 36.6867C51.998 36.3862 53.0405 35.9577 52.5024 35.9012C52.8798 35.5367 53.3454 35.0195 53.5867 34.6425C53.8183 34.2558 53.8256 34.0223 53.3189 34.2511C52.7841 34.2043 52.0727 35.452 51.3957 35.2437C50.7188 35.0288 50.7804 34.1077 50.1067 33.8961C49.8659 34.1304 49.3778 34.5991 49.1338 34.8302C48.612 34.7575 48.5283 33.6845 48.2875 33.9188C47.2745 34.2856 46.4213 35.3003 45.4356 36.1761C45.1611 35.8626 44.6556 35.7606 45.0079 35.1692C46.0297 34.1733 47.0934 33.2259 48.0668 32.162C48.5615 31.6414 49.0563 31.1209 49.5575 30.6002L50.9965 28.9738L51.7128 28.1606L52.3968 27.3215L53.7841 25.6433C54.6735 24.489 55.5952 23.3605 56.4555 22.1836C58.2148 19.8556 59.903 17.4694 61.5362 15.0673C63.1693 12.6716 64.7928 10.2273 66.2766 7.88408C66.9932 6.99952 67.3753 8.05203 67.4132 9.24844C67.3919 8.86264 67.942 9.16549 67.9142 8.77971C68.4612 9.07284 69.0572 10.157 68.5436 11.4332L69.0558 10.5591C69.4034 10.3666 69.5962 10.8652 69.9587 11.0715C69.789 11.3704 69.6128 11.6629 69.7908 11.7692C69.972 11.8724 70.3312 12.0819 70.5092 12.1882C70.6821 11.886 71.0312 11.2849 71.2042 10.9827C71.0312 11.2849 70.8583 11.5871 71.0395 11.6902C71.2207 11.7933 71.5799 11.9963 71.7612 12.0995C71.59 12.8135 70.6925 13.5106 70.5084 14.2117L71.0391 14.534C71.5889 14.0424 71.9492 13.023 72.3048 12.4088C72.3098 12.8239 72.4878 12.9238 72.847 13.1332C72.4834 14.169 71.4015 14.7532 71.3712 15.9856L71.9289 15.0789C72.4436 16.2249 70.786 17.3009 70.3771 18.2979Z" fill="#E3051B"/>
</svg>
