<svg width="131" height="49" viewBox="0 0 131 49" fill="none" xmlns="http://www.w3.org/2000/svg">
<path d="M49.4921 17.9877C45.6771 17.9877 42.7346 15.2765 42.7346 11.2648C42.7346 7.25318 45.6773 4.54199 49.4921 4.54199C53.3068 4.54199 56.2594 7.21306 56.2594 11.2648C56.2594 15.3166 53.326 17.9877 49.4921 17.9877ZM51.1696 11.2648C51.1696 10.277 50.4509 9.50087 49.4921 9.50087C48.5335 9.50087 47.8244 10.277 47.8244 11.2648C47.8244 12.2528 48.5335 13.0086 49.4921 13.0086C50.4509 13.0086 51.1696 12.2528 51.1696 11.2648Z" fill="white"/>
<path d="M57.4197 5.06578C57.4197 4.85424 57.5634 4.703 57.7646 4.703H62.5092C66.3433 4.703 69.0272 6.5374 69.0272 9.37992C69.0272 10.9927 68.2699 12.1416 67.2156 12.8776C67.1578 12.918 67.1388 12.9682 67.1388 13.0187C67.1388 13.2202 67.5704 13.6536 68.203 13.6536C68.4522 13.6536 68.6631 13.6435 68.7686 13.6435C68.9891 13.6435 69.1136 13.7746 69.1136 13.9962V17.4232C69.1136 17.6751 68.9795 17.8163 68.7686 17.8465C68.4045 17.897 67.8292 17.9372 67.3499 17.9372C65.2794 17.9372 63.2665 17.1308 62.3943 14.6009C62.3751 14.5402 62.3463 14.5304 62.2986 14.5304C62.2508 14.5304 62.2122 14.5607 62.2122 14.6211V17.4434C62.2122 17.6549 62.0781 17.8062 61.8672 17.8062H57.7649C57.5639 17.8062 57.4199 17.6549 57.4199 17.4434V5.06607L57.4197 5.06578ZM62.9311 11.083C63.7269 11.083 64.1963 10.6394 64.1963 9.98427C64.1963 9.32912 63.7269 8.88555 62.9311 8.88555H62.4231C62.2986 8.88555 62.2122 8.97618 62.2122 9.09709V10.8611C62.2122 10.9921 62.2986 11.0827 62.4231 11.0827H62.9311V11.083Z" fill="white"/>
<path d="M70.4077 5.06578C70.4077 4.85424 70.5418 4.703 70.7527 4.703H74.5197C79.3985 4.703 82.5903 7.10193 82.5903 11.2847C82.5903 15.4676 79.3794 17.8062 74.4813 17.8062H70.7527C70.5418 17.8062 70.4077 17.6549 70.4077 17.4434V5.06607V5.06578ZM75.6028 13.0083C76.6955 13.0083 77.52 12.4741 77.52 11.2645C77.52 10.055 76.6957 9.52076 75.6028 9.52076H75.4111C75.2864 9.52076 75.2002 9.61139 75.2002 9.74243V12.7864C75.2002 12.9174 75.2864 13.008 75.4111 13.008H75.6028V13.0083Z" fill="white"/>
<path d="M83.7395 5.06578C83.7395 4.85424 83.8736 4.703 84.0845 4.703H92.9601C93.1614 4.703 93.3053 4.85424 93.3053 5.06578V8.20038C93.3053 8.42202 93.1614 8.57326 92.9601 8.57326H88.7714C88.6467 8.57326 88.5606 8.66389 88.5606 8.78482V9.40964C88.5606 9.54068 88.6467 9.63131 88.7714 9.63131H92.5384C92.7493 9.63131 92.8834 9.78255 92.8834 9.99408V12.5139C92.8834 12.7255 92.7493 12.8767 92.5384 12.8767H88.7714C88.6467 12.8767 88.5606 12.9673 88.5606 13.0984V13.7232C88.5606 13.8441 88.6467 13.9348 88.7714 13.9348H93.1134C93.324 13.9348 93.4584 14.086 93.4584 14.3076V17.4422C93.4584 17.6538 93.324 17.805 93.1134 17.805H84.0842C83.8734 17.805 83.7393 17.6538 83.7393 17.4422V5.06494L83.7395 5.06578Z" fill="white"/>
<path d="M94.6765 5.06578C94.6765 4.85424 94.8202 4.703 95.0215 4.703H99.766C103.6 4.703 106.284 6.5374 106.284 9.37992C106.284 10.9927 105.527 12.1416 104.472 12.8776C104.415 12.918 104.396 12.9682 104.396 13.0187C104.396 13.2202 104.827 13.6536 105.46 13.6536C105.709 13.6536 105.92 13.6435 106.025 13.6435C106.246 13.6435 106.37 13.7746 106.37 13.9962V17.4232C106.37 17.6751 106.236 17.8163 106.025 17.8465C105.661 17.897 105.086 17.9372 104.607 17.9372C102.536 17.9372 100.523 17.1308 99.6511 14.6009C99.6319 14.5402 99.6031 14.5304 99.5554 14.5304C99.5076 14.5304 99.469 14.5607 99.469 14.6211V17.4434C99.469 17.6549 99.3349 17.8062 99.1241 17.8062H95.0217C94.8207 17.8062 94.6768 17.6549 94.6768 17.4434V5.06607L94.6765 5.06578ZM100.188 11.083C100.984 11.083 101.453 10.6394 101.453 9.98427C101.453 9.32912 100.984 8.88555 100.188 8.88555H99.6799C99.5554 8.88555 99.469 8.97618 99.469 9.09709V10.8611C99.469 10.9921 99.5554 11.0827 99.6799 11.0827H100.188V11.083Z" fill="white"/>
<path d="M50.2785 33.9693C49.7704 33.2134 48.0451 30.6735 47.7671 30.2701C47.7191 30.1996 47.6906 30.1895 47.6426 30.1895C47.5754 30.1895 47.5562 30.2299 47.5562 30.3004V34.433C47.5562 34.6447 47.4221 34.7957 47.2113 34.7957H43.262C43.0513 34.7957 42.917 34.6447 42.917 34.433V22.0558C42.917 21.8442 43.0513 21.693 43.262 21.693H47.6426C47.8151 21.693 47.9683 21.7634 48.0739 21.9348C48.5628 22.721 50.2881 25.4828 50.384 25.6338C50.4416 25.7245 50.4702 25.7447 50.5376 25.7447C50.6047 25.7447 50.6333 25.7245 50.6909 25.6338C50.7866 25.4828 52.5119 22.721 53.001 21.9348C53.1063 21.7634 53.2598 21.693 53.4326 21.693H57.8129C58.0238 21.693 58.1579 21.8442 58.1579 22.0558V34.433C58.1579 34.6447 58.0238 34.7957 57.8129 34.7957H53.8636C53.6528 34.7957 53.5187 34.6447 53.5187 34.433V30.3004C53.5187 30.2299 53.4995 30.1895 53.4326 30.1895C53.3843 30.1895 53.3558 30.1996 53.3078 30.2701C53.0298 30.6735 51.3045 33.2134 50.7966 33.9693C50.7007 34.1105 50.6719 34.161 50.5378 34.161C50.4035 34.161 50.3747 34.1105 50.279 33.9693H50.2785Z" fill="white"/>
<path d="M66.1224 34.9774C62.3075 34.9774 59.365 32.2661 59.365 28.2544C59.365 24.2428 62.3077 21.5316 66.1224 21.5316C69.9374 21.5316 72.8897 24.2026 72.8897 28.2544C72.8897 32.3062 69.9566 34.9774 66.1224 34.9774ZM67.8 28.2544C67.8 27.2666 67.0813 26.4904 66.1224 26.4904C65.1638 26.4904 64.4547 27.2666 64.4547 28.2544C64.4547 29.2425 65.1638 29.9982 66.1224 29.9982C67.0813 29.9982 67.8 29.2425 67.8 28.2544Z" fill="white"/>
<path d="M74.0874 22.0556C74.0874 21.844 74.2215 21.6928 74.4324 21.6928H78.1418C78.3239 21.6928 78.4486 21.7231 78.6112 21.9144C79.2534 22.6703 82.1194 26.0571 82.3017 26.2687C82.3686 26.3493 82.407 26.3695 82.4454 26.3695C82.484 26.3695 82.5032 26.3493 82.5032 26.3089V22.0553C82.5032 21.8437 82.6373 21.6925 82.8482 21.6925H87.0465C87.2574 21.6925 87.4013 21.8437 87.4013 22.0553V34.4327C87.4013 34.6441 87.2574 34.7954 87.0465 34.7954H83.3085C83.1262 34.7954 82.9441 34.7047 82.7431 34.4827C82.1199 33.7975 79.3019 30.7231 79.0718 30.4711C79.0526 30.4509 79.0335 30.4408 79.0143 30.4408C78.9855 30.4408 78.9663 30.461 78.9663 30.5014V34.4322C78.9663 34.6439 78.8223 34.7951 78.6115 34.7951H74.4324C74.2215 34.7951 74.0874 34.6439 74.0874 34.4322V22.055V22.0556Z" fill="white"/>
<path d="M88.8018 22.0556C88.8018 21.8441 88.9359 21.6929 89.1467 21.6929H93.3162C93.5175 21.6929 93.6612 21.8441 93.6612 22.0556V25.1902C93.6612 25.2809 93.7094 25.3415 93.8051 25.3415H93.8147C93.9009 25.3415 93.9491 25.3213 93.9875 25.2508C94.3132 24.6562 95.2814 22.9125 95.8085 21.9448C95.885 21.8037 96.0481 21.6929 96.2206 21.6929H100.716C100.946 21.6929 101.09 21.7734 101.09 21.9246C101.09 22.0254 101.061 22.1163 100.937 22.3278C100.448 23.1645 98.8277 25.9664 98.0322 27.3371C97.9744 27.4278 97.9744 27.4682 97.9744 27.4985C97.9744 27.5288 97.984 27.5689 98.0322 27.67C98.454 28.5269 100.783 33.2741 101.214 34.151C101.32 34.3624 101.339 34.423 101.339 34.5238C101.339 34.6953 101.224 34.7961 100.985 34.7961H96.2014C96.0004 34.7961 95.8852 34.7155 95.8085 34.544C95.2047 33.1933 94.361 31.3086 94.0448 30.6031C94.016 30.5425 93.9683 30.5124 93.8913 30.5124H93.8051C93.7094 30.5124 93.6612 30.5629 93.6612 30.6536V34.4331C93.6612 34.6448 93.5175 34.7961 93.3162 34.7961H89.1467C88.9359 34.7961 88.8018 34.6448 88.8018 34.4331V22.0559V22.0556Z" fill="white"/>
<path d="M102.096 22.0555C102.096 21.844 102.23 21.6927 102.441 21.6927H111.317C111.518 21.6927 111.662 21.844 111.662 22.0555V25.1901C111.662 25.4118 111.518 25.5629 111.317 25.5629H107.128C107.004 25.5629 106.917 25.6536 106.917 25.7745V26.3994C106.917 26.5305 107.004 26.6209 107.128 26.6209H110.895C111.106 26.6209 111.24 26.7722 111.24 26.9839V29.5036C111.24 29.7152 111.106 29.8665 110.895 29.8665H107.128C107.004 29.8665 106.917 29.9572 106.917 30.088V30.7129C106.917 30.8339 107.004 30.9246 107.128 30.9246H111.47C111.681 30.9246 111.815 31.0758 111.815 31.2974V34.4321C111.815 34.6435 111.681 34.7948 111.47 34.7948H102.441C102.23 34.7948 102.096 34.6435 102.096 34.4321V22.0547L102.096 22.0555Z" fill="white"/>
<path d="M121.525 29.978C121.467 30.0889 121.448 30.1596 121.448 30.25V34.4329C121.448 34.6446 121.314 34.7956 121.103 34.7956H116.991C116.78 34.7956 116.637 34.6446 116.637 34.4329V30.25C116.637 30.1596 116.618 30.0687 116.57 29.978C115.975 28.8492 113.253 23.5674 112.515 22.1665C112.371 21.8943 112.476 21.6929 112.793 21.6929H117.25C117.442 21.6929 117.624 21.8239 117.691 21.9852C117.777 22.1968 118.956 25.1096 118.995 25.1904C119.014 25.2308 119.023 25.2511 119.062 25.2511C119.1 25.2511 119.11 25.2308 119.129 25.1904C119.158 25.1101 120.318 22.2072 120.394 22.0054C120.461 21.8239 120.643 21.6929 120.835 21.6929H125.292C125.609 21.6929 125.695 21.8845 125.551 22.1665C125.158 22.9425 122.043 28.9801 121.525 29.978Z" fill="white"/>
<path d="M44.1679 42.0546C43.8836 42.0546 43.6221 41.988 43.3829 41.855C43.144 41.7217 42.9545 41.5284 42.8146 41.2753C42.6748 41.0221 42.605 40.7224 42.605 40.376V40.2894C42.605 39.9429 42.6748 39.6453 42.8146 39.3966C42.9545 39.1436 43.1416 38.9505 43.3762 38.8172C43.6152 38.6794 43.879 38.6106 44.1679 38.6106C44.3977 38.6106 44.5917 38.6416 44.7496 38.7039C44.912 38.7617 45.0427 38.8372 45.1421 38.9305C45.2411 39.0193 45.3179 39.1147 45.3719 39.217H45.4666V37.2983H46.0011V41.9615H45.4803V41.4218H45.3855C45.2953 41.5861 45.1555 41.7328 44.966 41.8615C44.7767 41.9904 44.5104 42.0546 44.1679 42.0546ZM44.3099 41.5885C44.6527 41.5885 44.93 41.4819 45.1421 41.2686C45.3584 41.0509 45.4666 40.7491 45.4666 40.3626V40.3027C45.4666 39.9164 45.3584 39.6165 45.1421 39.4034C44.93 39.1857 44.6527 39.077 44.3099 39.077C43.9716 39.077 43.6919 39.1857 43.471 39.4034C43.2544 39.6165 43.1462 39.9164 43.1462 40.3027V40.3626C43.1462 40.7491 43.2544 41.0509 43.471 41.2686C43.6919 41.4819 43.9716 41.5885 44.3099 41.5885Z" fill="white"/>
<path d="M47.1217 41.9612V38.7036H47.6562V41.9612H47.1217ZM47.3923 38.1973C47.275 38.1973 47.176 38.1596 47.0946 38.0841C47.0181 38.0085 46.9797 37.913 46.9797 37.7976C46.9797 37.6776 47.0181 37.5799 47.0946 37.5044C47.176 37.4289 47.275 37.3914 47.3923 37.3914C47.5097 37.3914 47.6066 37.4289 47.6833 37.5044C47.7599 37.5799 47.7982 37.6776 47.7982 37.7976C47.7982 37.913 47.7599 38.0085 47.6833 38.0841C47.6066 38.1596 47.5097 38.1973 47.3923 38.1973Z" fill="white"/>
<path d="M48.6189 40.3492V40.2559C48.6189 39.9138 48.6887 39.6209 48.8286 39.3765C48.9684 39.1324 49.1579 38.9436 49.3969 38.8103C49.636 38.6771 49.8975 38.6105 50.1815 38.6105C50.5289 38.6105 50.7949 38.6771 50.9799 38.8103C51.1694 38.939 51.3093 39.0836 51.3995 39.2433H51.4942V38.7038H52.0016V42.7207C52.0016 42.8985 51.9519 43.0382 51.8526 43.1404C51.7535 43.2427 51.6091 43.2936 51.4196 43.2936H49.1735V42.8273H51.2776C51.4129 42.8273 51.4805 42.7606 51.4805 42.6274V41.3885H51.3858C51.3318 41.4861 51.255 41.5816 51.1557 41.6749C51.0567 41.768 50.9281 41.8459 50.7702 41.908C50.6124 41.9657 50.4161 41.9946 50.1815 41.9946C49.8975 41.9946 49.636 41.928 49.3969 41.7947C49.1579 41.6615 48.9684 41.4729 48.8286 41.2285C48.6887 40.9798 48.6189 40.6866 48.6189 40.3492ZM50.3238 41.5282C50.6666 41.5282 50.9439 41.4217 51.1557 41.2086C51.3723 40.9955 51.4805 40.7023 51.4805 40.3292V40.2758C51.4805 39.8985 51.3723 39.6053 51.1557 39.3965C50.9439 39.1834 50.6666 39.0768 50.3238 39.0768C49.9855 39.0768 49.7058 39.1834 49.4849 39.3965C49.2683 39.6053 49.1601 39.8985 49.1601 40.2758V40.3292C49.1601 40.7023 49.2683 40.9955 49.4849 41.2086C49.7058 41.4217 49.9855 41.5282 50.3238 41.5282Z" fill="white"/>
<path d="M53.1203 41.9612V38.7036H53.6548V41.9612H53.1203ZM53.3909 38.1973C53.2736 38.1973 53.1745 38.1596 53.0932 38.0841C53.0164 38.0085 52.9783 37.913 52.9783 37.7976C52.9783 37.6776 53.0164 37.5799 53.0932 37.5044C53.1745 37.4289 53.2736 37.3914 53.3909 37.3914C53.5082 37.3914 53.6051 37.4289 53.6819 37.5044C53.7584 37.5799 53.7968 37.6776 53.7968 37.7976C53.7968 37.913 53.7584 38.0085 53.6819 38.0841C53.6051 38.1596 53.5082 38.1973 53.3909 38.1973Z" fill="white"/>
<path d="M55.9961 41.9615C55.8066 41.9615 55.66 41.9102 55.5564 41.8083C55.4571 41.706 55.4074 41.5661 55.4074 41.3885V39.1635H54.4131V38.7039H55.4074V37.5448H55.9419V38.7039H57.0245V39.1635H55.9419V41.3085C55.9419 41.4417 56.0074 41.5083 56.1381 41.5083H56.8756V41.9615H55.9961Z" fill="white"/>
<path d="M58.8863 42.0545C58.6562 42.0545 58.4465 42.0146 58.257 41.9347C58.0675 41.8548 57.9188 41.7392 57.8106 41.5884C57.7024 41.4373 57.6482 41.2531 57.6482 41.0354C57.6482 40.8134 57.7024 40.6313 57.8106 40.4892C57.9188 40.3425 58.0675 40.2337 58.257 40.1625C58.4465 40.0873 58.6584 40.0495 58.893 40.0495H60.0092V39.8097C60.0092 39.5786 59.9394 39.3965 59.7995 39.2632C59.6642 39.13 59.4613 39.0634 59.1907 39.0634C58.9246 39.0634 58.7171 39.1278 58.5682 39.2568C58.4194 39.3811 58.318 39.5497 58.2637 39.763L57.7631 39.6031C57.8173 39.421 57.903 39.2568 58.0203 39.11C58.1376 38.9592 58.2933 38.8392 58.4871 38.7505C58.6855 38.6571 58.9222 38.6105 59.1974 38.6105C59.6213 38.6105 59.9507 38.7192 60.1853 38.9369C60.4196 39.1502 60.5369 39.4521 60.5369 39.8429V41.3151C60.5369 41.4484 60.6 41.515 60.7265 41.515H61.0309V41.9614H60.5641C60.4151 41.9614 60.2956 41.9215 60.2054 41.8414C60.1152 41.757 60.0701 41.6461 60.0701 41.5083V41.4751H59.989C59.9394 41.5595 59.8717 41.6482 59.7861 41.7416C59.7048 41.8303 59.592 41.9037 59.4478 41.9614C59.3034 42.0235 59.1163 42.0545 58.8863 42.0545ZM58.9472 41.6016C59.2629 41.6016 59.5177 41.5107 59.7115 41.3283C59.9101 41.1419 60.0092 40.8822 60.0092 40.5491V40.4757H58.9134C58.7013 40.4757 58.5255 40.5224 58.3856 40.6157C58.2503 40.7044 58.1827 40.8399 58.1827 41.0219C58.1827 41.204 58.2525 41.3461 58.3923 41.4484C58.5367 41.5506 58.7217 41.6016 58.9472 41.6016Z" fill="white"/>
<path d="M61.7622 41.9615V37.2983H62.2967V41.9615H61.7622Z" fill="white"/>
<path d="M66.4911 42.0545C66.0807 42.0545 65.7333 41.9614 65.4493 41.7748C65.1695 41.5884 65.0004 41.293 64.9417 40.8887L65.4493 40.7756C65.4852 40.9887 65.5529 41.1576 65.6522 41.2819C65.7513 41.4017 65.8731 41.4883 66.0173 41.5417C66.1663 41.5905 66.3241 41.6148 66.4911 41.6148C66.7391 41.6148 66.9351 41.566 67.0796 41.4683C67.224 41.3707 67.2962 41.2396 67.2962 41.0753C67.2962 40.9065 67.2261 40.7889 67.0863 40.7222C66.951 40.6513 66.7639 40.5936 66.5249 40.5491L66.2474 40.5024C66.0356 40.4668 65.8415 40.4115 65.6656 40.336C65.4898 40.2604 65.3499 40.1582 65.2461 40.0295C65.1424 39.9006 65.0906 39.7385 65.0906 39.5432C65.0906 39.25 65.2055 39.0213 65.4356 38.857C65.6656 38.6927 65.9701 38.6105 66.3488 38.6105C66.7233 38.6105 67.0256 38.6949 67.2554 38.8637C67.49 39.028 67.6411 39.2611 67.7088 39.5632L67.2081 39.6897C67.1676 39.4542 67.0707 39.2899 66.9171 39.1966C66.7639 39.099 66.5743 39.0501 66.3488 39.0501C66.1233 39.0501 65.9453 39.0922 65.8144 39.1767C65.6836 39.2567 65.6184 39.3765 65.6184 39.5365C65.6184 39.6918 65.6791 39.8073 65.8009 39.8828C65.9271 39.954 66.0941 40.0072 66.3016 40.0428L66.5789 40.0894C66.8135 40.1294 67.0232 40.1849 67.2081 40.2559C67.3976 40.3225 67.5464 40.4201 67.6546 40.5491C67.7673 40.6777 67.8237 40.8466 67.8237 41.0554C67.8237 41.375 67.7021 41.6215 67.4583 41.7947C67.2194 41.9679 66.897 42.0545 66.4911 42.0545Z" fill="white"/>
<path d="M70.2547 42.0546C69.921 42.0546 69.6257 41.9858 69.3685 41.8482C69.1159 41.7104 68.9176 41.5173 68.7731 41.2686C68.6333 41.0156 68.5635 40.718 68.5635 40.376V40.2894C68.5635 39.9517 68.6333 39.6566 68.7731 39.4033C68.9176 39.1503 69.1159 38.9548 69.3685 38.8172C69.6257 38.6794 69.921 38.6106 70.2547 38.6106C70.5886 38.6106 70.8818 38.6794 71.1344 38.8172C71.3913 38.9548 71.5897 39.1503 71.7295 39.4033C71.874 39.6566 71.9462 39.9517 71.9462 40.2894V40.376C71.9462 40.718 71.874 41.0156 71.7295 41.2686C71.5897 41.5173 71.3913 41.7104 71.1344 41.8482C70.8818 41.9858 70.5886 42.0546 70.2547 42.0546ZM70.2547 41.5817C70.6066 41.5817 70.8861 41.473 71.0936 41.2554C71.3057 41.0334 71.4117 40.7356 71.4117 40.3625V40.3027C71.4117 39.9296 71.3057 39.6342 71.0936 39.4166C70.8861 39.1946 70.6066 39.0837 70.2547 39.0837C69.9076 39.0837 69.6279 39.1946 69.4158 39.4166C69.204 39.6342 69.098 39.9296 69.098 40.3027V40.3625C69.098 40.7356 69.204 41.0334 69.4158 41.2554C69.6279 41.473 69.9076 41.5817 70.2547 41.5817Z" fill="white"/>
<path d="M72.9075 41.9615V37.2983H73.4419V41.9615H72.9075Z" fill="white"/>
<path d="M75.8304 42.0214C75.5914 42.0214 75.3705 41.9704 75.1676 41.8681C74.9689 41.7659 74.8111 41.6149 74.6938 41.4152C74.581 41.2108 74.5247 40.9643 74.5247 40.6756V38.7039H75.0591V40.6357C75.0591 40.9599 75.1405 41.1954 75.3029 41.3419C75.4696 41.4884 75.6929 41.5617 75.9726 41.5617C76.2883 41.5617 76.5476 41.4595 76.7506 41.2553C76.9535 41.0508 77.055 40.7468 77.055 40.3425V38.7039H77.5895V41.9615H77.0684V41.4085H76.9737C76.9017 41.5639 76.7777 41.706 76.6016 41.8347C76.4258 41.9591 76.1686 42.0214 75.8304 42.0214Z" fill="white"/>
<path d="M79.9265 41.9615C79.737 41.9615 79.5905 41.9102 79.4868 41.8083C79.3875 41.706 79.3379 41.5661 79.3379 41.3885V39.1635H78.3435V38.7039H79.3379V37.5448H79.8723V38.7039H80.9549V39.1635H79.8723V41.3085C79.8723 41.4417 79.9378 41.5083 80.0686 41.5083H80.806V41.9615H79.9265Z" fill="white"/>
<path d="M81.8202 41.9612V38.7036H82.3547V41.9612H81.8202ZM82.0908 38.1973C81.9735 38.1973 81.8745 38.1596 81.7931 38.0841C81.7166 38.0085 81.6782 37.913 81.6782 37.7976C81.6782 37.6776 81.7166 37.5799 81.7931 37.5044C81.8745 37.4289 81.9735 37.3914 82.0908 37.3914C82.2081 37.3914 82.3051 37.4289 82.3818 37.5044C82.4586 37.5799 82.4967 37.6776 82.4967 37.7976C82.4967 37.913 82.4586 38.0085 82.3818 38.0841C82.3051 38.1596 82.2081 38.1973 82.0908 38.1973Z" fill="white"/>
<path d="M85.0079 42.0545C84.6742 42.0545 84.3789 41.9857 84.1217 41.8481C83.8691 41.7103 83.6707 41.5172 83.5263 41.2685C83.3865 41.0154 83.3167 40.7179 83.3167 40.3759V40.2893C83.3167 39.9516 83.3865 39.6565 83.5263 39.4032C83.6707 39.1502 83.8691 38.9547 84.1217 38.8171C84.3789 38.6793 84.6742 38.6105 85.0079 38.6105C85.3418 38.6105 85.6349 38.6793 85.8876 38.8171C86.1445 38.9547 86.3431 39.1502 86.4827 39.4032C86.6271 39.6565 86.6993 39.9516 86.6993 40.2893V40.3759C86.6993 40.7179 86.6271 41.0154 86.4827 41.2685C86.3431 41.5172 86.1445 41.7103 85.8876 41.8481C85.6349 41.9857 85.3418 42.0545 85.0079 42.0545ZM85.0079 41.5816C85.3598 41.5816 85.6395 41.4729 85.8468 41.2552C86.0588 41.0332 86.1649 40.7355 86.1649 40.3624V40.3025C86.1649 39.9295 86.0588 39.6341 85.8468 39.4165C85.6395 39.1945 85.3598 39.0836 85.0079 39.0836C84.6607 39.0836 84.381 39.1945 84.169 39.4165C83.9572 39.6341 83.8511 39.9295 83.8511 40.3025V40.3624C83.8511 40.7355 83.9572 41.0332 84.169 41.2552C84.381 41.4729 84.6607 41.5816 85.0079 41.5816Z" fill="white"/>
<path d="M87.6606 41.9613V38.7037H88.1817V39.2566H88.2762C88.3484 39.101 88.4703 38.9613 88.6416 38.8369C88.8176 38.708 89.0746 38.6438 89.4128 38.6438C89.6608 38.6438 89.882 38.6948 90.0759 38.797C90.2742 38.899 90.4321 39.05 90.5494 39.2499C90.6667 39.4498 90.7252 39.6963 90.7252 39.9893V41.9613H90.1908V40.0294C90.1908 39.7052 90.1075 39.4697 89.9406 39.3233C89.7782 39.1766 89.5572 39.1034 89.2775 39.1034C88.9572 39.1034 88.6958 39.2054 88.4928 39.4099C88.2944 39.6141 88.1951 39.9183 88.1951 40.3224V41.9613H87.6606Z" fill="white"/>
<path d="M95.3804 42.0546C95.0378 42.0546 94.7694 41.9904 94.5753 41.8615C94.386 41.7328 94.2483 41.5861 94.1627 41.4218H94.0679V41.9615H93.5471V37.2983H94.0816V39.217H94.1763C94.2303 39.1147 94.3071 39.0193 94.4062 38.9305C94.5055 38.8372 94.6341 38.7617 94.7919 38.7039C94.9543 38.6416 95.1505 38.6106 95.3804 38.6106C95.6692 38.6106 95.9307 38.6794 96.1653 38.8172C96.4042 38.9505 96.5937 39.1436 96.7336 39.3966C96.8734 39.6453 96.9432 39.9429 96.9432 40.2894V40.376C96.9432 40.7224 96.871 41.0221 96.7266 41.2753C96.587 41.5284 96.3975 41.7217 96.1586 41.855C95.9239 41.988 95.6646 42.0546 95.3804 42.0546ZM95.2383 41.5885C95.5811 41.5885 95.8585 41.4819 96.0705 41.2686C96.2869 41.0509 96.3953 40.7491 96.3953 40.3626V40.3027C96.3953 39.9164 96.2869 39.6165 96.0705 39.4034C95.8585 39.1857 95.5811 39.077 95.2383 39.077C94.9001 39.077 94.6204 39.1857 94.3994 39.4034C94.1831 39.6165 94.0746 39.9164 94.0746 40.3027V40.3626C94.0746 40.7491 94.1831 41.0509 94.3994 41.2686C94.6204 41.4819 94.9001 41.5885 95.2383 41.5885Z" fill="white"/>
<path d="M98.3001 43.2937V42.8273H100.194C100.325 42.8273 100.39 42.7607 100.39 42.6275V41.4417H100.296C100.251 41.535 100.181 41.6283 100.086 41.7217C99.9959 41.8104 99.8764 41.8838 99.7274 41.9415C99.5787 41.9947 99.3916 42.0214 99.1661 42.0214C98.9269 42.0214 98.706 41.9704 98.503 41.8681C98.3046 41.7659 98.1468 41.6149 98.0295 41.4152C97.9167 41.2154 97.8604 40.971 97.8604 40.6824V38.7039H98.3948V40.6424C98.3948 40.9621 98.4759 41.1954 98.6383 41.3419C98.8053 41.4884 99.0284 41.5617 99.3081 41.5617C99.6238 41.5617 99.8831 41.4595 100.086 41.2553C100.289 41.0508 100.39 40.7468 100.39 40.3425V38.7039H100.925V42.7208C100.925 42.8985 100.873 43.0383 100.769 43.1405C100.67 43.2427 100.524 43.2937 100.33 43.2937H98.3001Z" fill="white"/>
<path d="M105.114 42.0546C104.703 42.0546 104.356 41.9615 104.072 41.7749C103.792 41.5885 103.623 41.2931 103.564 40.8888L104.072 40.7758C104.108 40.9889 104.175 41.1577 104.275 41.2821C104.374 41.4018 104.496 41.4884 104.64 41.5418C104.789 41.5906 104.947 41.6149 105.114 41.6149C105.362 41.6149 105.558 41.5661 105.702 41.4685C105.847 41.3708 105.919 41.2397 105.919 41.0754C105.919 40.9066 105.849 40.789 105.709 40.7224C105.574 40.6514 105.386 40.5937 105.147 40.5492L104.87 40.5025C104.658 40.4669 104.464 40.4116 104.288 40.3361C104.112 40.2606 103.973 40.1583 103.869 40.0297C103.765 39.9007 103.713 39.7386 103.713 39.5433C103.713 39.2501 103.828 39.0214 104.058 38.8571C104.288 38.6929 104.593 38.6106 104.972 38.6106C105.346 38.6106 105.648 38.695 105.878 38.8639C106.113 39.0281 106.264 39.2612 106.331 39.5633L105.831 39.6898C105.79 39.4543 105.693 39.2901 105.54 39.1967C105.386 39.0991 105.197 39.0503 104.972 39.0503C104.746 39.0503 104.568 39.0924 104.437 39.1768C104.306 39.2569 104.241 39.3766 104.241 39.5366C104.241 39.692 104.302 39.8074 104.423 39.8829C104.55 39.9541 104.717 40.0073 104.924 40.0429L105.201 40.0896C105.436 40.1295 105.646 40.185 105.831 40.256C106.02 40.3226 106.169 40.4203 106.277 40.5492C106.39 40.6779 106.446 40.8467 106.446 41.0555C106.446 41.3751 106.325 41.6217 106.081 41.7948C105.842 41.968 105.52 42.0546 105.114 42.0546Z" fill="white"/>
<path d="M108.864 42.0546C108.53 42.0546 108.237 41.9858 107.985 41.8482C107.732 41.7061 107.536 41.5084 107.396 41.2554C107.256 41.0021 107.186 40.7091 107.186 40.376V40.2959C107.186 39.9585 107.256 39.6631 107.396 39.4101C107.536 39.1568 107.73 38.9615 107.978 38.8237C108.226 38.6818 108.51 38.6106 108.83 38.6106C109.141 38.6106 109.417 38.6772 109.656 38.8105C109.895 38.9391 110.082 39.1258 110.217 39.3702C110.353 39.6143 110.42 39.9007 110.42 40.2293V40.4693H107.721C107.734 40.82 107.849 41.0954 108.066 41.2953C108.282 41.4906 108.553 41.5885 108.878 41.5885C109.162 41.5885 109.381 41.524 109.534 41.3951C109.687 41.2664 109.804 41.1132 109.886 40.9355L110.346 41.1553C110.278 41.2931 110.183 41.4307 110.062 41.5685C109.944 41.7061 109.789 41.8215 109.595 41.9149C109.405 42.0082 109.162 42.0546 108.864 42.0546ZM107.727 40.0362H109.879C109.861 39.7343 109.755 39.4988 109.561 39.33C109.371 39.1614 109.128 39.077 108.83 39.077C108.528 39.077 108.28 39.1614 108.086 39.33C107.892 39.4988 107.773 39.7343 107.727 40.0362Z" fill="white"/>
<path d="M111.352 41.9615V37.2983H111.887V41.9615H111.352Z" fill="white"/>
<path d="M113.01 41.9614V38.7038H113.545V41.9614H113.01ZM113.281 38.1975C113.164 38.1975 113.065 38.1597 112.984 38.0842C112.907 38.0087 112.868 37.9132 112.868 37.7977C112.868 37.6777 112.907 37.58 112.984 37.5045C113.065 37.429 113.164 37.3915 113.281 37.3915C113.398 37.3915 113.495 37.429 113.572 37.5045C113.649 37.58 113.687 37.6777 113.687 37.7977C113.687 37.9132 113.649 38.0087 113.572 38.0842C113.495 38.1597 113.398 38.1975 113.281 38.1975Z" fill="white"/>
<path d="M116.003 42.0545C115.592 42.0545 115.245 41.9614 114.961 41.7748C114.681 41.5884 114.512 41.293 114.453 40.8887L114.961 40.7756C114.997 40.9887 115.064 41.1576 115.164 41.2819C115.263 41.4017 115.385 41.4883 115.529 41.5417C115.678 41.5905 115.836 41.6148 116.003 41.6148C116.251 41.6148 116.447 41.566 116.591 41.4683C116.735 41.3707 116.808 41.2396 116.808 41.0753C116.808 40.9065 116.738 40.7889 116.598 40.7222C116.462 40.6513 116.275 40.5936 116.036 40.5491L115.759 40.5024C115.547 40.4668 115.353 40.4115 115.177 40.336C115.001 40.2604 114.861 40.1582 114.758 40.0295C114.654 39.9006 114.602 39.7385 114.602 39.5432C114.602 39.25 114.717 39.0213 114.947 38.857C115.177 38.6927 115.482 38.6105 115.86 38.6105C116.235 38.6105 116.537 38.6949 116.767 38.8637C117.001 39.028 117.153 39.2611 117.22 39.5632L116.72 39.6897C116.679 39.4542 116.582 39.2899 116.429 39.1966C116.275 39.099 116.086 39.0501 115.86 39.0501C115.635 39.0501 115.457 39.0922 115.326 39.1767C115.195 39.2567 115.13 39.3765 115.13 39.5365C115.13 39.6918 115.191 39.8073 115.312 39.8828C115.439 39.954 115.606 40.0072 115.813 40.0428L116.09 40.0894C116.325 40.1294 116.535 40.1849 116.72 40.2559C116.909 40.3225 117.058 40.4201 117.166 40.5491C117.279 40.6777 117.335 40.8466 117.335 41.0554C117.335 41.375 117.214 41.6215 116.97 41.7947C116.731 41.9679 116.408 42.0545 116.003 42.0545Z" fill="white"/>
<path d="M119.752 42.0545C119.419 42.0545 119.125 41.9857 118.873 41.8481C118.62 41.706 118.424 41.5083 118.284 41.2552C118.145 41.002 118.074 40.709 118.074 40.3759V40.2958C118.074 39.9583 118.145 39.663 118.284 39.41C118.424 39.1567 118.618 38.9614 118.866 38.8236C119.114 38.6817 119.398 38.6105 119.718 38.6105C120.03 38.6105 120.305 38.6771 120.544 38.8103C120.783 38.939 120.97 39.1257 121.105 39.37C121.241 39.6142 121.308 39.9006 121.308 40.2292V40.4692H118.609C118.622 40.8199 118.738 41.0953 118.954 41.2952C119.171 41.4905 119.441 41.5884 119.766 41.5884C120.05 41.5884 120.269 41.5239 120.422 41.395C120.575 41.2663 120.693 41.1131 120.774 40.9353L121.234 41.1552C121.166 41.293 121.071 41.4306 120.95 41.5684C120.832 41.706 120.677 41.8214 120.483 41.9147C120.293 42.0081 120.05 42.0545 119.752 42.0545ZM118.616 40.036H120.767C120.749 39.7342 120.643 39.4987 120.449 39.3299C120.26 39.1613 120.016 39.0768 119.718 39.0768C119.416 39.0768 119.168 39.1613 118.974 39.3299C118.78 39.4987 118.661 39.7342 118.616 40.036Z" fill="white"/>
<path d="M24.425 25.2858L24.4111 25.2892C24.416 25.289 24.4206 25.2879 24.4253 25.2868C24.4466 25.2816 24.4689 25.2763 24.4904 25.2721C24.4689 25.2763 24.4473 25.2805 24.425 25.2858Z" fill="white"/>
<path d="M25.5713 25.5529C25.541 26.0736 25.0559 26.1376 24.6812 26.293C24.5911 26.3303 24.485 26.3421 24.3869 26.3424C24.0452 26.3417 23.5695 26.4484 23.498 26.0184C23.4292 25.5995 23.8849 25.4626 24.2309 25.3346C24.2887 25.3139 24.351 25.3038 24.4113 25.2893L24.4252 25.2859C24.4475 25.2806 24.469 25.2764 24.4906 25.2721C24.5122 25.2679 24.5337 25.2637 24.5553 25.2595C24.5761 25.2564 24.5977 25.2522 24.6185 25.2492C24.8771 25.2104 25.1183 25.2215 25.292 25.2742C25.3035 25.2773 25.3141 25.2806 25.3248 25.2839C25.3473 25.2921 25.3681 25.3007 25.387 25.3098C25.3969 25.3143 25.4058 25.3189 25.4148 25.3236C25.4576 25.3464 25.4937 25.3738 25.5186 25.4038C25.5239 25.4094 25.528 25.4143 25.5314 25.4203C25.5355 25.4251 25.5385 25.4293 25.5403 25.4327C25.5435 25.4378 25.5467 25.4429 25.5492 25.4491C25.5521 25.4533 25.5542 25.4576 25.5553 25.4622C25.5571 25.4657 25.5592 25.4701 25.56 25.4738C25.569 25.4989 25.5725 25.5253 25.5713 25.5529Z" fill="white"/>
<path d="M21.5118 26.527C21.4806 27.044 21.0085 27.1254 20.6265 27.2709C20.5359 27.3063 20.4294 27.3202 20.3316 27.3174C19.9971 27.3063 19.5266 27.4468 19.4486 26.994C19.3715 26.5488 19.843 26.453 20.1727 26.3104C20.2333 26.2851 20.3023 26.2782 20.3673 26.2626C20.9549 26.1193 21.5282 26.2415 21.5118 26.527Z" fill="white"/>
<path d="M16.3923 6.35121C16.7569 6.22752 17.1422 6.16384 17.5168 6.07373C23.1648 4.65412 28.9871 6.98092 32.1369 11.9065C32.3957 12.3118 32.6142 12.4022 33.0882 12.2804C35.4177 11.6812 37.813 13.0028 38.5376 15.2425C39.2715 17.5091 38.1497 19.9953 35.9547 20.8868C35.4801 21.0798 34.95 21.1628 34.4369 21.2287C34.1629 21.2644 34.0152 21.3129 33.9631 21.6048C33.7237 22.9298 33.246 24.1732 32.628 25.369C32.5386 25.5435 32.511 25.7882 32.547 25.9821C33.3947 30.4959 31.1635 34.7989 26.9569 36.7409C22.1322 38.9679 16.0704 36.6489 14.0659 31.7568C13.7118 30.8922 13.2481 30.2553 12.4764 29.7054C11.6295 29.1005 10.9269 28.2894 10.1995 27.5331C9.95424 27.2774 9.79648 27.1611 9.41372 27.2912C7.61778 27.9002 5.98265 27.5798 4.62047 26.2594C3.35052 25.0286 2.94438 23.5008 3.42521 21.8061C3.89288 20.1584 4.98723 19.0594 6.67767 18.6343C7.08557 18.5322 7.18481 18.3619 7.22952 17.9743C7.80785 12.9042 10.3843 9.20181 14.9908 6.91229C15.4401 6.6883 15.9158 6.5116 16.3923 6.35121ZM26.6762 12.2958C24.0599 11.6918 21.8314 12.5106 20.1223 14.5933C19.8523 14.9222 19.678 14.9532 19.306 14.7825C17.2675 13.8478 15.2437 13.9766 13.3152 15.0774C10.9622 16.4206 9.80847 19.0104 10.2532 21.7538C10.6548 24.2329 12.7416 26.3202 15.3303 26.8344C15.6034 26.8886 15.8771 26.9396 16.1478 26.9914C15.442 31.0702 17.7792 33.874 20.1949 34.9161C22.9957 36.1255 26.2302 35.4433 28.2729 33.2093C29.3006 32.0844 29.8927 30.7593 30.0571 29.2537C30.267 27.3194 29.7077 25.5981 28.491 24.0137C28.6777 23.8773 28.8126 23.7825 28.9442 23.6817C31.0558 22.0702 31.9785 19.9372 31.5026 17.3493C31.0096 14.6751 29.3464 12.9122 26.6762 12.2958ZM33.3968 14.5605L34.7387 18.8681C35.4765 18.7521 36.8224 18.0584 36.3023 16.212C35.782 14.3654 34.1484 14.3413 33.3968 14.5605ZM7.16465 20.8625C6.31432 21.1615 5.75177 21.7404 5.60976 22.6356C5.4663 23.541 5.75631 24.3233 6.52841 24.8624C7.14433 25.2916 7.82683 25.392 8.49109 25.1768C8.03995 23.7113 7.60659 22.298 7.16465 20.8625Z" fill="white"/>
<path d="M27.8081 28.3602C27.0191 30.0943 25.4381 31.384 23.4785 31.6571C21.6221 31.9156 19.8448 31.2025 18.6162 29.8907C20.016 30.1204 21.4742 30.1457 22.9542 29.9399C24.7046 29.6961 26.3384 29.1492 27.8076 28.3603L27.8081 28.3602Z" fill="white"/>
<path d="M16.0414 18.457C17.2135 18.1615 18.4418 18.8909 18.7186 20.0449C18.9986 21.2135 18.2644 22.3939 17.0791 22.6821C15.9239 22.9628 14.7508 22.2476 14.4695 21.0829C14.1882 19.9183 14.8878 18.7481 16.0414 18.457ZM15.8511 19.4078C15.5365 19.4837 15.3428 19.7982 15.4181 20.1105C15.4936 20.423 15.8099 20.6157 16.1247 20.5402C16.4396 20.4645 16.6339 20.1489 16.5584 19.8363C16.4828 19.5238 16.166 19.332 15.8511 19.4078Z" fill="white"/>
<path d="M24.6176 16.3945C25.7897 16.099 27.018 16.8284 27.2947 17.9824C27.5748 19.151 26.8406 20.3314 25.6552 20.6196C24.5001 20.9003 23.327 20.1851 23.0457 19.0204C22.7644 17.8558 23.4641 16.6856 24.6176 16.3945ZM24.4282 17.345C24.1134 17.4208 23.919 17.7355 23.9943 18.048C24.0698 18.3606 24.3868 18.5533 24.7018 18.4775C25.0166 18.4016 25.2101 18.0863 25.1346 17.7738C25.059 17.4615 24.743 17.2695 24.4282 17.345Z" fill="white"/>
</svg>
