<svg width="24" height="25" viewBox="0 0 24 25" fill="none" xmlns="http://www.w3.org/2000/svg">
<path d="M8.11869 9.79007L11.9987 13.6701L15.8787 9.79007C15.9713 9.69749 16.0812 9.62405 16.2022 9.57394C16.3231 9.52384 16.4528 9.49805 16.5837 9.49805C16.7146 9.49805 16.8443 9.52384 16.9652 9.57394C17.0862 9.62405 17.1961 9.69749 17.2887 9.79007C17.3813 9.88265 17.4547 9.99256 17.5048 10.1135C17.5549 10.2345 17.5807 10.3641 17.5807 10.4951C17.5807 10.626 17.5549 10.7556 17.5048 10.8766C17.4547 10.9976 17.3813 11.1075 17.2887 11.2001L12.6987 15.7901C12.6062 15.8828 12.4963 15.9563 12.3753 16.0065C12.2543 16.0567 12.1247 16.0825 11.9937 16.0825C11.8627 16.0825 11.733 16.0567 11.6121 16.0065C11.4911 15.9563 11.3812 15.8828 11.2887 15.7901L6.69869 11.2001C6.60599 11.1076 6.53244 10.9977 6.48226 10.8767C6.43208 10.7557 6.40625 10.626 6.40625 10.4951C6.40625 10.3641 6.43208 10.2344 6.48226 10.1134C6.53244 9.99247 6.60599 9.88258 6.69869 9.79007C7.08869 9.41007 7.72869 9.40007 8.11869 9.79007Z" fill="white"/>
</svg>
